Bevan.ufo
<glyph name="exclam" format="1">
  <advance width="577"/>
  <unicode hex="0021"/>
  <outline>
    <contour>
      <point x="284.0" y="18.0" type="curve" smooth="yes"/>
      <point x="427.075012207" y="18"/>
      <point x="520.0" y="90.3231964111"/>
      <point x="520.0" y="212.0" type="curve" smooth="yes"/>
      <point x="520.0" y="331.023986816"/>
      <point x="429.221984863" y="406.95199585"/>
      <point x="296.640991211" y="411.800994873" type="curve"/>
      <point x="295.039001465" y="411.0" type="line"/>
      <point x="283.0" y="411.0" type="line" smooth="yes"/>
      <point x="147.67199707" y="411.0"/>
      <point x="57.0" y="335.049987793"/>
      <point x="57.0" y="212.0" type="curve" smooth="yes"/>
      <point x="57.0" y="91.0576019287"/>
      <point x="146.51600647" y="18.0"/>
    </contour>
    <contour>
      <point x="450.217987061" y="608.78302002" type="line"/>
      <point x="529.0" y="1333.76000977" type="line"/>
      <point x="529.0" y="1579.0" type="line"/>
      <point x="44.0" y="1579.0" type="line"/>
      <point x="44.0" y="1333.68994141" type="line"/>
      <point x="120.864990234" y="607.218994141" type="line"/>
    </contour>
  </outline>
</glyph>
<glyph name="quotedbl" format="1">
  <advance width="944"/>
  <unicode hex="0022"/>
  <outline>
    <contour>
      <point x="41" y="1573" type="line"/>
      <point x="378.398986816" y="1573" type="line"/>
      <point x="312.303009033" y="996" type="line"/>
      <point x="108.981994629" y="996" type="line"/>
    </contour>
    <contour>
      <point x="552.177978516" y="1573" type="line"/>
      <point x="889.577026367" y="1573" type="line"/>
      <point x="804.599975586" y="996" type="line"/>
      <point x="605.054992676" y="996" type="line"/>
    </contour>
  </outline>
</glyph>
<glyph name="dollar" format="1">
  <advance width="1090"/>
  <unicode hex="0024"/>
  <outline>
    <contour>
      <point x="861.0" y="1080.0" type="curve" smooth="yes"/>
      <point x="867.156982422" y="1080" type="line"/>
      <point x="944.0" y="1082.54003906" type="line"/>
      <point x="944.0" y="1476.0" type="line"/>
      <point x="834.125" y="1476.0" type="line"/>
      <point x="786.398986816" y="1418.30004883" type="line"/>
      <point x="759.481994629" y="1433.0" type="line" smooth="yes"/>
      <point x="708.932983398" y="1461.4699707"/>
      <point x="669.601989746" y="1481.59997559"/>
      <point x="642.893981934" y="1493.0" type="curve" smooth="yes"/>
      <point x="614.213989258" y="1504.88000488" type="line"/>
      <point x="614.213989258" y="1703.0" type="line"/>
      <point x="509.746002197" y="1703.0" type="line"/>
      <point x="509.746002197" y="1514.55004883" type="line"/>
      <point x="469.37298584" y="1512.0" type="line" smooth="yes"/>
      <point x="236.037002563" y="1496.07995605"/>
      <point x="49.0" y="1341.70996094"/>
      <point x="49.0" y="1053.0" type="curve" smooth="yes"/>
      <point x="49.0" y="776.849975586"/>
      <point x="256.122009277" y="705.989990234"/>
      <point x="469.980987549" y="636.20300293" type="curve" smooth="yes"/>
      <point x="501.389007568" y="625.95300293" type="line"/>
      <point x="501.389007568" y="197.0" type="line"/>
      <point x="458.765991211" y="197.0" type="line" smooth="yes"/>
      <point x="351.32800293" y="197.0"/>
      <point x="241.651000977" y="359.885986328"/>
      <point x="205.785995483" y="494.82800293" type="curve"/>
      <point x="58.0" y="494.212005615" type="line"/>
      <point x="58.0" y="66.0" type="line"/>
      <point x="175.656005859" y="66.0" type="line"/>
      <point x="229.158996582" y="146.292007446" type="line"/>
      <point x="267.813995361" y="128.0" type="line"/>
      <point x="331.053009033" y="93.0097961426"/>
      <point x="397.893005371" y="65.87890625"/>
      <point x="472.975006104" y="47.0" type="curve" smooth="yes"/>
      <point x="507.239013672" y="38.8007965088" type="line"/>
      <point x="507.239013672" y="-167.0" type="line"/>
      <point x="615.04901123" y="-167.0" type="line"/>
      <point x="615.04901123" y="31.7714996338" type="line"/>
      <point x="655.721984863" y="34.0" type="line" smooth="yes"/>
      <point x="849.999023438" y="45.5361022949"/>
      <point x="1070.69995117" y="255.110992432"/>
      <point x="1059.09997559" y="517.489013672" type="curve" smooth="yes"/>
      <point x="1047.77001953" y="773.554992676"/>
      <point x="850.299987793" y="872.383972168"/>
      <point x="646.161010742" y="940.895996094" type="curve" smooth="yes"/>
      <point x="615.04901123" y="951.336975098" type="line"/>
      <point x="615.04901123" y="1218.0" type="line" smooth="yes"/>
      <point x="615.04901123" y="1314.95996094"/>
      <point x="660.223022461" y="1326.0"/>
      <point x="666.864990234" y="1326.0" type="curve" smooth="yes"/>
      <point x="688.258972168" y="1326.0"/>
      <point x="700.531005859" y="1306.55004883"/>
      <point x="714.148986816" y="1286.83996582" type="curve" smooth="yes"/>
      <point x="756.484008789" y="1225.56994629"/>
      <point x="791.619995117" y="1156.5"/>
      <point x="809.015014648" y="1078.05004883" type="curve"/>
      <point x="809.434020996" y="1078.04003906"/>
      <point x="811.312011719" y="1078.0"/>
      <point x="812.283996582" y="1078.0" type="curve" smooth="yes"/>
      <point x="823.5" y="1078.0" type="line" smooth="yes"/>
      <point x="826.66998291" y="1078.0"/>
      <point x="848.257019043" y="1080.0"/>
    </contour>
    <contour>
      <point x="650.150024414" y="206.0" type="curve" smooth="yes"/>
      <point x="607.528015137" y="206.0" type="line"/>
      <point x="607.528015137" y="585.901977539" type="line"/>
      <point x="655.531982422" y="578.59197998" type="line" smooth="yes"/>
      <point x="729.280029297" y="567.361022949"/>
      <point x="785.401977539" y="490.335998535"/>
      <point x="777.827026367" y="395.165008545" type="curve" smooth="yes"/>
      <point x="774.153015137" y="349.0" type="line"/>
      <point x="767.388000488" y="349.0" type="line"/>
      <point x="746.539978027" y="267.934997559"/>
      <point x="700.893005371" y="206.0"/>
    </contour>
    <contour>
      <point x="464.880004883" y="1371.89001465" type="curve" smooth="yes"/>
      <point x="505.566986084" y="1369.68005371" type="line"/>
      <point x="505.566986084" y="995.827026367" type="line"/>
      <point x="453.958007812" y="1009.15002441" type="line" smooth="yes"/>
      <point x="394.467987061" y="1024.5"/>
      <point x="324.212005615" y="1080.59997559"/>
      <point x="324.212005615" y="1180.0" type="curve" smooth="yes"/>
      <point x="324.212005615" y="1181.0" type="line" smooth="yes"/>
      <point x="324.212005615" y="1308.14001465"/>
      <point x="404.029998779" y="1376.41003418"/>
    </contour>
  </outline>
</glyph>
<glyph name="percent" format="1">
  <advance width="2489"/>
  <unicode hex="0025"/>
  <outline>
    <contour>
      <point x="606.564025879" y="1137.0" type="curve" smooth="yes"/>
      <point x="606.564025879" y="1094.02001953" type="line"/>
      <point x="605.614013672" y="1068.02001953" type="line"/>
      <point x="605.614013672" y="1048.0" type="line" smooth="yes"/>
      <point x="605.614013672" y="970.400024414"/>
      <point x="585.429016113" y="838.0"/>
      <point x="463.167999268" y="838.0" type="curve" smooth="yes"/>
      <point x="352.994995117" y="838.0"/>
      <point x="326.420013428" y="964.729980469"/>
      <point x="326.420013428" y="1097.0" type="curve" smooth="yes"/>
      <point x="326.420013428" y="1206.31005859"/>
      <point x="326.67098999" y="1357.88000488"/>
      <point x="469.970001221" y="1363.18005371" type="curve"/>
      <point x="583.893005371" y="1339.18005371"/>
      <point x="606.564025879" y="1237.44995117"/>
    </contour>
    <contour>
      <point x="2148.78009033" y="580.0" type="curve" smooth="yes"/>
      <point x="2148.78009033" y="562.0" type="line" smooth="yes"/>
      <point x="2148.78009033" y="554.039001465"/>
      <point x="2148.50006104" y="546.95501709"/>
      <point x="2147.83013916" y="537.09197998" type="curve"/>
      <point x="2147.83013916" y="491.0" type="line" smooth="yes"/>
      <point x="2147.83013916" y="413.399993896"/>
      <point x="2127.64996338" y="281.0"/>
      <point x="2005.39007568" y="281.0" type="curve" smooth="yes"/>
      <point x="1895.21002197" y="281.0"/>
      <point x="1868.64007568" y="407.730010986"/>
      <point x="1868.64007568" y="540.0" type="curve" smooth="yes"/>
      <point x="1868.64007568" y="651.835998535"/>
      <point x="1870.13006592" y="798.268005371"/>
      <point x="2011.74005127" y="806.270996094" type="curve"/>
      <point x="2125.96002197" y="782.213012695"/>
      <point x="2148.78009033" y="680.809020996"/>
    </contour>
    <contour>
      <point x="465.067077637" y="1601.0" type="line"/>
      <point x="196.703094482" y="1601.0"/>
      <point x="32.3613891602" y="1375.64001465"/>
      <point x="32.0000915527" y="1077.93994141" type="curve"/>
      <point x="32.0000915527" y="773.109985352"/>
      <point x="199.85609436" y="590.0"/>
      <point x="487.859085083" y="590.0" type="curve" smooth="yes"/>
      <point x="753.692092896" y="590.0"/>
      <point x="892.406082153" y="810.322998047"/>
      <point x="892.406082153" y="1111.0" type="curve" smooth="yes"/>
      <point x="892.406082153" y="1413.55004883"/>
      <point x="744.68208313" y="1601.0"/>
      <point x="465.067062378" y="1601.0" type="curve"/>
    </contour>
    <contour>
      <point x="893.193069458" y="51.0" type="line"/>
      <point x="1271.91011047" y="51.0" type="line"/>
      <point x="1576.27009583" y="1572.0" type="line"/>
      <point x="1196.67012024" y="1572.0" type="line"/>
    </contour>
    <contour>
      <point x="2007.29011536" y="1044.0" type="line"/>
      <point x="1743.00007629" y="1044.0"/>
      <point x="1586.9400177" y="818.643981934"/>
      <point x="1586.59004211" y="520.937988281" type="curve"/>
      <point x="1586.59004211" y="216.109985352"/>
      <point x="1746.00007629" y="32.9999847412"/>
      <point x="2030.08003235" y="32.9999847412" type="curve" smooth="yes"/>
      <point x="2300.93000793" y="32.9999847412"/>
      <point x="2447.00007629" y="253.322982788"/>
      <point x="2447.00007629" y="553.999984741" type="curve" smooth="yes"/>
      <point x="2447.00007629" y="856.551986694"/>
      <point x="2291.4400177" y="1043.99998474"/>
      <point x="2007.29011536" y="1043.99998474" type="curve"/>
    </contour>
  </outline>
</glyph>
<glyph name="parenright" format="1">
  <advance width="711"/>
  <unicode hex="0029"/>
  <outline>
    <contour>
      <point x="300.588989258" y="1369.17004395" type="line"/>
      <point x="531.781005859" y="1339.97998047"/>
      <point x="589.335998535" y="1092.84997559"/>
      <point x="589.335998535" y="817.0" type="curve" smooth="yes"/>
      <point x="589.335998535" y="556.943969727"/>
      <point x="530.002990723" y="291.854003906"/>
      <point x="303.015014648" y="262.567993164" type="curve"/>
      <point x="303.015014648" y="32.1309051514" type="line"/>
      <point x="463.493988037" y="41.13671875"/>
      <point x="592.973999023" y="106.617019653"/>
      <point x="685.939025879" y="188.061019897" type="curve" smooth="yes"/>
      <point x="841.833007812" y="324.634017944"/>
      <point x="959.039001465" y="516.961013794"/>
      <point x="959.039001465" y="815.000015259" type="curve" smooth="yes"/>
      <point x="959.039001465" y="1349.18995667"/>
      <point x="722.010009766" y="1584.68006897"/>
      <point x="300.588989258" y="1600.21998596" type="curve"/>
    </contour>
    <contour>
      <point x="300.588989258" y="1702.7099762" type="line"/>
      <point x="202.261001587" y="1601.00001526" type="line"/>
      <point x="36.0" y="1601.00001526" type="line"/>
      <point x="300.588989258" y="1735.52003479" type="line"/>
    </contour>
  </outline>
</glyph>
<glyph name="asterisk" format="1">
  <advance width="1039"/>
  <unicode hex="002A"/>
  <outline>
    <contour>
      <point x="475.062988281" y="909.195007324" type="line"/>
      <point x="438.050994873" y="895.320983887" type="line" smooth="yes"/>
      <point x="304.628997803" y="845.307006836"/>
      <point x="-66.8404846191" y="779.494995117"/>
      <point x="34.5889129639" y="560.0" type="curve" smooth="yes"/>
      <point x="111.669021606" y="393.197998047"/>
      <point x="215.278015137" y="523.317993164"/>
      <point x="266.924026489" y="620.062011719" type="curve"/>
      <point x="296.102005005" y="655.062011719" type="line" smooth="yes"/>
      <point x="321.480026245" y="685.505004883"/>
      <point x="398.979019165" y="799.676025391"/>
      <point x="421.886001587" y="832.648986816" type="curve" smooth="yes"/>
    </contour>
    <contour>
      <point x="516.687026978" y="870.974975586" type="line"/>
      <point x="495.271011353" y="785.346008301" type="line" smooth="yes"/>
      <point x="465.14201355" y="664.875"/>
      <point x="425.370010376" y="556.103027344"/>
      <point x="425.370010376" y="422.0" type="curve" smooth="yes"/>
      <point x="425.370010376" y="310.652008057"/>
      <point x="464.573013306" y="242.0"/>
      <point x="517.072036743" y="242.0" type="curve" smooth="yes"/>
      <point x="569.607009888" y="242.0"/>
      <point x="608.773025513" y="310.580993652"/>
      <point x="608.773025513" y="422.0" type="curve" smooth="yes"/>
      <point x="608.773025513" y="548.750976562"/>
      <point x="566.636001587" y="661.262023926"/>
      <point x="537.880996704" y="781.989013672" type="curve" smooth="yes"/>
    </contour>
    <contour>
      <point x="512.6900177" y="993.299987793" type="line"/>
      <point x="538.038040161" y="1094.65002441" type="line" smooth="yes"/>
      <point x="568.901016235" y="1218.05004883"/>
      <point x="606.271987915" y="1320.7800293"/>
      <point x="606.271987915" y="1454.0" type="curve" smooth="yes"/>
      <point x="606.271987915" y="1565.34997559"/>
      <point x="567.070022583" y="1634.0"/>
      <point x="514.570999146" y="1634.0" type="curve" smooth="yes"/>
      <point x="462.034011841" y="1634.0"/>
      <point x="422.869003296" y="1565.42004395"/>
      <point x="422.869003296" y="1454.0" type="curve" smooth="yes"/>
      <point x="422.869003296" y="1326.2800293"/>
      <point x="466.408004761" y="1215.36999512"/>
      <point x="492.459030151" y="1090.36999512" type="curve" smooth="yes"/>
    </contour>
    <contour>
      <point x="49.7705230713" y="1357.85998535" type="curve"/>
      <point x="37.2373199463" y="1328.0" type="line"/>
      <point x="-81.014175415" y="1117.20996094"/>
      <point x="310.616012573" y="1045.41003418"/>
      <point x="439.229019165" y="992.213989258" type="curve" smooth="yes"/>
      <point x="462.012008667" y="982.789978027" type="line"/>
      <point x="418.551010132" y="1045.34997559" type="line"/>
      <point x="379.292007446" y="1110.88000488"/>
      <point x="171.932022095" y="1518.5300293"/>
    </contour>
    <contour>
      <point x="553.93800354" y="909.106018066" type="line"/>
      <point x="628.549026489" y="804.690002441" type="line" smooth="yes"/>
      <point x="690.015029907" y="718.66998291"/>
      <point x="892.718032837" y="306.755004883"/>
      <point x="1003.64002991" y="553.0" type="curve" smooth="yes"/>
      <point x="1104.01002502" y="775.830993652"/>
      <point x="730.601028442" y="832.046020508"/>
      <point x="597.578018188" y="890.070007324" type="curve" smooth="yes"/>
    </contour>
    <contour>
      <point x="539.851028442" y="961.198974609" type="line"/>
      <point x="597.807998657" y="986.028991699" type="line" smooth="yes"/>
      <point x="739.958999634" y="1046.93005371"/>
      <point x="1096.53004456" y="1090.31994629"/>
      <point x="1001.64002991" y="1322.0" type="curve" smooth="yes"/>
      <point x="896.093032837" y="1579.7199707"/>
      <point x="672.706008911" y="1132.64001465"/>
      <point x="608.825027466" y="1043.93994141" type="curve"/>
    </contour>
    <contour>
      <point x="131.538009644" y="1494.04003906" type="line"/>
      <point x="42.2725067139" y="1481.97998047" type="line"/>
      <point x="213.777999878" y="1608.4699707" type="line"/>
    </contour>
  </outline>
</glyph>
<glyph name="plus" format="1">
  <advance width="612"/>
  <unicode hex="002B"/>
  <outline>
    <contour>
      <point x="12" y="711" type="line"/>
      <point x="270.515014648" y="711" type="line"/>
      <point x="270.515014648" y="1000" type="line"/>
      <point x="344.888000488" y="1000" type="line"/>
      <point x="344.888000488" y="711" type="line"/>
      <point x="600.0" y="711" type="line"/>
      <point x="600.0" y="568" type="line"/>
      <point x="344.888000488" y="568" type="line"/>
      <point x="344.888000488" y="289" type="line"/>
      <point x="270.515014648" y="289" type="line"/>
      <point x="270.515014648" y="568" type="line"/>
      <point x="12.0" y="568" type="line"/>
    </contour>
  </outline>
</glyph>
<glyph name="hyphen" format="1">
  <advance width="657"/>
  <unicode hex="002D"/>
  <outline>
    <contour>
      <point x="621" y="785" type="line"/>
      <point x="621" y="588" type="line"/>
      <point x="36" y="588" type="line"/>
      <point x="36" y="785" type="line"/>
    </contour>
  </outline>
</glyph>
<glyph name="slash" format="1">
  <advance width="689"/>
  <unicode hex="002F"/>
  <outline>
    <contour>
      <point x="19" y="51" type="line"/>
      <point x="382.218994141" y="1572" type="line"/>
      <point x="634.130004883" y="1572" type="line"/>
      <point x="265.263000488" y="51" type="line"/>
    </contour>
  </outline>
</glyph>
<glyph name="two" format="1">
  <advance width="1113"/>
  <unicode hex="0032"/>
  <outline>
    <contour>
      <point x="67" y="945" type="curve" smooth="yes"/>
      <point x="67" y="819"/>
      <point x="107" y="718"/>
      <point x="169" y="649" type="curve"/>
      <point x="318" y="765" type="line"/>
      <point x="299" y="796"/>
      <point x="278" y="839"/>
      <point x="278" y="887" type="curve" smooth="yes"/>
      <point x="278" y="992"/>
      <point x="342" y="1080"/>
      <point x="437" y="1080" type="curve" smooth="yes"/>
      <point x="538" y="1080"/>
      <point x="593" y="958"/>
      <point x="593" y="857" type="curve" smooth="yes"/>
      <point x="593" y="699"/>
      <point x="530" y="603"/>
      <point x="469" y="529" type="curve" smooth="yes"/>
      <point x="381" y="422"/>
      <point x="270" y="335"/>
      <point x="107" y="268" type="curve"/>
      <point x="107" y="51" type="line"/>
      <point x="1045" y="51" type="line"/>
      <point x="1042" y="414" type="line"/>
      <point x="965" y="414" type="line"/>
      <point x="935" y="285"/>
      <point x="807" y="270"/>
      <point x="721" y="266" type="curve" smooth="yes"/>
      <point x="458" y="266" type="line"/>
      <point x="563" y="358" type="line" smooth="yes"/>
      <point x="705" y="483"/>
      <point x="958" y="674"/>
      <point x="958" y="921" type="curve" smooth="yes"/>
      <point x="958" y="1475"/>
      <point x="67" y="1445"/>
    </contour>
  </outline>
</glyph>
<glyph name="seven" format="1">
  <advance width="1061"/>
  <unicode hex="0037"/>
  <outline>
    <contour>
      <point x="543" y="51" type="line"/>
      <point x="1001" y="1079" type="line"/>
      <point x="1001" y="1286" type="line"/>
      <point x="62" y="1286" type="line"/>
      <point x="62" y="929" type="line"/>
      <point x="181" y="928" type="line"/>
      <point x="193" y="1026"/>
      <point x="261" y="1071"/>
      <point x="350" y="1071" type="curve" smooth="yes"/>
      <point x="613" y="1071" type="line"/>
      <point x="178" y="51" type="line"/>
    </contour>
  </outline>
</glyph>
<glyph name="colon" format="1">
  <advance width="527"/>
  <unicode hex="003A"/>
  <outline>
    <contour>
      <point x="258.0" y="425.0" type="curve" smooth="yes"/>
      <point x="120.544006348" y="425"/>
      <point x="31.0" y="351.924987793"/>
      <point x="31.0" y="231.0" type="curve" smooth="yes"/>
      <point x="31.0" y="111.617996216"/>
      <point x="117.074005127" y="36.1269989014"/>
      <point x="245.378997803" y="31.2089996338" type="curve"/>
      <point x="246.960998535" y="32.0" type="line"/>
      <point x="259.0" y="32.0" type="line" smooth="yes"/>
      <point x="398.259002686" y="32.0"/>
      <point x="494.0" y="108.347991943"/>
      <point x="494.0" y="231.0" type="curve" smooth="yes"/>
      <point x="494.0" y="352.704986572"/>
      <point x="401.118011475" y="425.0"/>
    </contour>
    <contour>
      <point x="260.0" y="1040.0" type="curve" smooth="yes"/>
      <point x="122.544006348" y="1040.0"/>
      <point x="33.0" y="966.924987793"/>
      <point x="33.0" y="846.0" type="curve" smooth="yes"/>
      <point x="33.0" y="726.617980957"/>
      <point x="119.074005127" y="651.12701416"/>
      <point x="247.378997803" y="646.208984375" type="curve"/>
      <point x="248.960998535" y="647.0" type="line"/>
      <point x="261.0" y="647.0" type="line" smooth="yes"/>
      <point x="400.259002686" y="647.0"/>
      <point x="496.0" y="723.348022461"/>
      <point x="496.0" y="846.0" type="curve" smooth="yes"/>
      <point x="496.0" y="967.70501709"/>
      <point x="403.118011475" y="1040.0"/>
    </contour>
  </outline>
</glyph>
<glyph name="semicolon" format="1">
  <advance width="525"/>
  <unicode hex="003B"/>
  <outline>
    <contour>
      <point x="478" y="86" type="line"/>
      <point x="478" y="153.085006714"/>
      <point x="472.562988281" y="226.43800354"/>
      <point x="460.903015137" y="312.0" type="curve"/>
      <point x="46.0" y="312.0" type="line"/>
      <point x="46.0" y="48.0" type="line"/>
      <point x="235.0" y="48.0" type="line"/>
      <point x="235.0" y="-40.0" type="line" smooth="yes"/>
      <point x="235.0" y="-176.220993042"/>
      <point x="172.712997437" y="-258.299987793"/>
      <point x="44.0" y="-271.62298584" type="curve"/>
      <point x="44.0" y="-397.864990234" type="line"/>
      <point x="350.363006592" y="-383.29901123"/>
      <point x="478.0" y="-245.457992554"/>
      <point x="478.0" y="86.0000152588" type="curve"/>
    </contour>
    <contour>
      <point x="260.0" y="1037.00001526" type="curve" smooth="yes"/>
      <point x="122.544006348" y="1037.00001526"/>
      <point x="33.0" y="963.925003052"/>
      <point x="33.0" y="843.000015259" type="curve" smooth="yes"/>
      <point x="33.0" y="723.617996216"/>
      <point x="119.074005127" y="648.127029419"/>
      <point x="247.378997803" y="643.208999634" type="curve"/>
      <point x="248.960998535" y="644.000015259" type="line"/>
      <point x="261.0" y="644.000015259" type="line" smooth="yes"/>
      <point x="400.259002686" y="644.000015259"/>
      <point x="496.0" y="720.34803772"/>
      <point x="496.0" y="843.000015259" type="curve" smooth="yes"/>
      <point x="496.0" y="964.705032349"/>
      <point x="403.118011475" y="1037.00001526"/>
    </contour>
  </outline>
</glyph>
<glyph name="question" format="1">
  <advance width="1055"/>
  <unicode hex="003F"/>
  <outline>
    <contour>
      <point x="526.92199707" y="1686.0" type="curve" smooth="yes"/>
      <point x="286.520996094" y="1686"/>
      <point x="67.1894989014" y="1516.86999512"/>
      <point x="26.0" y="1270.0" type="curve"/>
      <point x="375.095001221" y="1270.0" type="line"/>
      <point x="389.459014893" y="1364.73999023"/>
      <point x="440.819000244" y="1432.0"/>
      <point x="521.09197998" y="1432.0" type="curve" smooth="yes"/>
      <point x="615.807006836" y="1432.0"/>
      <point x="643.534973145" y="1324.19995117"/>
      <point x="643.534973145" y="1250.0" type="curve" smooth="yes"/>
      <point x="643.534973145" y="1097.07995605"/>
      <point x="517.692993164" y="974.812011719"/>
      <point x="313.615997314" y="860.229980469" type="curve"/>
      <point x="312.976989746" y="590.0" type="line"/>
      <point x="516.927001953" y="590.0" type="line"/>
      <point x="516.927001953" y="762.380004883" type="line"/>
      <point x="545.578979492" y="774.223022461" type="line" smooth="yes"/>
      <point x="760.690002441" y="863.12902832"/>
      <point x="1026.09997559" y="973.140991211"/>
      <point x="1026.09997559" y="1273.0" type="curve" smooth="yes"/>
      <point x="1026.09997559" y="1534.95996094"/>
      <point x="776.669006348" y="1686.0"/>
    </contour>
    <contour>
      <point x="419.472991943" y="419.0" type="curve" smooth="yes"/>
      <point x="304.979003906" y="419.0"/>
      <point x="222.098007202" y="345.924987793"/>
      <point x="222.098007202" y="225.0" type="curve" smooth="yes"/>
      <point x="222.098007202" y="105.617996216"/>
      <point x="302.088989258" y="30.1269989014"/>
      <point x="408.959991455" y="25.2089996338" type="curve"/>
      <point x="410.278015137" y="26.0" type="line"/>
      <point x="420.304992676" y="26.0" type="line" smooth="yes"/>
      <point x="536.299987793" y="26.0"/>
      <point x="616.047973633" y="102.347991943"/>
      <point x="616.047973633" y="225.0" type="curve" smooth="yes"/>
      <point x="616.047973633" y="346.704986572"/>
      <point x="538.682006836" y="419.0"/>
    </contour>
  </outline>
</glyph>
<glyph name="H" format="1">
  <advance width="1719"/>
  <unicode hex="0048"/>
  <outline>
    <contour>
      <point x="234" y="1291" type="line"/>
      <point x="80" y="1291" type="line"/>
      <point x="80" y="1542" type="line"/>
      <point x="760" y="1542" type="line"/>
      <point x="760" y="1291" type="line"/>
      <point x="667" y="1291" type="line"/>
      <point x="667" y="925" type="line"/>
      <point x="1058" y="925" type="line"/>
      <point x="1058" y="1291" type="line"/>
      <point x="978" y="1291" type="line"/>
      <point x="978" y="1542" type="line"/>
      <point x="1643" y="1542" type="line"/>
      <point x="1643" y="1291" type="line"/>
      <point x="1492" y="1291" type="line"/>
      <point x="1492" y="359" type="line"/>
      <point x="1643" y="359" type="line"/>
      <point x="1643" y="102" type="line"/>
      <point x="978" y="102" type="line"/>
      <point x="978" y="359" type="line"/>
      <point x="1058" y="359" type="line"/>
      <point x="1058" y="686" type="line"/>
      <point x="667" y="686" type="line"/>
      <point x="667" y="359" type="line"/>
      <point x="761" y="359" type="line"/>
      <point x="761" y="102" type="line"/>
      <point x="80" y="102" type="line"/>
      <point x="80" y="359" type="line"/>
      <point x="234" y="359" type="line"/>
    </contour>
  </outline>
</glyph>
<glyph name="I" format="1">
  <advance width="816"/>
  <unicode hex="0049"/>
  <outline>
    <contour>
      <point x="595" y="359" type="line"/>
      <point x="736" y="359" type="line"/>
      <point x="736" y="102" type="line"/>
      <point x="78" y="102" type="line"/>
      <point x="78" y="359" type="line"/>
      <point x="225" y="359" type="line"/>
      <point x="225" y="1342" type="line"/>
      <point x="82" y="1342" type="line"/>
      <point x="82" y="1593" type="line"/>
      <point x="742" y="1593" type="line"/>
      <point x="742" y="1342" type="line"/>
      <point x="595" y="1342" type="line"/>
    </contour>
  </outline>
</glyph>
<glyph name="M" format="1">
  <advance width="2160"/>
  <unicode hex="004D"/>
  <outline>
    <contour>
      <point x="549" y="359" type="line" smooth="yes"/>
      <point x="532" y="359"/>
      <point x="517" y="359"/>
      <point x="504" y="360" type="curve" smooth="yes"/>
      <point x="459" y="363" type="line"/>
      <point x="459" y="1268" type="line"/>
      <point x="928" y="102" type="line"/>
      <point x="1126" y="102" type="line"/>
      <point x="1528" y="1289" type="line"/>
      <point x="1528" y="359" type="line"/>
      <point x="1413" y="359" type="line"/>
      <point x="1413" y="102" type="line"/>
      <point x="2085" y="102" type="line"/>
      <point x="2085" y="359" type="line"/>
      <point x="1931" y="359" type="line"/>
      <point x="1931" y="1342" type="line"/>
      <point x="2078" y="1342" type="line"/>
      <point x="2078" y="1593" type="line"/>
      <point x="1410" y="1593" type="line"/>
      <point x="1120" y="734" type="line"/>
      <point x="795" y="1593" type="line"/>
      <point x="77" y="1593" type="line"/>
      <point x="77" y="1342" type="line"/>
      <point x="245" y="1342" type="line"/>
      <point x="245" y="363" type="line"/>
      <point x="197" y="360" type="line" smooth="yes"/>
      <point x="185" y="359"/>
      <point x="171" y="359"/>
      <point x="154" y="359" type="curve" smooth="yes"/>
      <point x="81" y="359" type="line"/>
      <point x="81" y="102" type="line"/>
      <point x="611" y="102" type="line"/>
      <point x="611" y="359" type="line"/>
    </contour>
  </outline>
</glyph>
<glyph name="N" format="1">
  <advance width="1639"/>
  <unicode hex="004E"/>
  <outline>
    <contour>
      <point x="947" y="102" type="line"/>
      <point x="1432" y="102" type="line"/>
      <point x="1432" y="1342" type="line"/>
      <point x="1590" y="1342" type="line"/>
      <point x="1590" y="1592" type="line"/>
      <point x="1081" y="1592" type="line"/>
      <point x="1081" y="1342" type="line"/>
      <point x="1225" y="1342" type="line"/>
      <point x="1225" y="491" type="line"/>
      <point x="700" y="1593" type="line"/>
      <point x="84" y="1593" type="line"/>
      <point x="84" y="1344" type="line"/>
      <point x="241" y="1344" type="line"/>
      <point x="241" y="362" type="line"/>
      <point x="193" y="360" type="line" smooth="yes"/>
      <point x="180" y="359"/>
      <point x="164" y="359"/>
      <point x="147" y="359" type="curve" smooth="yes"/>
      <point x="78" y="359" type="line"/>
      <point x="78" y="102" type="line"/>
      <point x="587" y="102" type="line"/>
      <point x="587" y="359" type="line"/>
      <point x="565" y="359"/>
      <point x="543" y="360"/>
      <point x="523" y="360" type="curve" smooth="yes"/>
      <point x="443" y="360" type="line"/>
      <point x="443" y="1131" type="line"/>
    </contour>
  </outline>
</glyph>
<glyph name="T" format="1">
  <advance width="1415"/>
  <unicode hex="0054"/>
  <outline>
    <contour>
      <point x="906" y="1291" type="line"/>
      <point x="906" y="309" type="line"/>
      <point x="1052" y="309" type="line"/>
      <point x="1052" y="51" type="line"/>
      <point x="352" y="51" type="line"/>
      <point x="352" y="309" type="line"/>
      <point x="497" y="309" type="line"/>
      <point x="497" y="1291" type="line"/>
      <point x="288" y="1291" type="line"/>
      <point x="244" y="1016" type="line"/>
      <point x="57" y="1016" type="line"/>
      <point x="57" y="1541" type="line"/>
      <point x="1350" y="1541" type="line"/>
      <point x="1350" y="1016" type="line"/>
      <point x="1164" y="1016" type="line"/>
      <point x="1122" y="1291" type="line"/>
    </contour>
  </outline>
</glyph>
<glyph name="b" format="1">
  <advance width="1206"/>
  <unicode hex="0062"/>
  <outline>
    <contour>
      <point x="696" y="990" type="curve" smooth="yes"/>
      <point x="515" y="990"/>
      <point x="370" y="847"/>
      <point x="352" y="807" type="curve"/>
      <point x="352" y="1456" type="line"/>
      <point x="32" y="1405" type="line"/>
      <point x="32" y="1330" type="line"/>
      <point x="224" y="1330" type="line"/>
      <point x="224" y="0" type="line"/>
      <point x="300" y="0" type="line"/>
      <point x="337" y="138" type="line"/>
      <point x="411" y="44"/>
      <point x="559" y="-11"/>
      <point x="660" y="-15" type="curve" smooth="yes"/>
      <point x="946" y="-27"/>
      <point x="1120" y="186"/>
      <point x="1120" y="487" type="curve" smooth="yes"/>
      <point x="1120" y="793"/>
      <point x="963" y="990"/>
    </contour>
    <contour>
      <point x="682" y="891" type="curve" smooth="yes"/>
      <point x="870" y="891"/>
      <point x="992" y="738"/>
      <point x="992" y="465" type="curve" smooth="yes"/>
      <point x="992" y="269"/>
      <point x="869" y="82"/>
      <point x="661" y="82" type="curve" smooth="yes"/>
      <point x="511" y="82"/>
      <point x="399" y="172"/>
      <point x="352" y="218" type="curve"/>
      <point x="352" y="688" type="line"/>
      <point x="385" y="741"/>
      <point x="490" y="891"/>
    </contour>
  </outline>
</glyph>
<glyph name="c" format="1">
  <advance width="1019"/>
  <unicode hex="0063"/>
  <outline>
    <contour>
      <point x="573.0" y="77.0" type="curve" smooth="yes"/>
      <point x="360.406158447" y="77"/>
      <point x="215.0" y="212.300964355"/>
      <point x="215.0" y="493.0" type="curve" smooth="yes"/>
      <point x="215.0" y="757.0"/>
      <point x="379.0" y="890.0"/>
      <point x="568.0" y="890.0" type="curve" smooth="yes"/>
      <point x="735.0" y="890.0"/>
      <point x="828.0" y="755.0"/>
      <point x="828.0" y="663.0" type="curve"/>
      <point x="933.0" y="663.0" type="line"/>
      <point x="933.0" y="961.0" type="line"/>
      <point x="874.0" y="961.0" type="line"/>
      <point x="850.0" y="816.0" type="line"/>
      <point x="781.0" y="952.0"/>
      <point x="625.0" y="989.0"/>
      <point x="541.0" y="989.0" type="curve" smooth="yes"/>
      <point x="299.0" y="989.0"/>
      <point x="69.0" y="795.0"/>
      <point x="69.0" y="495.0" type="curve" smooth="yes"/>
      <point x="69.0" y="162.0"/>
      <point x="288.0" y="-18.0"/>
      <point x="559.0" y="-18.0" type="curve" smooth="yes"/>
      <point x="755.448181152" y="-18.0"/>
      <point x="876.10925293" y="50.8972015381"/>
      <point x="915.0" y="79.0" type="curve"/>
      <point x="915.0" y="177.0" type="line"/>
      <point x="905.0" y="179.0" type="line"/>
      <point x="837.772583008" y="132.190628052"/>
      <point x="740.551391602" y="77.0"/>
    </contour>
  </outline>
</glyph>
<glyph name="d" format="1">
  <advance width="1206"/>
  <unicode hex="0064"/>
  <outline>
    <contour>
      <point x="518" y="891" type="curve" smooth="yes"/>
      <point x="318" y="891"/>
      <point x="192" y="738"/>
      <point x="192" y="465" type="curve" smooth="yes"/>
      <point x="192" y="242"/>
      <point x="321" y="82"/>
      <point x="529" y="82" type="curve" smooth="yes"/>
      <point x="679" y="82"/>
      <point x="785" y="173"/>
      <point x="832" y="220" type="curve"/>
      <point x="832" y="718" type="line"/>
      <point x="801" y="763"/>
      <point x="699" y="891"/>
    </contour>
    <contour>
      <point x="504" y="990" type="line" smooth="yes"/>
      <point x="675" y="990"/>
      <point x="815" y="870"/>
      <point x="832" y="837" type="curve"/>
      <point x="832" y="955" type="line"/>
      <point x="832" y="997" type="line"/>
      <point x="832" y="1315" type="line"/>
      <point x="672" y="1315" type="line"/>
      <point x="672" y="1398" type="line"/>
      <point x="960" y="1452" type="line"/>
      <point x="960" y="92" type="line"/>
      <point x="1120" y="92" type="line"/>
      <point x="1120" y="0" type="line"/>
      <point x="875" y="0" type="line"/>
      <point x="848" y="140" type="line"/>
      <point x="770" y="45"/>
      <point x="636" y="-11"/>
      <point x="530" y="-15" type="curve" smooth="yes"/>
      <point x="244" y="-27"/>
      <point x="64" y="186"/>
      <point x="64" y="487" type="curve" smooth="yes"/>
      <point x="64" y="793"/>
      <point x="225" y="990"/>
      <point x="504" y="990" type="curve" smooth="yes"/>
    </contour>
  </outline>
</glyph>
<glyph name="h" format="1">
  <advance width="1275"/>
  <unicode hex="0068"/>
  <outline>
    <contour>
      <point x="233" y="92" type="line"/>
      <point x="233" y="1315.59960938" type="line"/>
      <point x="73" y="1315.59960938" type="line"/>
      <point x="73" y="1397.59960938" type="line"/>
      <point x="361" y="1451.59960938" type="line"/>
      <point x="361" y="772.0" type="line"/>
      <point x="419" y="908.0"/>
      <point x="592" y="989.0"/>
      <point x="728" y="989.0" type="curve" smooth="yes"/>
      <point x="912" y="989.0"/>
      <point x="1033" y="901.0"/>
      <point x="1033" y="659.0" type="curve" smooth="yes"/>
      <point x="1033" y="92.0" type="line"/>
      <point x="1225" y="92.0" type="line"/>
      <point x="1225" y="0.0" type="line"/>
      <point x="905" y="0.0" type="line"/>
      <point x="905" y="648.0" type="line" smooth="yes"/>
      <point x="905" y="811.0"/>
      <point x="844" y="893.0"/>
      <point x="696" y="893.0" type="curve" smooth="yes"/>
      <point x="524" y="893.0"/>
      <point x="361" y="730.0"/>
      <point x="361" y="645.0" type="curve" smooth="yes"/>
      <point x="361" y="92.0" type="line"/>
      <point x="521" y="92.0" type="line"/>
      <point x="521" y="0.0" type="line"/>
      <point x="73" y="0.0" type="line"/>
      <point x="73" y="92.0" type="line"/>
    </contour>
  </outline>
</glyph>
<glyph name="j" format="1">
  <advance width="674"/>
  <unicode hex="006A"/>
  <outline>
    <contour>
      <point x="60" y="-397" type="line"/>
      <point x="413" y="-387"/>
      <point x="582" y="-276"/>
      <point x="582" y="78" type="curve" smooth="yes"/>
      <point x="582" y="964" type="line"/>
      <point x="67" y="911" type="line"/>
      <point x="67" y="761" type="line"/>
      <point x="197" y="761" type="line"/>
      <point x="197" y="-60" type="line" smooth="yes"/>
      <point x="197" y="-145"/>
      <point x="112" y="-169"/>
      <point x="60" y="-173" type="curve"/>
    </contour>
    <contour>
      <point x="123" y="1436" type="curve" smooth="yes"/>
      <point x="123" y="1310"/>
      <point x="211" y="1237"/>
      <point x="349" y="1237" type="curve" smooth="yes"/>
      <point x="492" y="1237"/>
      <point x="585" y="1309"/>
      <point x="585" y="1436" type="curve" smooth="yes"/>
      <point x="585" y="1563"/>
      <point x="495" y="1630"/>
      <point x="349" y="1630" type="curve" smooth="yes"/>
      <point x="208" y="1630"/>
      <point x="123" y="1562"/>
    </contour>
  </outline>
</glyph>
<glyph name="o" format="1">
  <advance width="1096"/>
  <unicode hex="006F"/>
  <outline>
    <contour>
      <point x="549" y="78" type="curve" smooth="yes"/>
      <point x="802" y="78"/>
      <point x="901" y="279"/>
      <point x="901" y="482" type="curve" smooth="yes"/>
      <point x="901" y="687"/>
      <point x="799" y="893"/>
      <point x="549" y="893" type="curve" smooth="yes"/>
      <point x="309" y="893"/>
      <point x="197" y="687"/>
      <point x="197" y="482" type="curve" smooth="yes"/>
      <point x="197" y="279"/>
      <point x="306" y="78"/>
    </contour>
    <contour>
      <point x="549" y="989" type="curve" smooth="yes"/>
      <point x="863" y="989"/>
      <point x="1029" y="756"/>
      <point x="1029" y="484" type="curve" smooth="yes"/>
      <point x="1029" y="213"/>
      <point x="864" y="-18"/>
      <point x="549" y="-18" type="curve" smooth="yes"/>
      <point x="233" y="-18"/>
      <point x="70" y="212"/>
      <point x="69" y="482" type="curve" smooth="yes"/>
      <point x="69" y="755"/>
      <point x="236" y="989"/>
    </contour>
  </outline>
</glyph>
<glyph name="p" format="1">
  <advance width="1203"/>
  <unicode hex="0070"/>
  <outline>
    <contour>
      <point x="694" y="987" type="curve" smooth="yes"/>
      <point x="494" y="987"/>
      <point x="388" y="894"/>
      <point x="335" y="789" type="curve"/>
      <point x="335" y="982" type="line"/>
      <point x="59" y="947" type="line"/>
      <point x="59" y="876" type="line"/>
      <point x="207" y="876" type="line"/>
      <point x="207" y="-273" type="line"/>
      <point x="47" y="-273" type="line"/>
      <point x="47" y="-368" type="line"/>
      <point x="463" y="-368" type="line"/>
      <point x="463" y="-275" type="line"/>
      <point x="335" y="-275" type="line"/>
      <point x="335" y="197" type="line"/>
      <point x="361" y="119"/>
      <point x="467" y="-20"/>
      <point x="676" y="-20" type="curve" smooth="yes"/>
      <point x="885" y="-20"/>
      <point x="1135" y="104"/>
      <point x="1135" y="488" type="curve" smooth="yes"/>
      <point x="1135" y="798"/>
      <point x="970" y="987"/>
    </contour>
    <contour>
      <point x="1007" y="470" type="curve" smooth="yes"/>
      <point x="1007" y="298"/>
      <point x="933" y="76"/>
      <point x="677" y="76" type="curve" smooth="yes"/>
      <point x="426" y="76"/>
      <point x="335" y="283"/>
      <point x="335" y="388" type="curve" smooth="yes"/>
      <point x="335" y="689" type="line"/>
      <point x="451" y="870"/>
      <point x="592" y="891"/>
      <point x="673" y="891" type="curve" smooth="yes"/>
      <point x="884" y="891"/>
      <point x="1007" y="730"/>
    </contour>
  </outline>
</glyph>
<glyph name="u" format="1">
  <advance width="1275"/>
  <unicode hex="0075"/>
  <outline>
    <contour>
      <point x="1065" y="971" type="line"/>
      <point x="1065" y="92" type="line"/>
      <point x="1225" y="92" type="line"/>
      <point x="1225" y="0" type="line"/>
      <point x="969" y="0" type="line"/>
      <point x="944" y="199" type="line"/>
      <point x="884.893737793" y="63"/>
      <point x="708.593994141" y="-18"/>
      <point x="570.0" y="-18" type="curve" smooth="yes"/>
      <point x="386.0" y="-18"/>
      <point x="265.0" y="70"/>
      <point x="265.0" y="312" type="curve" smooth="yes"/>
      <point x="265.0" y="879" type="line"/>
      <point x="73.0" y="879" type="line"/>
      <point x="73.0" y="971" type="line"/>
      <point x="393.0" y="971" type="line"/>
      <point x="393.0" y="323" type="line" smooth="yes"/>
      <point x="393.0" y="160"/>
      <point x="454.0" y="78"/>
      <point x="602.0" y="78" type="curve" smooth="yes"/>
      <point x="774.0" y="78"/>
      <point x="937.0" y="241"/>
      <point x="937.0" y="326" type="curve" smooth="yes"/>
      <point x="937.0" y="879" type="line"/>
      <point x="777.0" y="879" type="line"/>
      <point x="777.0" y="971" type="line"/>
    </contour>
  </outline>
</glyph>
<glyph name="z" format="1">
  <advance width="1038"/>
  <unicode hex="007A"/>
  <outline>
    <contour>
      <point x="578" y="830" type="line"/>
      <point x="79" y="262" type="line"/>
      <point x="79" y="51" type="line"/>
      <point x="960" y="51" type="line"/>
      <point x="960" y="400" type="line"/>
      <point x="869" y="400" type="line"/>
      <point x="834" y="243" type="line"/>
      <point x="456" y="243" type="line"/>
      <point x="924" y="815" type="line"/>
      <point x="924" y="1021" type="line"/>
      <point x="106" y="1021" type="line"/>
      <point x="106" y="687" type="line"/>
      <point x="219" y="687" type="line"/>
      <point x="283" y="830" type="line"/>
    </contour>
  </outline>
</glyph>
<glyph name="braceleft" format="1">
  <advance width="654"/>
  <unicode hex="007B"/>
  <outline>
    <contour>
      <point x="134.621994019" y="768.229003906" type="line"/>
      <point x="238.656982422" y="750.762023926"/>
      <point x="286.766983032" y="676.030029297"/>
      <point x="286.766983032" y="559.0" type="curve" smooth="yes"/>
      <point x="286.766983032" y="227.510009766"/>
      <point x="432.235977173" y="51.2422180176"/>
      <point x="740.621994019" y="34.2598114014" type="curve"/>
      <point x="740.621994019" y="267.496017456" type="line"/>
      <point x="623.393966675" y="294.722000122"/>
      <point x="578.621994019" y="410.750015259"/>
      <point x="578.621994019" y="559.000015259" type="curve" smooth="yes"/>
      <point x="578.621994019" y="657.573013306"/>
      <point x="518.715011597" y="735.333023071"/>
      <point x="401.195999146" y="793.115005493" type="curve" smooth="yes"/>
      <point x="310.228988647" y="840.741043091" type="line"/>
      <point x="401.078994751" y="888.823013306" type="line" smooth="yes"/>
      <point x="518.478988647" y="947.208023071"/>
      <point x="578.621994019" y="1025.56996155"/>
      <point x="578.621994019" y="1125.00001526" type="curve" smooth="yes"/>
      <point x="578.621994019" y="1272.43006897"/>
      <point x="622.181015015" y="1389.00001526"/>
      <point x="740.621994019" y="1416.50001526" type="curve"/>
      <point x="740.621994019" y="1649.72999573" type="line"/>
      <point x="433.68598938" y="1632.82997131"/>
      <point x="286.066970825" y="1456.93006897"/>
      <point x="286.066970825" y="1125.00001526" type="curve" smooth="yes"/>
      <point x="286.066970825" y="1009.21998596"/>
      <point x="239.151977539" y="933.867996216"/>
      <point x="134.62197876" y="915.93800354" type="curve"/>
    </contour>
    <contour>
      <point x="134.62197876" y="1020.87001038" type="line"/>
      <point x="31.8417816162" y="909.154006958" type="line"/>
      <point x="10.9999847412" y="908.409011841" type="line"/>
      <point x="134.62197876" y="1279.28004456" type="line"/>
    </contour>
  </outline>
</glyph>
<glyph name="bar" format="1">
  <advance width="365"/>
  <unicode hex="007C"/>
  <outline>
    <contour>
      <point x="329" y="1572" type="line"/>
      <point x="329" y="51" type="line"/>
      <point x="36" y="51" type="line"/>
      <point x="36" y="1572" type="line"/>
    </contour>
  </outline>
</glyph>
<glyph name="braceright" format="1">
  <advance width="654"/>
  <unicode hex="007D"/>
  <outline>
    <contour>
      <point x="642" y="918.770996094" type="line"/>
      <point x="537.965026855" y="936.237976074"/>
      <point x="492.993988037" y="1010.9699707"/>
      <point x="492.993988037" y="1128.0" type="curve" smooth="yes"/>
      <point x="492.993988037" y="1458.59997559"/>
      <point x="345.016998291" y="1634.73999023"/>
      <point x="36.0" y="1651.73999023" type="curve"/>
      <point x="36.0" y="1418.5" type="line"/>
      <point x="153.229003906" y="1391.2800293"/>
      <point x="198.0" y="1275.25"/>
      <point x="198.0" y="1127.0" type="curve" smooth="yes"/>
      <point x="198.0" y="1027.56994629"/>
      <point x="258.143005371" y="949.208007812"/>
      <point x="376.958007812" y="890.822998047" type="curve" smooth="yes"/>
      <point x="469.178009033" y="842.741027832" type="line"/>
      <point x="376.838989258" y="795.114990234" type="line" smooth="yes"/>
      <point x="257.906005859" y="737.333007812"/>
      <point x="198.0" y="659.573974609"/>
      <point x="198.0" y="561.0" type="curve" smooth="yes"/>
      <point x="198.0" y="413.567993164"/>
      <point x="154.440994263" y="297.003997803"/>
      <point x="36.0" y="269.496002197" type="curve"/>
      <point x="36.0" y="36.2655944824" type="line"/>
      <point x="343.859008789" y="53.1708984375"/>
      <point x="493.704986572" y="229.072998047"/>
      <point x="493.704986572" y="561.0" type="curve" smooth="yes"/>
      <point x="493.704986572" y="676.776977539"/>
      <point x="537.469970703" y="752.132019043"/>
      <point x="642.0" y="770.062011719" type="curve"/>
    </contour>
    <contour>
      <point x="642.0" y="665.25201416" type="line"/>
      <point x="744.093017578" y="776.820983887" type="line"/>
      <point x="778.036987305" y="778.033996582" type="line"/>
      <point x="642.0" y="505.960998535" type="line"/>
    </contour>
  </outline>
</glyph>
<glyph name="exclamdown" format="1">
  <advance width="587"/>
  <unicode hex="00A1"/>
  <outline>
    <contour>
      <point x="129.865005493" y="1022.7800293" type="line"/>
      <point x="53.0" y="296.309997559" type="line"/>
      <point x="53.0" y="51.0" type="line"/>
      <point x="538.0" y="51.0" type="line"/>
      <point x="538.0" y="296.236999512" type="line"/>
      <point x="459.217987061" y="1021.2199707" type="line"/>
    </contour>
    <contour>
      <point x="293.0" y="1602.0" type="curve" smooth="yes"/>
      <point x="155.544006348" y="1602.0"/>
      <point x="66.0" y="1528.92004395"/>
      <point x="66.0" y="1408.0" type="curve" smooth="yes"/>
      <point x="66.0" y="1288.61999512"/>
      <point x="152.074005127" y="1213.13000488"/>
      <point x="280.378997803" y="1208.20996094" type="curve"/>
      <point x="281.960998535" y="1209.0" type="line"/>
      <point x="294.0" y="1209.0" type="line" smooth="yes"/>
      <point x="433.259002686" y="1209.0"/>
      <point x="529.0" y="1285.34997559"/>
      <point x="529.0" y="1408.0" type="curve" smooth="yes"/>
      <point x="529.0" y="1529.70996094"/>
      <point x="436.118011475" y="1602.0"/>
    </contour>
  </outline>
</glyph>
<glyph name="cent" format="1">
  <advance width="897"/>
  <unicode hex="00A2"/>
  <outline>
    <contour>
      <point x="480.246002197" y="33" type="line"/>
      <point x="527.945983887" y="33" type="line"/>
      <point x="527.945983887" y="-210" type="line"/>
      <point x="535.398986816" y="-210" type="line"/>
      <point x="535.398986816" y="35.3778991699" type="line"/>
      <point x="568.156982422" y="41.5106964111" type="line" smooth="yes"/>
      <point x="686.606018066" y="59.0438842773"/>
      <point x="776.065002441" y="95.3534851074"/>
      <point x="835.0" y="146.178985596" type="curve"/>
      <point x="835.0" y="373.999984741" type="line"/>
      <point x="688.693969727" y="373.999984741" type="line"/>
      <point x="672.521972656" y="324.446975708"/>
      <point x="638.075012207" y="276.097976685"/>
      <point x="587.29498291" y="257.144973755" type="curve"/>
      <point x="536.143981934" y="231.858978271" type="line"/>
      <point x="536.143981934" y="847.404998779" type="line"/>
      <point x="591.25" y="811.890960693" type="line" smooth="yes"/>
      <point x="638.763977051" y="781.267974854"/>
      <point x="676.598022461" y="738.395965576"/>
      <point x="689.721984863" y="677.999969482" type="curve"/>
      <point x="835.0" y="677.999969482" type="line"/>
      <point x="835.0" y="1019.99996948" type="line"/>
      <point x="741.62298584" y="1019.99996948" type="line"/>
      <point x="686.413024902" y="916.311981201" type="line"/>
      <point x="638.525024414" y="953.8699646" type="line" smooth="yes"/>
      <point x="607.054992676" y="978.551971436"/>
      <point x="580.361022949" y="996.99899292"/>
      <point x="559.809020996" y="1009.63998413" type="curve" smooth="yes"/>
      <point x="537.874023438" y="1023.12997437" type="line"/>
      <point x="535.770019531" y="1310.99996948" type="line"/>
      <point x="527.945983887" y="1310.99996948" type="line"/>
      <point x="527.945983887" y="1030.92001343" type="line"/>
      <point x="485.019012451" y="1038.43002319" type="line" smooth="yes"/>
      <point x="475.131988525" y="1040.16000366"/>
      <point x="465.598999023" y="1040.99996948"/>
      <point x="456.397003174" y="1040.99996948" type="curve" smooth="yes"/>
      <point x="227.473007202" y="1040.99996948"/>
      <point x="45.0" y="836.209991455"/>
      <point x="45.0" y="544.999969482" type="curve" smooth="yes"/>
      <point x="45.0" y="223.409973145"/>
      <point x="229.466003418" y="32.9999694824"/>
      <point x="480.246002197" y="32.9999694824" type="curve"/>
    </contour>
    <contour>
      <point x="471.652008057" y="800.930999756" type="line"/>
      <point x="530.182006836" y="851.292999268" type="line"/>
      <point x="530.182006836" y="227.816986084" type="line"/>
      <point x="476.057006836" y="261.8099823" type="line" smooth="yes"/>
      <point x="408.143005371" y="304.462997437"/>
      <point x="385.592987061" y="413.792984009"/>
      <point x="385.592987061" y="511.999984741" type="curve" smooth="yes"/>
      <point x="385.592987061" y="642.588973999"/>
      <point x="409.040008545" y="747.056015015"/>
      <point x="471.652008057" y="800.931015015" type="curve"/>
    </contour>
  </outline>
</glyph>
<glyph name="currency" format="1">
  <advance width="1030"/>
  <unicode hex="00A4"/>
  <outline>
    <contour>
      <point x="40" y="1097" type="line" smooth="yes"/>
      <point x="40" y="961.986022949"/>
      <point x="77.1416015625" y="854.054992676"/>
      <point x="150.136001587" y="766.702026367" type="curve" smooth="yes"/>
      <point x="180.039993286" y="730.914978027" type="line"/>
      <point x="109.125" y="660.0" type="line"/>
      <point x="140.0" y="629.125" type="line"/>
      <point x="214.313995361" y="703.439025879" type="line"/>
      <point x="249.024993896" y="680.609008789" type="line"/>
      <point x="329.778015137" y="620.971984863"/>
      <point x="414.114990234" y="591.0"/>
      <point x="512.0" y="591.0" type="curve" smooth="yes"/>
      <point x="612.421020508" y="591.0"/>
      <point x="698.385986328" y="622.473022461"/>
      <point x="781.260986328" y="685.132019043" type="curve" smooth="yes"/>
      <point x="816.177001953" y="708.947998047" type="line"/>
      <point x="896.0" y="629.125" type="line"/>
      <point x="926.875" y="660.0" type="line"/>
      <point x="849.187988281" y="737.687011719" type="line"/>
      <point x="878.640014648" y="773.431030273" type="line" smooth="yes"/>
      <point x="948.280029297" y="857.952026367"/>
      <point x="984.0" y="963.66998291"/>
      <point x="984.0" y="1097.0" type="curve" smooth="yes"/>
      <point x="984.0" y="1224.47998047"/>
      <point x="950.452026367" y="1328.27001953"/>
      <point x="884.57598877" y="1413.90002441" type="curve" smooth="yes"/>
      <point x="857.273010254" y="1449.40002441" type="line"/>
      <point x="926.875" y="1519.0" type="line"/>
      <point x="896.0" y="1549.88000488" type="line"/>
      <point x="824.513000488" y="1478.39001465" type="line"/>
      <point x="789.356018066" y="1503.5" type="line" smooth="yes"/>
      <point x="703.460021973" y="1570.44995117"/>
      <point x="615.398010254" y="1604.0"/>
      <point x="512.0" y="1604.0" type="curve" smooth="yes"/>
      <point x="411.152008057" y="1604.0"/>
      <point x="324.407989502" y="1571.94995117"/>
      <point x="239.858001709" y="1507.94995117" type="curve" smooth="yes"/>
      <point x="204.660003662" y="1483.79003906" type="line"/>
      <point x="139.746994019" y="1549.61999512" type="line"/>
      <point x="108.858001709" y="1518.72998047" type="line"/>
      <point x="172.320007324" y="1454.32995605" type="line"/>
      <point x="143.632995605" y="1418.90002441" type="line" smooth="yes"/>
      <point x="75.0811004639" y="1334.26000977"/>
      <point x="40.0" y="1229.34997559"/>
      <point x="40.0" y="1098.0" type="curve" smooth="yes"/>
    </contour>
    <contour>
      <point x="130.0" y="1046.56005859" type="curve" smooth="yes"/>
      <point x="130.0" y="1304.51000977"/>
      <point x="299.00100708" y="1493.56005859"/>
      <point x="510.368011475" y="1493.56005859" type="curve" smooth="yes"/>
      <point x="646.572021484" y="1493.56005859"/>
      <point x="754.573974609" y="1411.13000488"/>
      <point x="824.978027344" y="1292.17004395" type="curve"/>
      <point x="830.724975586" y="1296.0" type="line"/>
      <point x="854.875976562" y="1239.65002441" type="line" smooth="yes"/>
      <point x="879.861999512" y="1181.34997559"/>
      <point x="892.0" y="1117.18005371"/>
      <point x="892.0" y="1048.56005859" type="curve" smooth="yes"/>
      <point x="892.0" y="789.872009277"/>
      <point x="722.359008789" y="599.556030273"/>
      <point x="511.183990479" y="599.556030273" type="curve" smooth="yes"/>
      <point x="300.114013672" y="599.556030273"/>
      <point x="130.0" y="787.807983398"/>
    </contour>
  </outline>
</glyph>
<glyph name="yen" format="1">
  <advance width="1458"/>
  <unicode hex="00A5"/>
  <outline>
    <contour>
      <point x="905.015991211" y="964.823974609" type="line"/>
      <point x="867.598999023" y="901.853027344" type="line"/>
      <point x="829.229003906" y="964.106994629" type="line" smooth="yes"/>
      <point x="779.085021973" y="1045.45996094"/>
      <point x="713.153991699" y="1170.7199707"/>
      <point x="665.08001709" y="1243.83996582" type="curve" smooth="yes"/>
      <point x="611.723022461" y="1325.0" type="line"/>
      <point x="737.809997559" y="1325.0" type="line"/>
      <point x="737.809997559" y="1571.0" type="line"/>
      <point x="40.0" y="1571.0" type="line"/>
      <point x="40.0" y="1325.0" type="line"/>
      <point x="127.592010498" y="1325.0" type="line"/>
      <point x="419.382995605" y="885.0" type="line"/>
      <point x="150.138000488" y="885.0" type="line"/>
      <point x="148.876998901" y="811.0" type="line"/>
      <point x="462.1849823" y="811.0" type="line"/>
      <point x="540.580001831" y="686.07598877" type="line"/>
      <point x="540.580001831" y="577.0" type="line"/>
      <point x="147.999984741" y="577.0" type="line"/>
      <point x="147.999984741" y="505.0" type="line"/>
      <point x="540.580001831" y="505.0" type="line"/>
      <point x="540.580001831" y="318.0" type="line"/>
      <point x="401.622970581" y="318.0" type="line"/>
      <point x="401.622970581" y="49.0" type="line"/>
      <point x="1089.23997498" y="49.0" type="line"/>
      <point x="1089.23997498" y="318.0" type="line"/>
      <point x="948.486984253" y="318.0" type="line"/>
      <point x="948.486984253" y="505.0" type="line"/>
      <point x="1336.99998474" y="505.0" type="line"/>
      <point x="1336.99998474" y="577.0" type="line"/>
      <point x="948.486984253" y="577.0" type="line"/>
      <point x="948.486984253" y="811.0" type="line"/>
      <point x="1336.99998474" y="811.0" type="line"/>
      <point x="1336.99998474" y="883.0" type="line"/>
      <point x="1003.3400116" y="883.0" type="line"/>
      <point x="1138.49998474" y="1120.34997559" type="line" smooth="yes"/>
      <point x="1179.75999451" y="1192.80004883"/>
      <point x="1225.30003357" y="1323.0"/>
      <point x="1391.99998474" y="1323.0" type="curve" smooth="yes"/>
      <point x="1414.99998474" y="1323.0" type="line"/>
      <point x="1414.99998474" y="1571.0" type="line"/>
      <point x="909.93699646" y="1571.0" type="line"/>
      <point x="909.93699646" y="1323.10998535" type="line"/>
      <point x="951.48197937" y="1322.26000977"/>
      <point x="1014.83000183" y="1301.43005371"/>
      <point x="1014.83000183" y="1221.0" type="curve" smooth="yes"/>
      <point x="1014.83000183" y="1157.35998535"/>
      <point x="973.721969604" y="1080.45996094"/>
      <point x="905.015975952" y="964.823974609" type="curve"/>
    </contour>
  </outline>
</glyph>
<glyph name="registered" format="1">
  <advance width="1566"/>
  <unicode hex="00AE"/>
  <outline>
    <contour>
      <point x="1081.93005371" y="618.0" type="curve" smooth="yes"/>
      <point x="1081.93005371" y="670" type="line" smooth="yes"/>
      <point x="1081.93005371" y="717.83001709"/>
      <point x="1053.29003906" y="740.106018066"/>
      <point x="978.164001465" y="759.315979004" type="curve" smooth="yes"/>
      <point x="752.922973633" y="816.914001465" type="line"/>
      <point x="774.90802002" y="821.0" type="line"/>
      <point x="688.66998291" y="821.0" type="line"/>
      <point x="688.66998291" y="1119.0" type="line"/>
      <point x="796.49798584" y="1119.0" type="line" smooth="yes"/>
      <point x="872.91998291" y="1119.0"/>
      <point x="938.758972168" y="1061.84997559"/>
      <point x="938.758972168" y="970.0" type="curve" smooth="yes"/>
      <point x="938.758972168" y="898.762023926"/>
      <point x="899.859985352" y="853.596008301"/>
      <point x="843.552001953" y="833.758972168" type="curve"/>
      <point x="980.921020508" y="859.291992188" type="line" smooth="yes"/>
      <point x="1070.15002441" y="875.875976562"/>
      <point x="1123.60998535" y="922.299987793"/>
      <point x="1123.60998535" y="1011.0" type="curve" smooth="yes"/>
      <point x="1123.60998535" y="1159.72998047"/>
      <point x="1055.51000977" y="1211.0"/>
      <point x="901.607971191" y="1211.0" type="curve" smooth="yes"/>
      <point x="436.769012451" y="1211.0" type="line"/>
      <point x="436.769012451" y="1109.0" type="line"/>
      <point x="514.695007324" y="1109.0" type="line"/>
      <point x="514.695007324" y="511.0" type="line"/>
      <point x="437.674987793" y="511.0" type="line"/>
      <point x="437.674987793" y="410.313995361" type="line"/>
      <point x="509.17401123" y="410.764007568"/>
      <point x="574.807983398" y="411.0"/>
      <point x="630.677978516" y="411.0" type="curve" smooth="yes"/>
      <point x="752.098022461" y="411.0" type="line"/>
      <point x="752.098022461" y="515.0" type="line"/>
      <point x="691.388000488" y="515.0" type="line"/>
      <point x="691.388000488" y="798.0" type="line"/>
      <point x="786.531005859" y="798.0" type="line" smooth="yes"/>
      <point x="898.122009277" y="798.0"/>
      <point x="927.885009766" y="704.29498291"/>
      <point x="927.885009766" y="611.0" type="curve" smooth="yes"/>
      <point x="927.885009766" y="502.0" type="line" smooth="yes"/>
      <point x="927.885009766" y="430.490997314"/>
      <point x="956.429992676" y="411.0"/>
      <point x="1046.58996582" y="411.0" type="curve" smooth="yes"/>
      <point x="1165.29003906" y="411.0" type="line"/>
      <point x="1165.29003906" y="510.468994141" type="line"/>
      <point x="1115.39001465" y="518.09197998"/>
      <point x="1081.93005371" y="561.325012207"/>
    </contour>
    <contour>
      <point x="273.32598877" y="256.783996582" type="curve" smooth="yes"/>
      <point x="392.074005127" y="137.833999634"/>
      <point x="569.689025879" y="33.0"/>
      <point x="782.0" y="33.0" type="curve" smooth="yes"/>
      <point x="997.026977539" y="33.0"/>
      <point x="1171.18005371" y="136.061004639"/>
      <point x="1290.67004395" y="255.783996582" type="curve" smooth="yes"/>
      <point x="1412.25" y="377.587005615"/>
      <point x="1520.0" y="562.971984863"/>
      <point x="1520.0" y="791.0" type="curve" smooth="yes"/>
      <point x="1520.0" y="1019.26000977"/>
      <point x="1412.42004395" y="1204.25"/>
      <point x="1290.67004395" y="1326.2199707" type="curve" smooth="yes"/>
      <point x="1171.31005859" y="1445.80004883"/>
      <point x="996.835998535" y="1549.0"/>
      <point x="782.0" y="1549.0" type="curve" smooth="yes"/>
      <point x="685.224975586" y="1549.0"/>
      <point x="592.742980957" y="1528.70996094"/>
      <point x="503.37600708" y="1487.88000488" type="curve" smooth="yes"/>
      <point x="265.527008057" y="1379.82995605"/>
      <point x="44.0" y="1146.51000977"/>
      <point x="44.0" y="792.0" type="curve" smooth="yes"/>
      <point x="44.0" y="563.739013672"/>
      <point x="151.576004028" y="378.740997314"/>
    </contour>
    <contour>
      <point x="781.093994141" y="79.0" type="curve" smooth="yes"/>
      <point x="585.79901123" y="79.0"/>
      <point x="427.915008545" y="175.56199646"/>
      <point x="321.907989502" y="286.638000488" type="curve" smooth="yes"/>
      <point x="212.787994385" y="400.976013184"/>
      <point x="114.0" y="575.646972656"/>
      <point x="114.0" y="788.0" type="curve" smooth="yes"/>
      <point x="114.0" y="999.856018066"/>
      <point x="212.695999146" y="1175.90002441"/>
      <point x="321.006011963" y="1289.36999512" type="curve" smooth="yes"/>
      <point x="426.677001953" y="1400.06994629"/>
      <point x="584.583007812" y="1497.0"/>
      <point x="780.187988281" y="1497.0" type="curve" smooth="yes"/>
      <point x="781.093994141" y="1497.0" type="line" smooth="yes"/>
      <point x="1143.93005371" y="1497.0"/>
      <point x="1447.0" y="1190.08996582"/>
      <point x="1447.0" y="788.0" type="curve" smooth="yes"/>
      <point x="1447.0" y="386.533996582"/>
      <point x="1145.5300293" y="79.0"/>
    </contour>
    <contour>
      <point x="843.552001953" y="833.758972168" type="line"/>
      <point x="825.932983398" y="827.552001953"/>
      <point x="806.609985352" y="823.825012207"/>
      <point x="786.241027832" y="822.556030273" type="curve"/>
      <point x="784.831970215" y="821.0" type="line"/>
      <point x="774.90802002" y="821.0" type="line"/>
    </contour>
  </outline>
</glyph>
<glyph name="onesuperior" format="1">
  <advance width="483"/>
  <unicode hex="00B9"/>
  <outline>
    <contour>
      <point x="162" y="425" type="line"/>
      <point x="162" y="895" type="line"/>
      <point x="66" y="894" type="line"/>
      <point x="66" y="953" type="line"/>
      <point x="351" y="1026" type="line"/>
      <point x="355" y="425" type="line"/>
      <point x="411" y="425" type="line"/>
      <point x="411" y="337" type="line"/>
      <point x="110" y="337" type="line"/>
      <point x="109" y="425" type="line"/>
    </contour>
  </outline>
</glyph>
<glyph name="ordmasculine" format="1">
  <advance width="812"/>
  <unicode hex="00BA"/>
  <outline>
    <contour>
      <point x="505" y="685" type="curve" smooth="yes"/>
      <point x="505" y="561"/>
      <point x="480" y="449"/>
      <point x="404" y="449" type="curve" smooth="yes"/>
      <point x="329" y="449"/>
      <point x="302" y="561"/>
      <point x="302" y="685" type="curve" smooth="yes"/>
      <point x="302" y="722" type="line"/>
      <point x="306" y="723" type="line"/>
      <point x="309" y="798"/>
      <point x="326" y="910"/>
      <point x="406" y="910" type="curve" smooth="yes"/>
      <point x="500" y="910"/>
      <point x="505" y="766"/>
    </contour>
    <contour>
      <point x="407" y="1040" type="curve" smooth="yes"/>
      <point x="210" y="1040"/>
      <point x="62" y="920"/>
      <point x="62" y="688" type="curve" smooth="yes"/>
      <point x="62" y="657" type="line"/>
      <point x="76" y="445"/>
      <point x="225" y="322"/>
      <point x="406" y="322" type="curve" smooth="yes"/>
      <point x="597" y="322"/>
      <point x="751" y="456"/>
      <point x="751" y="688" type="curve" smooth="yes"/>
      <point x="751" y="921"/>
      <point x="605" y="1040"/>
    </contour>
  </outline>
</glyph>
<glyph name="questiondown" format="1">
  <advance width="1084"/>
  <unicode hex="00BF"/>
  <outline>
    <contour>
      <point x="543.158996582" y="35" type="line"/>
      <point x="784.062988281" y="35"/>
      <point x="1001.90002441" y="203.376998901"/>
      <point x="1043.90002441" y="451.0" type="curve"/>
      <point x="694.776977539" y="451.0" type="line"/>
      <point x="679.989990234" y="356.153991699"/>
      <point x="628.945007324" y="289.0"/>
      <point x="548.989013672" y="289.0" type="curve" smooth="yes"/>
      <point x="454.279998779" y="289.0"/>
      <point x="426.553985596" y="396.79901123"/>
      <point x="426.553985596" y="471.0" type="curve" smooth="yes"/>
      <point x="426.553985596" y="623.375976562"/>
      <point x="552.312011719" y="745.479003906"/>
      <point x="756.455993652" y="860.698974609" type="curve"/>
      <point x="757.091003418" y="1129.29003906" type="line"/>
      <point x="553.153015137" y="1130.70996094" type="line"/>
      <point x="553.153015137" y="958.427978516" type="line"/>
      <point x="524.302978516" y="946.695007324" type="line" smooth="yes"/>
      <point x="309.286010742" y="859.255004883"/>
      <point x="44.0" y="746.778015137"/>
      <point x="44.0" y="448.0" type="curve" smooth="yes"/>
      <point x="44.0" y="185.713012695"/>
      <point x="293.402008057" y="35.0000152588"/>
      <point x="543.158996582" y="35.0000152588" type="curve"/>
    </contour>
    <contour>
      <point x="846.0" y="1497.00001526" type="curve" smooth="yes"/>
      <point x="846.0" y="1620.05006409"/>
      <point x="762.492004395" y="1696.00001526"/>
      <point x="649.768981934" y="1696.00001526" type="curve" smooth="yes"/>
      <point x="628.375" y="1696.00001526" type="line"/>
      <point x="525.400024414" y="1686.16004944"/>
      <point x="453.205993652" y="1611.2099762"/>
      <point x="453.205993652" y="1497.00001526" type="curve" smooth="yes"/>
      <point x="453.205993652" y="1375.18006897"/>
      <point x="529.978027344" y="1303.00001526"/>
      <point x="649.768981934" y="1303.00001526" type="curve" smooth="yes"/>
      <point x="763.398986816" y="1303.00001526"/>
      <point x="846.0" y="1376.43006897"/>
    </contour>
  </outline>
</glyph>
<glyph name="Acircumflex" format="1">
  <advance width="1588"/>
  <unicode hex="00C2"/>
  <outline>
    <contour>
      <point x="940" y="1819" type="line"/>
      <point x="730" y="2070" type="line"/>
      <point x="520" y="1819" type="line"/>
      <point x="445" y="1868" type="line"/>
      <point x="671" y="2180" type="line"/>
      <point x="788" y="2180" type="line"/>
      <point x="1016" y="1868" type="line"/>
    </contour>
    <contour>
      <point x="933" y="303" type="line"/>
      <point x="808" y="303" type="line"/>
      <point x="808" y="51" type="line"/>
      <point x="1486" y="51" type="line"/>
      <point x="1486" y="303" type="line"/>
      <point x="1371" y="303" type="line"/>
      <point x="1067" y="1542" type="line"/>
      <point x="247" y="1542" type="line"/>
      <point x="247" y="1291" type="line"/>
      <point x="458" y="1291" type="line"/>
      <point x="205" y="303" type="line"/>
      <point x="60" y="303" type="line"/>
      <point x="60" y="51" type="line"/>
      <point x="604" y="51" type="line"/>
      <point x="604" y="303" type="line"/>
      <point x="467" y="303" type="line"/>
      <point x="506" y="574" type="line"/>
      <point x="872" y="574" type="line"/>
    </contour>
    <contour>
      <point x="851" y="712" type="line"/>
      <point x="529" y="712" type="line"/>
      <point x="686" y="1474" type="line"/>
    </contour>
  </outline>
</glyph>
<glyph name="Adieresis" format="1">
  <advance width="1588"/>
  <unicode hex="00C4"/>
  <outline>
    <contour>
      <point x="637.543945312" y="1974.0" type="curve" smooth="yes"/>
      <point x="637.543945312" y="1864.33984375"/>
      <point x="584.221679688" y="1794.0"/>
      <point x="486.0" y="1794.0" type="curve" smooth="yes"/>
      <point x="375.935546875" y="1794.0"/>
      <point x="310.0" y="1863.34960938"/>
      <point x="310.0" y="1976.0" type="curve" smooth="yes"/>
      <point x="310.0" y="2084.25976562"/>
      <point x="377.5859375" y="2152.0"/>
      <point x="485.0" y="2152.0" type="curve" smooth="yes"/>
      <point x="586.396484375" y="2152.0"/>
      <point x="637.543945312" y="2085.04003906"/>
    </contour>
    <contour>
      <point x="1173.0" y="1973.0" type="curve" smooth="yes"/>
      <point x="1173.0" y="1863.33984375"/>
      <point x="1105.03710938" y="1793.0"/>
      <point x="999.0" y="1793.0" type="curve" smooth="yes"/>
      <point x="897.1875" y="1793.0"/>
      <point x="845.456054688" y="1862.34960938"/>
      <point x="845.456054688" y="1975.0" type="curve" smooth="yes"/>
      <point x="845.456054688" y="2083.25976562"/>
      <point x="898.482421875" y="2151.0"/>
      <point x="998.0" y="2151.0" type="curve" smooth="yes"/>
      <point x="1107.80761719" y="2151.0"/>
      <point x="1173.0" y="2084.04003906"/>
    </contour>
    <contour>
      <point x="933.0" y="303.0" type="line"/>
      <point x="808.0" y="303.0" type="line"/>
      <point x="808.0" y="51.0" type="line"/>
      <point x="1486.0" y="51.0" type="line"/>
      <point x="1486.0" y="303.0" type="line"/>
      <point x="1371.0" y="303.0" type="line"/>
      <point x="1067.0" y="1542.0" type="line"/>
      <point x="247.0" y="1542.0" type="line"/>
      <point x="247.0" y="1291.0" type="line"/>
      <point x="458.0" y="1291.0" type="line"/>
      <point x="205.0" y="303.0" type="line"/>
      <point x="60.0" y="303.0" type="line"/>
      <point x="60.0" y="51.0" type="line"/>
      <point x="604.0" y="51.0" type="line"/>
      <point x="604.0" y="303.0" type="line"/>
      <point x="467.0" y="303.0" type="line"/>
      <point x="506.0" y="574.0" type="line"/>
      <point x="872.0" y="574.0" type="line"/>
    </contour>
    <contour>
      <point x="851.0" y="712.0" type="line"/>
      <point x="529.0" y="712.0" type="line"/>
      <point x="686.0" y="1474.0" type="line"/>
    </contour>
  </outline>
</glyph>
<glyph name="Ecircumflex" format="1">
  <advance width="1275"/>
  <unicode hex="00CA"/>
  <outline>
    <contour>
      <point x="786" y="1819" type="line"/>
      <point x="576" y="2070" type="line"/>
      <point x="366" y="1819" type="line"/>
      <point x="291" y="1868" type="line"/>
      <point x="517" y="2180" type="line"/>
      <point x="634" y="2180" type="line"/>
      <point x="862" y="1868" type="line"/>
    </contour>
    <contour>
      <point x="634" y="1291" type="line"/>
      <point x="634" y="927" type="line"/>
      <point x="808" y="927" type="line"/>
      <point x="808" y="767" type="line"/>
      <point x="634" y="767" type="line"/>
      <point x="634" y="359" type="line"/>
      <point x="897" y="359" type="line"/>
      <point x="972" y="677" type="line"/>
      <point x="1154" y="677" type="line"/>
      <point x="1154" y="102" type="line"/>
      <point x="79" y="102" type="line"/>
      <point x="79" y="359" type="line"/>
      <point x="237" y="359" type="line"/>
      <point x="237" y="1291" type="line"/>
      <point x="79" y="1291" type="line"/>
      <point x="79" y="1542" type="line"/>
      <point x="1143" y="1542" type="line"/>
      <point x="1143" y="1010" type="line"/>
      <point x="965" y="1010" type="line"/>
      <point x="892" y="1291" type="line"/>
    </contour>
  </outline>
</glyph>
<glyph name="Igrave" format="1">
  <advance width="736"/>
  <unicode hex="00CC"/>
  <outline>
    <contour>
      <point x="114.682617188" y="2231.81054688" type="line"/>
      <point x="512.016601562" y="1865.49023438" type="line"/>
      <point x="461.958007812" y="1797.62011719" type="line"/>
      <point x="-4.0" y="2060.87988281" type="line"/>
    </contour>
    <contour>
      <point x="595.0" y="359.0" type="line"/>
      <point x="736.0" y="359.0" type="line"/>
      <point x="736.0" y="102.0" type="line"/>
      <point x="78.0" y="102.0" type="line"/>
      <point x="78.0" y="359.0" type="line"/>
      <point x="225.0" y="359.0" type="line"/>
      <point x="225.0" y="1342.0" type="line"/>
      <point x="82.0" y="1342.0" type="line"/>
      <point x="82.0" y="1593.0" type="line"/>
      <point x="742.0" y="1593.0" type="line"/>
      <point x="742.0" y="1342.0" type="line"/>
      <point x="595.0" y="1342.0" type="line"/>
    </contour>
  </outline>
</glyph>
<glyph name="Iacute" format="1">
  <advance width="736"/>
  <unicode hex="00CD"/>
  <outline>
    <contour>
      <point x="555.016601562" y="2060.87988281" type="line"/>
      <point x="89.05859375" y="1797.62011719" type="line"/>
      <point x="39.0" y="1865.49023438" type="line"/>
      <point x="436.333984375" y="2231.81054688" type="line"/>
    </contour>
    <contour>
      <point x="595.0" y="359.0" type="line"/>
      <point x="736.0" y="359.0" type="line"/>
      <point x="736.0" y="102.0" type="line"/>
      <point x="78.0" y="102.0" type="line"/>
      <point x="78.0" y="359.0" type="line"/>
      <point x="225.0" y="359.0" type="line"/>
      <point x="225.0" y="1342.0" type="line"/>
      <point x="82.0" y="1342.0" type="line"/>
      <point x="82.0" y="1593.0" type="line"/>
      <point x="742.0" y="1593.0" type="line"/>
      <point x="742.0" y="1342.0" type="line"/>
      <point x="595.0" y="1342.0" type="line"/>
    </contour>
  </outline>
</glyph>
<glyph name="Ntilde" format="1">
  <advance width="1620"/>
  <unicode hex="00D1"/>
  <outline>
    <contour>
      <point x="401.946289062" y="2063.890625" type="curve"/>
      <point x="365.0" y="2039.58007812" type="line"/>
      <point x="429.4375" y="1923.91015625"/>
      <point x="468.6015625" y="1818.0"/>
      <point x="570.64453125" y="1818.0" type="curve" smooth="yes"/>
      <point x="651.375976562" y="1818.0"/>
      <point x="702.7578125" y="1938.0"/>
      <point x="824.64453125" y="1938.0" type="curve" smooth="yes"/>
      <point x="900.39453125" y="1938.0"/>
      <point x="947.004882812" y="1878.20996094"/>
      <point x="978.25390625" y="1843.95019531" type="curve"/>
      <point x="1014.34570312" y="1867.58007812" type="line"/>
      <point x="950.077148438" y="1984.15039062"/>
      <point x="907.89453125" y="2093.0"/>
      <point x="813.64453125" y="2093.0" type="curve" smooth="yes"/>
      <point x="725.53515625" y="2093.0"/>
      <point x="684.87109375" y="1967.0"/>
      <point x="560.64453125" y="1967.0" type="curve" smooth="yes"/>
      <point x="483.564453125" y="1967.0"/>
      <point x="434.741210938" y="2028.0703125"/>
    </contour>
    <contour>
      <point x="947.0" y="102.0" type="line"/>
      <point x="1432.0" y="102.0" type="line"/>
      <point x="1432.0" y="1342.0" type="line"/>
      <point x="1590.0" y="1342.0" type="line"/>
      <point x="1590.0" y="1592.0" type="line"/>
      <point x="1081.0" y="1592.0" type="line"/>
      <point x="1081.0" y="1342.0" type="line"/>
      <point x="1225.0" y="1342.0" type="line"/>
      <point x="1225.0" y="491.0" type="line"/>
      <point x="700.0" y="1593.0" type="line"/>
      <point x="84.0" y="1593.0" type="line"/>
      <point x="84.0" y="1344.0" type="line"/>
      <point x="241.0" y="1344.0" type="line"/>
      <point x="241.0" y="362.0" type="line"/>
      <point x="193.0" y="360.0" type="line" smooth="yes"/>
      <point x="180.0" y="359.0"/>
      <point x="164.0" y="359.0"/>
      <point x="147.0" y="359.0" type="curve" smooth="yes"/>
      <point x="78.0" y="359.0" type="line"/>
      <point x="78.0" y="102.0" type="line"/>
      <point x="587.0" y="102.0" type="line"/>
      <point x="587.0" y="359.0" type="line"/>
      <point x="565.0" y="359.0"/>
      <point x="543.0" y="360.0"/>
      <point x="523.0" y="360.0" type="curve" smooth="yes"/>
      <point x="443.0" y="360.0" type="line"/>
      <point x="443.0" y="1131.0" type="line"/>
    </contour>
  </outline>
</glyph>
<glyph name="Ograve" format="1">
  <advance width="1526"/>
  <unicode hex="00D2"/>
  <outline>
    <contour>
      <point x="509.682617188" y="2231.81054688" type="line"/>
      <point x="907.016601562" y="1865.49023438" type="line"/>
      <point x="856.958007812" y="1797.62011719" type="line"/>
      <point x="391.0" y="2060.87988281" type="line"/>
    </contour>
    <contour>
      <point x="64.0" y="798.0" type="curve" smooth="yes"/>
      <point x="64.0" y="555.0"/>
      <point x="158.0" y="370.0"/>
      <point x="279.0" y="242.0" type="curve" smooth="yes"/>
      <point x="396.0" y="118.0"/>
      <point x="562.0" y="22.0"/>
      <point x="782.0" y="22.0" type="curve" smooth="yes"/>
      <point x="1002.0" y="22.0"/>
      <point x="1168.0" y="118.0"/>
      <point x="1285.0" y="242.0" type="curve" smooth="yes"/>
      <point x="1406.0" y="370.0"/>
      <point x="1500.0" y="555.0"/>
      <point x="1500.0" y="798.0" type="curve" smooth="yes"/>
      <point x="1500.0" y="1282.0"/>
      <point x="1220.0" y="1572.0"/>
      <point x="782.0" y="1572.0" type="curve" smooth="yes"/>
      <point x="346.0" y="1572.0"/>
      <point x="64.0" y="1283.0"/>
    </contour>
    <contour>
      <point x="782.0" y="1311.0" type="curve" smooth="yes"/>
      <point x="1002.0" y="1311.0"/>
      <point x="1027.0" y="983.0"/>
      <point x="1027.0" y="806.0" type="curve" smooth="yes"/>
      <point x="1027.0" y="632.0"/>
      <point x="1004.0" y="267.0"/>
      <point x="782.0" y="267.0" type="curve" smooth="yes"/>
      <point x="560.0" y="267.0"/>
      <point x="537.0" y="630.0"/>
      <point x="537.0" y="806.0" type="curve" smooth="yes"/>
      <point x="537.0" y="982.0"/>
      <point x="561.0" y="1311.0"/>
    </contour>
  </outline>
</glyph>
<glyph name="Otilde" format="1">
  <advance width="1526"/>
  <unicode hex="00D5"/>
  <outline>
    <contour>
      <point x="354.946289062" y="2063.890625" type="curve"/>
      <point x="318.0" y="2039.58007812" type="line"/>
      <point x="382.4375" y="1923.91015625"/>
      <point x="421.6015625" y="1818.0"/>
      <point x="523.64453125" y="1818.0" type="curve" smooth="yes"/>
      <point x="604.375976562" y="1818.0"/>
      <point x="655.7578125" y="1938.0"/>
      <point x="777.64453125" y="1938.0" type="curve" smooth="yes"/>
      <point x="853.39453125" y="1938.0"/>
      <point x="900.004882812" y="1878.20996094"/>
      <point x="931.25390625" y="1843.95019531" type="curve"/>
      <point x="967.345703125" y="1867.58007812" type="line"/>
      <point x="903.077148438" y="1984.15039062"/>
      <point x="860.89453125" y="2093.0"/>
      <point x="766.64453125" y="2093.0" type="curve" smooth="yes"/>
      <point x="678.53515625" y="2093.0"/>
      <point x="637.87109375" y="1967.0"/>
      <point x="513.64453125" y="1967.0" type="curve" smooth="yes"/>
      <point x="436.564453125" y="1967.0"/>
      <point x="387.741210938" y="2028.0703125"/>
    </contour>
    <contour>
      <point x="64.0" y="798.0" type="curve" smooth="yes"/>
      <point x="64.0" y="555.0"/>
      <point x="158.0" y="370.0"/>
      <point x="279.0" y="242.0" type="curve" smooth="yes"/>
      <point x="396.0" y="118.0"/>
      <point x="562.0" y="22.0"/>
      <point x="782.0" y="22.0" type="curve" smooth="yes"/>
      <point x="1002.0" y="22.0"/>
      <point x="1168.0" y="118.0"/>
      <point x="1285.0" y="242.0" type="curve" smooth="yes"/>
      <point x="1406.0" y="370.0"/>
      <point x="1500.0" y="555.0"/>
      <point x="1500.0" y="798.0" type="curve" smooth="yes"/>
      <point x="1500.0" y="1282.0"/>
      <point x="1220.0" y="1572.0"/>
      <point x="782.0" y="1572.0" type="curve" smooth="yes"/>
      <point x="346.0" y="1572.0"/>
      <point x="64.0" y="1283.0"/>
    </contour>
    <contour>
      <point x="782.0" y="1311.0" type="curve" smooth="yes"/>
      <point x="1002.0" y="1311.0"/>
      <point x="1027.0" y="983.0"/>
      <point x="1027.0" y="806.0" type="curve" smooth="yes"/>
      <point x="1027.0" y="632.0"/>
      <point x="1004.0" y="267.0"/>
      <point x="782.0" y="267.0" type="curve" smooth="yes"/>
      <point x="560.0" y="267.0"/>
      <point x="537.0" y="630.0"/>
      <point x="537.0" y="806.0" type="curve" smooth="yes"/>
      <point x="537.0" y="982.0"/>
      <point x="561.0" y="1311.0"/>
    </contour>
  </outline>
</glyph>
<glyph name="Odieresis" format="1">
  <advance width="1526"/>
  <unicode hex="00D6"/>
  <outline>
    <contour>
      <point x="553.543945312" y="1974.0" type="curve" smooth="yes"/>
      <point x="553.543945312" y="1864.33984375"/>
      <point x="500.221679688" y="1794.0"/>
      <point x="402.0" y="1794.0" type="curve" smooth="yes"/>
      <point x="291.935546875" y="1794.0"/>
      <point x="226.0" y="1863.34960938"/>
      <point x="226.0" y="1976.0" type="curve" smooth="yes"/>
      <point x="226.0" y="2084.25976562"/>
      <point x="293.5859375" y="2152.0"/>
      <point x="401.0" y="2152.0" type="curve" smooth="yes"/>
      <point x="502.396484375" y="2152.0"/>
      <point x="553.543945312" y="2085.04003906"/>
    </contour>
    <contour>
      <point x="1089.0" y="1973.0" type="curve" smooth="yes"/>
      <point x="1089.0" y="1863.33984375"/>
      <point x="1021.03710938" y="1793.0"/>
      <point x="915.0" y="1793.0" type="curve" smooth="yes"/>
      <point x="813.1875" y="1793.0"/>
      <point x="761.456054688" y="1862.34960938"/>
      <point x="761.456054688" y="1975.0" type="curve" smooth="yes"/>
      <point x="761.456054688" y="2083.25976562"/>
      <point x="814.482421875" y="2151.0"/>
      <point x="914.0" y="2151.0" type="curve" smooth="yes"/>
      <point x="1023.80761719" y="2151.0"/>
      <point x="1089.0" y="2084.04003906"/>
    </contour>
    <contour>
      <point x="64.0" y="798.0" type="curve" smooth="yes"/>
      <point x="64.0" y="555.0"/>
      <point x="158.0" y="370.0"/>
      <point x="279.0" y="242.0" type="curve" smooth="yes"/>
      <point x="396.0" y="118.0"/>
      <point x="562.0" y="22.0"/>
      <point x="782.0" y="22.0" type="curve" smooth="yes"/>
      <point x="1002.0" y="22.0"/>
      <point x="1168.0" y="118.0"/>
      <point x="1285.0" y="242.0" type="curve" smooth="yes"/>
      <point x="1406.0" y="370.0"/>
      <point x="1500.0" y="555.0"/>
      <point x="1500.0" y="798.0" type="curve" smooth="yes"/>
      <point x="1500.0" y="1282.0"/>
      <point x="1220.0" y="1572.0"/>
      <point x="782.0" y="1572.0" type="curve" smooth="yes"/>
      <point x="346.0" y="1572.0"/>
      <point x="64.0" y="1283.0"/>
    </contour>
    <contour>
      <point x="782.0" y="1311.0" type="curve" smooth="yes"/>
      <point x="1002.0" y="1311.0"/>
      <point x="1027.0" y="983.0"/>
      <point x="1027.0" y="806.0" type="curve" smooth="yes"/>
      <point x="1027.0" y="632.0"/>
      <point x="1004.0" y="267.0"/>
      <point x="782.0" y="267.0" type="curve" smooth="yes"/>
      <point x="560.0" y="267.0"/>
      <point x="537.0" y="630.0"/>
      <point x="537.0" y="806.0" type="curve" smooth="yes"/>
      <point x="537.0" y="982.0"/>
      <point x="561.0" y="1311.0"/>
    </contour>
  </outline>
</glyph>
<glyph name="Uacute" format="1">
  <advance width="1451"/>
  <unicode hex="00DA"/>
  <outline>
    <contour>
      <point x="912.016601562" y="2060.87988281" type="line"/>
      <point x="446.05859375" y="1797.62011719" type="line"/>
      <point x="396.0" y="1865.49023438" type="line"/>
      <point x="793.333984375" y="2231.81054688" type="line"/>
    </contour>
    <contour>
      <point x="199.0" y="704.0" type="line" smooth="yes"/>
      <point x="199.0" y="260.0"/>
      <point x="344.0" y="22.0"/>
      <point x="728.0" y="22.0" type="curve" smooth="yes"/>
      <point x="1029.0" y="22.0"/>
      <point x="1276.0" y="206.0"/>
      <point x="1276.0" y="520.0" type="curve" smooth="yes"/>
      <point x="1276.0" y="1291.0" type="line"/>
      <point x="1430.0" y="1291.0" type="line"/>
      <point x="1430.0" y="1541.0" type="line"/>
      <point x="909.0" y="1541.0" type="line"/>
      <point x="909.0" y="1291.0" type="line"/>
      <point x="1056.0" y="1291.0" type="line"/>
      <point x="1056.0" y="536.0" type="line" smooth="yes"/>
      <point x="1056.0" y="388.0"/>
      <point x="964.0" y="295.0"/>
      <point x="835.0" y="295.0" type="curve" smooth="yes"/>
      <point x="672.0" y="295.0"/>
      <point x="619.0" y="452.0"/>
      <point x="619.0" y="600.0" type="curve" smooth="yes"/>
      <point x="619.0" y="1291.0" type="line"/>
      <point x="752.0" y="1291.0" type="line"/>
      <point x="752.0" y="1541.0" type="line"/>
      <point x="38.0" y="1541.0" type="line"/>
      <point x="38.0" y="1291.0" type="line"/>
      <point x="199.0" y="1291.0" type="line"/>
    </contour>
  </outline>
</glyph>
<glyph name="Ucircumflex" format="1">
  <advance width="1451"/>
  <unicode hex="00DB"/>
  <outline>
    <contour>
      <point x="818" y="1819" type="line"/>
      <point x="608" y="2070" type="line"/>
      <point x="398" y="1819" type="line"/>
      <point x="323" y="1868" type="line"/>
      <point x="549" y="2180" type="line"/>
      <point x="666" y="2180" type="line"/>
      <point x="894" y="1868" type="line"/>
    </contour>
    <contour>
      <point x="199" y="704" type="line" smooth="yes"/>
      <point x="199" y="260"/>
      <point x="344" y="22"/>
      <point x="728" y="22" type="curve" smooth="yes"/>
      <point x="1029" y="22"/>
      <point x="1276" y="206"/>
      <point x="1276" y="520" type="curve" smooth="yes"/>
      <point x="1276" y="1291" type="line"/>
      <point x="1430" y="1291" type="line"/>
      <point x="1430" y="1541" type="line"/>
      <point x="909" y="1541" type="line"/>
      <point x="909" y="1291" type="line"/>
      <point x="1056" y="1291" type="line"/>
      <point x="1056" y="536" type="line" smooth="yes"/>
      <point x="1056" y="388"/>
      <point x="964" y="295"/>
      <point x="835" y="295" type="curve" smooth="yes"/>
      <point x="672" y="295"/>
      <point x="619" y="452"/>
      <point x="619" y="600" type="curve" smooth="yes"/>
      <point x="619" y="1291" type="line"/>
      <point x="752" y="1291" type="line"/>
      <point x="752" y="1541" type="line"/>
      <point x="38" y="1541" type="line"/>
      <point x="38" y="1291" type="line"/>
      <point x="199" y="1291" type="line"/>
    </contour>
  </outline>
</glyph>
<glyph name="Udieresis" format="1">
  <advance width="1451"/>
  <unicode hex="00DC"/>
  <outline>
    <contour>
      <point x="515.543945312" y="1974.0" type="curve" smooth="yes"/>
      <point x="515.543945312" y="1864.33984375"/>
      <point x="462.221679688" y="1794.0"/>
      <point x="364.0" y="1794.0" type="curve" smooth="yes"/>
      <point x="253.935546875" y="1794.0"/>
      <point x="188.0" y="1863.34960938"/>
      <point x="188.0" y="1976.0" type="curve" smooth="yes"/>
      <point x="188.0" y="2084.25976562"/>
      <point x="255.5859375" y="2152.0"/>
      <point x="363.0" y="2152.0" type="curve" smooth="yes"/>
      <point x="464.396484375" y="2152.0"/>
      <point x="515.543945312" y="2085.04003906"/>
    </contour>
    <contour>
      <point x="1051.0" y="1973.0" type="curve" smooth="yes"/>
      <point x="1051.0" y="1863.33984375"/>
      <point x="983.037109375" y="1793.0"/>
      <point x="877.0" y="1793.0" type="curve" smooth="yes"/>
      <point x="775.1875" y="1793.0"/>
      <point x="723.456054688" y="1862.34960938"/>
      <point x="723.456054688" y="1975.0" type="curve" smooth="yes"/>
      <point x="723.456054688" y="2083.25976562"/>
      <point x="776.482421875" y="2151.0"/>
      <point x="876.0" y="2151.0" type="curve" smooth="yes"/>
      <point x="985.807617188" y="2151.0"/>
      <point x="1051.0" y="2084.04003906"/>
    </contour>
    <contour>
      <point x="199.0" y="704.0" type="line" smooth="yes"/>
      <point x="199.0" y="260.0"/>
      <point x="344.0" y="22.0"/>
      <point x="728.0" y="22.0" type="curve" smooth="yes"/>
      <point x="1029.0" y="22.0"/>
      <point x="1276.0" y="206.0"/>
      <point x="1276.0" y="520.0" type="curve" smooth="yes"/>
      <point x="1276.0" y="1291.0" type="line"/>
      <point x="1430.0" y="1291.0" type="line"/>
      <point x="1430.0" y="1541.0" type="line"/>
      <point x="909.0" y="1541.0" type="line"/>
      <point x="909.0" y="1291.0" type="line"/>
      <point x="1056.0" y="1291.0" type="line"/>
      <point x="1056.0" y="536.0" type="line" smooth="yes"/>
      <point x="1056.0" y="388.0"/>
      <point x="964.0" y="295.0"/>
      <point x="835.0" y="295.0" type="curve" smooth="yes"/>
      <point x="672.0" y="295.0"/>
      <point x="619.0" y="452.0"/>
      <point x="619.0" y="600.0" type="curve" smooth="yes"/>
      <point x="619.0" y="1291.0" type="line"/>
      <point x="752.0" y="1291.0" type="line"/>
      <point x="752.0" y="1541.0" type="line"/>
      <point x="38.0" y="1541.0" type="line"/>
      <point x="38.0" y="1291.0" type="line"/>
      <point x="199.0" y="1291.0" type="line"/>
    </contour>
  </outline>
</glyph>
<glyph name="Yacute" format="1">
  <advance width="1431"/>
  <unicode hex="00DD"/>
  <outline>
    <contour>
      <point x="902.016601562" y="2060.87988281" type="line"/>
      <point x="436.05859375" y="1797.62011719" type="line"/>
      <point x="386.0" y="1865.49023438" type="line"/>
      <point x="783.333984375" y="2231.81054688" type="line"/>
    </contour>
    <contour>
      <point x="865.0" y="926.0" type="line"/>
      <point x="609.0" y="1342.0" type="line"/>
      <point x="732.0" y="1342.0" type="line"/>
      <point x="732.0" y="1592.0" type="line"/>
      <point x="34.0" y="1592.0" type="line"/>
      <point x="34.0" y="1342.0" type="line"/>
      <point x="121.0" y="1342.0" type="line"/>
      <point x="537.0" y="719.0" type="line"/>
      <point x="537.0" y="359.0" type="line"/>
      <point x="398.0" y="359.0" type="line"/>
      <point x="398.0" y="102.0" type="line"/>
      <point x="1086.0" y="102.0" type="line"/>
      <point x="1086.0" y="359.0" type="line"/>
      <point x="945.0" y="359.0" type="line"/>
      <point x="945.0" y="769.0" type="line"/>
      <point x="1251.0" y="1342.0" type="line"/>
      <point x="1408.0" y="1342.0" type="line"/>
      <point x="1408.0" y="1592.0" type="line"/>
      <point x="903.0" y="1592.0" type="line"/>
      <point x="903.0" y="1342.0" type="line"/>
      <point x="1066.0" y="1342.0" type="line"/>
    </contour>
  </outline>
</glyph>
<glyph name="Thorn" format="1">
  <advance width="1455"/>
  <unicode hex="00DE"/>
  <outline>
    <contour>
      <point x="1392" y="1086" type="curve" smooth="yes"/>
      <point x="1392" y="1456"/>
      <point x="1112" y="1529"/>
      <point x="752" y="1529" type="curve" smooth="yes"/>
      <point x="645" y="1529" type="line"/>
      <point x="645" y="1842" type="line"/>
      <point x="78" y="1842" type="line"/>
      <point x="78" y="1578" type="line"/>
      <point x="229" y="1578" type="line"/>
      <point x="229" y="311" type="line"/>
      <point x="72" y="312" type="line"/>
      <point x="72" y="51" type="line"/>
      <point x="775" y="51" type="line"/>
      <point x="775" y="312" type="line"/>
      <point x="645" y="312" type="line"/>
      <point x="645" y="627" type="line"/>
      <point x="696" y="620" type="line" smooth="yes"/>
      <point x="738" y="614"/>
      <point x="780" y="610"/>
      <point x="824" y="610" type="curve" smooth="yes"/>
      <point x="1157" y="610"/>
      <point x="1392" y="732"/>
    </contour>
    <contour>
      <point x="646" y="1258" type="line"/>
      <point x="784" y="1258" type="line" smooth="yes"/>
      <point x="886" y="1258"/>
      <point x="993" y="1194"/>
      <point x="993" y="1055" type="curve" smooth="yes"/>
      <point x="993" y="889"/>
      <point x="866" y="843"/>
      <point x="745" y="843" type="curve" smooth="yes"/>
      <point x="646" y="843" type="line"/>
    </contour>
  </outline>
</glyph>
<glyph name="germandbls" format="1">
  <advance width="1533"/>
  <unicode hex="00DF"/>
  <outline>
    <contour>
      <point x="785" y="848" type="line"/>
      <point x="934" y="838"/>
      <point x="1108" y="771"/>
      <point x="1108" y="581" type="curve" smooth="yes"/>
      <point x="1108" y="494"/>
      <point x="1057" y="424"/>
      <point x="978" y="368" type="curve"/>
      <point x="979" y="82" type="line"/>
      <point x="1236" y="96"/>
      <point x="1475" y="220"/>
      <point x="1475" y="477" type="curve" smooth="yes"/>
      <point x="1475" y="688"/>
      <point x="1304" y="836"/>
      <point x="1121" y="899" type="curve" smooth="yes"/>
      <point x="1022" y="935" type="line"/>
      <point x="1113" y="992" type="line" smooth="yes"/>
      <point x="1206" y="1051"/>
      <point x="1300" y="1156"/>
      <point x="1300" y="1286" type="curve" smooth="yes"/>
      <point x="1300" y="1366"/>
      <point x="1267" y="1419"/>
      <point x="1221" y="1470" type="curve" smooth="yes"/>
      <point x="1131" y="1568"/>
      <point x="975" y="1619"/>
      <point x="770" y="1619" type="curve" smooth="yes"/>
      <point x="675" y="1619" type="line"/>
      <point x="395" y="1595"/>
      <point x="236" y="1471"/>
      <point x="236" y="1143" type="curve" smooth="yes"/>
      <point x="236" y="369" type="line"/>
      <point x="64" y="369" type="line"/>
      <point x="64" y="102" type="line"/>
      <point x="763" y="102" type="line"/>
      <point x="763" y="349" type="line"/>
      <point x="627" y="349" type="line"/>
      <point x="626" y="1182" type="line" smooth="yes"/>
      <point x="626" y="1301"/>
      <point x="698" y="1376"/>
      <point x="800" y="1376" type="curve" smooth="yes"/>
      <point x="911" y="1376"/>
      <point x="977" y="1289"/>
      <point x="977" y="1173" type="curve" smooth="yes"/>
      <point x="977" y="1052"/>
      <point x="893" y="934"/>
      <point x="784" y="905" type="curve"/>
    </contour>
  </outline>
</glyph>
<glyph name="atilde" format="1">
  <advance width="1141"/>
  <unicode hex="00E3"/>
  <outline>
    <contour>
      <point x="178.946289062" y="1479.88964844" type="curve"/>
      <point x="142.0" y="1455.58007812" type="line"/>
      <point x="206.438476562" y="1339.91015625"/>
      <point x="245.6015625" y="1234.0"/>
      <point x="347.64453125" y="1234.0" type="curve" smooth="yes"/>
      <point x="428.375976562" y="1234.0"/>
      <point x="479.7578125" y="1354.0"/>
      <point x="601.64453125" y="1354.0" type="curve" smooth="yes"/>
      <point x="677.39453125" y="1354.0"/>
      <point x="724.004882812" y="1294.20996094"/>
      <point x="755.25390625" y="1259.95019531" type="curve"/>
      <point x="791.345703125" y="1283.58007812" type="line"/>
      <point x="727.077148438" y="1400.15039062"/>
      <point x="684.89453125" y="1509.0"/>
      <point x="590.64453125" y="1509.0" type="curve" smooth="yes"/>
      <point x="502.53515625" y="1509.0"/>
      <point x="461.87109375" y="1383.0"/>
      <point x="337.64453125" y="1383.0" type="curve" smooth="yes"/>
      <point x="260.564453125" y="1383.0"/>
      <point x="211.741210938" y="1444.0703125"/>
    </contour>
    <contour>
      <point x="407.0" y="75.0" type="curve" smooth="yes"/>
      <point x="524.0" y="75.0"/>
      <point x="626.0" y="114.0"/>
      <point x="702.0" y="188.0" type="curve"/>
      <point x="702.0" y="417.0" type="line"/>
      <point x="613.538085938" y="442.548828125"/>
      <point x="521.008789062" y="453.0"/>
      <point x="460.0" y="453.0" type="curve" smooth="yes"/>
      <point x="234.405273438" y="453.0"/>
      <point x="195.0" y="358.552734375"/>
      <point x="195.0" y="260.0" type="curve" smooth="yes"/>
      <point x="195.0" y="179.0"/>
      <point x="248.0" y="75.0"/>
    </contour>
    <contour>
      <point x="737.0" y="0.0" type="line"/>
      <point x="738.166992188" y="0.0"/>
      <point x="709.0" y="125.0"/>
      <point x="709.0" y="125.0" type="curve"/>
      <point x="691.0" y="81.0"/>
      <point x="565.0" y="-18.0"/>
      <point x="389.0" y="-18.0" type="curve" smooth="yes"/>
      <point x="188.0" y="-18.0"/>
      <point x="71.0" y="99.0"/>
      <point x="71.0" y="261.0" type="curve" smooth="yes"/>
      <point x="71.0" y="440.295898438"/>
      <point x="234.58203125" y="533.0"/>
      <point x="417.0" y="533.0" type="curve" smooth="yes"/>
      <point x="500.8828125" y="533.0"/>
      <point x="626.202148438" y="518.700195312"/>
      <point x="702.0" y="478.0" type="curve"/>
      <point x="702.0" y="586.0" type="line" smooth="yes"/>
      <point x="702.0" y="790.51171875"/>
      <point x="671.873046875" y="898.0"/>
      <point x="464.0" y="898.0" type="curve" smooth="yes"/>
      <point x="278.139648438" y="898.0"/>
      <point x="181.869140625" y="844.862304688"/>
      <point x="152.0" y="829.241210938" type="curve"/>
      <point x="144.0" y="832.799804688" type="line"/>
      <point x="144.0" y="926.0" type="line"/>
      <point x="214.0" y="959.8125"/>
      <point x="338.0" y="989.0"/>
      <point x="466.0" y="989.0" type="curve" smooth="yes"/>
      <point x="679.0" y="989.0"/>
      <point x="846.0" y="901.0"/>
      <point x="846.0" y="584.0" type="curve" smooth="yes"/>
      <point x="846.0" y="93.0" type="line"/>
      <point x="1007.0" y="93.0" type="line"/>
      <point x="1007.0" y="0.0" type="line"/>
    </contour>
  </outline>
</glyph>
<glyph name="adieresis" format="1">
  <advance width="1141"/>
  <unicode hex="00E4"/>
  <outline>
    <contour>
      <point x="377.543945312" y="1390.0" type="curve" smooth="yes"/>
      <point x="377.543945312" y="1280.33984375"/>
      <point x="324.221679688" y="1210.0"/>
      <point x="226.0" y="1210.0" type="curve" smooth="yes"/>
      <point x="115.935546875" y="1210.0"/>
      <point x="50.0" y="1279.34960938"/>
      <point x="50.0" y="1392.0" type="curve" smooth="yes"/>
      <point x="50.0" y="1500.25976562"/>
      <point x="117.5859375" y="1568.0"/>
      <point x="225.0" y="1568.0" type="curve" smooth="yes"/>
      <point x="326.396484375" y="1568.0"/>
      <point x="377.543945312" y="1501.04003906"/>
    </contour>
    <contour>
      <point x="913.0" y="1389.0" type="curve" smooth="yes"/>
      <point x="913.0" y="1279.33984375"/>
      <point x="845.037109375" y="1209.0"/>
      <point x="739.0" y="1209.0" type="curve" smooth="yes"/>
      <point x="637.1875" y="1209.0"/>
      <point x="585.456054688" y="1278.34960938"/>
      <point x="585.456054688" y="1391.0" type="curve" smooth="yes"/>
      <point x="585.456054688" y="1499.25976562"/>
      <point x="638.482421875" y="1567.0"/>
      <point x="738.0" y="1567.0" type="curve" smooth="yes"/>
      <point x="847.807617188" y="1567.0"/>
      <point x="913.0" y="1500.04003906"/>
    </contour>
    <contour>
      <point x="407.0" y="75.0" type="curve" smooth="yes"/>
      <point x="524.0" y="75.0"/>
      <point x="626.0" y="114.0"/>
      <point x="702.0" y="188.0" type="curve"/>
      <point x="702.0" y="417.0" type="line"/>
      <point x="613.538085938" y="442.548828125"/>
      <point x="521.008789062" y="453.0"/>
      <point x="460.0" y="453.0" type="curve" smooth="yes"/>
      <point x="234.405273438" y="453.0"/>
      <point x="195.0" y="358.552734375"/>
      <point x="195.0" y="260.0" type="curve" smooth="yes"/>
      <point x="195.0" y="179.0"/>
      <point x="248.0" y="75.0"/>
    </contour>
    <contour>
      <point x="737.0" y="0.0" type="line"/>
      <point x="738.166992188" y="0.0"/>
      <point x="709.0" y="125.0"/>
      <point x="709.0" y="125.0" type="curve"/>
      <point x="691.0" y="81.0"/>
      <point x="565.0" y="-18.0"/>
      <point x="389.0" y="-18.0" type="curve" smooth="yes"/>
      <point x="188.0" y="-18.0"/>
      <point x="71.0" y="99.0"/>
      <point x="71.0" y="261.0" type="curve" smooth="yes"/>
      <point x="71.0" y="440.295898438"/>
      <point x="234.58203125" y="533.0"/>
      <point x="417.0" y="533.0" type="curve" smooth="yes"/>
      <point x="500.8828125" y="533.0"/>
      <point x="626.202148438" y="518.700195312"/>
      <point x="702.0" y="478.0" type="curve"/>
      <point x="702.0" y="586.0" type="line" smooth="yes"/>
      <point x="702.0" y="790.51171875"/>
      <point x="671.873046875" y="898.0"/>
      <point x="464.0" y="898.0" type="curve" smooth="yes"/>
      <point x="278.139648438" y="898.0"/>
      <point x="181.869140625" y="844.862304688"/>
      <point x="152.0" y="829.241210938" type="curve"/>
      <point x="144.0" y="832.799804688" type="line"/>
      <point x="144.0" y="926.0" type="line"/>
      <point x="214.0" y="959.8125"/>
      <point x="338.0" y="989.0"/>
      <point x="466.0" y="989.0" type="curve" smooth="yes"/>
      <point x="679.0" y="989.0"/>
      <point x="846.0" y="901.0"/>
      <point x="846.0" y="584.0" type="curve" smooth="yes"/>
      <point x="846.0" y="93.0" type="line"/>
      <point x="1007.0" y="93.0" type="line"/>
      <point x="1007.0" y="0.0" type="line"/>
    </contour>
  </outline>
</glyph>
<glyph name="aring" format="1">
  <advance width="1141"/>
  <unicode hex="00E5"/>
  <outline>
    <contour>
      <point x="311.0" y="1427.0" type="curve" smooth="yes"/>
      <point x="311" y="1318.08007812"/>
      <point x="377.9296875" y="1245.33007812"/>
      <point x="486.517578125" y="1230.01953125" type="curve"/>
      <point x="392.467773438" y="1247.37011719"/>
      <point x="321.0" y="1319.86035156"/>
      <point x="321.0" y="1425.0" type="curve" smooth="yes"/>
      <point x="321.0" y="1525.04003906"/>
      <point x="386.2890625" y="1593.13964844"/>
      <point x="472.681640625" y="1614.13964844" type="curve"/>
      <point x="371.703125" y="1596.26953125"/>
      <point x="311.0" y="1529.84960938"/>
    </contour>
    <contour>
      <point x="531.0" y="1226.0" type="curve" smooth="yes"/>
      <point x="515.76171875" y="1226.0"/>
      <point x="500.876953125" y="1227.37011719"/>
      <point x="486.517578125" y="1230.01953125" type="curve"/>
      <point x="500.657226562" y="1228.01953125"/>
      <point x="515.502929688" y="1227.0"/>
      <point x="531.0" y="1227.0" type="curve" smooth="yes"/>
      <point x="546.342773438" y="1227.0"/>
      <point x="561.134765625" y="1227.96972656"/>
      <point x="575.307617188" y="1229.84960938" type="curve"/>
      <point x="560.8828125" y="1227.29980469"/>
      <point x="546.043945312" y="1226.0"/>
    </contour>
    <contour>
      <point x="531.0" y="1621.0" type="curve" smooth="yes"/>
      <point x="550.26171875" y="1621.0"/>
      <point x="569.282226562" y="1618.90039062"/>
      <point x="587.576171875" y="1614.78027344" type="curve"/>
      <point x="569.827148438" y="1617.5703125"/>
      <point x="550.93359375" y="1619.0"/>
      <point x="531.0" y="1619.0" type="curve" smooth="yes"/>
      <point x="510.334960938" y="1619.0"/>
      <point x="490.856445312" y="1617.36035156"/>
      <point x="472.681640625" y="1614.13964844" type="curve"/>
      <point x="491.2890625" y="1618.66015625"/>
      <point x="510.875976562" y="1621.0"/>
    </contour>
    <contour>
      <point x="747.0" y="1425.0" type="curve" smooth="yes"/>
      <point x="747.0" y="1317.12011719"/>
      <point x="670.083007812" y="1246.59960938"/>
      <point x="575.307617188" y="1229.84960938" type="curve"/>
      <point x="687.59375" y="1244.79980469"/>
      <point x="761.0" y="1317.5703125"/>
      <point x="761.0" y="1426.0" type="curve" smooth="yes"/>
      <point x="761.0" y="1530.45996094"/>
      <point x="695.396484375" y="1597.83007812"/>
      <point x="587.576171875" y="1614.78027344" type="curve"/>
      <point x="675.7265625" y="1594.95996094"/>
      <point x="747.0" y="1528.38964844"/>
    </contour>
    <contour>
      <point x="407.0" y="75.0" type="curve" smooth="yes"/>
      <point x="524.0" y="75.0"/>
      <point x="626.0" y="114.0"/>
      <point x="702.0" y="188.0" type="curve"/>
      <point x="702.0" y="417.0" type="line"/>
      <point x="613.538085938" y="442.548828125"/>
      <point x="521.008789062" y="453.0"/>
      <point x="460.0" y="453.0" type="curve" smooth="yes"/>
      <point x="234.405273438" y="453.0"/>
      <point x="195.0" y="358.552734375"/>
      <point x="195.0" y="260.0" type="curve" smooth="yes"/>
      <point x="195.0" y="179.0"/>
      <point x="248.0" y="75.0"/>
    </contour>
    <contour>
      <point x="737.0" y="0.0" type="line"/>
      <point x="738.166992188" y="0.0"/>
      <point x="709.0" y="125.0"/>
      <point x="709.0" y="125.0" type="curve"/>
      <point x="691.0" y="81.0"/>
      <point x="565.0" y="-18.0"/>
      <point x="389.0" y="-18.0" type="curve" smooth="yes"/>
      <point x="188.0" y="-18.0"/>
      <point x="71.0" y="99.0"/>
      <point x="71.0" y="261.0" type="curve" smooth="yes"/>
      <point x="71.0" y="440.295898438"/>
      <point x="234.58203125" y="533.0"/>
      <point x="417.0" y="533.0" type="curve" smooth="yes"/>
      <point x="500.8828125" y="533.0"/>
      <point x="626.202148438" y="518.700195312"/>
      <point x="702.0" y="478.0" type="curve"/>
      <point x="702.0" y="586.0" type="line" smooth="yes"/>
      <point x="702.0" y="790.51171875"/>
      <point x="671.873046875" y="898.0"/>
      <point x="464.0" y="898.0" type="curve" smooth="yes"/>
      <point x="278.139648438" y="898.0"/>
      <point x="181.869140625" y="844.862304688"/>
      <point x="152.0" y="829.241210938" type="curve"/>
      <point x="144.0" y="832.799804688" type="line"/>
      <point x="144.0" y="926.0" type="line"/>
      <point x="214.0" y="959.8125"/>
      <point x="338.0" y="989.0"/>
      <point x="466.0" y="989.0" type="curve" smooth="yes"/>
      <point x="679.0" y="989.0"/>
      <point x="846.0" y="901.0"/>
      <point x="846.0" y="584.0" type="curve" smooth="yes"/>
      <point x="846.0" y="93.0" type="line"/>
      <point x="1007.0" y="93.0" type="line"/>
      <point x="1007.0" y="0.0" type="line"/>
    </contour>
  </outline>
</glyph>
<glyph name="ae" format="1">
  <advance width="1775"/>
  <unicode hex="00E6"/>
  <outline>
    <contour>
      <point x="71" y="299" type="line" smooth="yes"/>
      <point x="71" y="-70"/>
      <point x="683" y="-12"/>
      <point x="878" y="145" type="curve" smooth="yes"/>
      <point x="909" y="170" type="line"/>
      <point x="937" y="142" type="line" smooth="yes"/>
      <point x="1016" y="63"/>
      <point x="1105" y="25"/>
      <point x="1210" y="25" type="curve" smooth="yes"/>
      <point x="1413" y="25"/>
      <point x="1538" y="64"/>
      <point x="1684" y="148" type="curve"/>
      <point x="1684" y="306" type="line"/>
      <point x="1474" y="306" type="line"/>
      <point x="1458" y="215"/>
      <point x="1393" y="163"/>
      <point x="1302" y="163" type="curve" smooth="yes"/>
      <point x="1160" y="163"/>
      <point x="1092" y="309"/>
      <point x="1092" y="439" type="curve" smooth="yes"/>
      <point x="1092" y="490" type="line"/>
      <point x="1702" y="490" type="line"/>
      <point x="1703" y="501"/>
      <point x="1703" y="523"/>
      <point x="1703" y="545" type="curve" smooth="yes"/>
      <point x="1703" y="845"/>
      <point x="1509" y="1030"/>
      <point x="1222" y="1030" type="curve" smooth="yes"/>
      <point x="1093" y="1030"/>
      <point x="998" y="981"/>
      <point x="937" y="920" type="curve" smooth="yes"/>
      <point x="908" y="890" type="line"/>
      <point x="876" y="917" type="line" smooth="yes"/>
      <point x="803" y="981"/>
      <point x="706" y="1027"/>
      <point x="567" y="1027" type="curve" smooth="yes"/>
      <point x="459" y="1027"/>
      <point x="272" y="998"/>
      <point x="185" y="975" type="curve" smooth="yes"/>
      <point x="156" y="967" type="line"/>
      <point x="156" y="744" type="line"/>
      <point x="256" y="744" type="line"/>
      <point x="314" y="808"/>
      <point x="391" y="839"/>
      <point x="480" y="839" type="curve" smooth="yes"/>
      <point x="623" y="839"/>
      <point x="721" y="766"/>
      <point x="721" y="622" type="curve" smooth="yes"/>
      <point x="721" y="506" type="line"/>
      <point x="659" y="529" type="line" smooth="yes"/>
      <point x="597" y="552"/>
      <point x="524" y="564"/>
      <point x="440" y="564" type="curve" smooth="yes"/>
      <point x="258" y="564"/>
      <point x="95" y="487"/>
      <point x="71" y="332" type="curve"/>
    </contour>
    <contour>
      <point x="580" y="156" type="curve" smooth="yes"/>
      <point x="503" y="156"/>
      <point x="451" y="219"/>
      <point x="446" y="295" type="curve"/>
      <point x="445" y="298" type="line"/>
      <point x="445" y="310" type="line" smooth="yes"/>
      <point x="445" y="394"/>
      <point x="506" y="473"/>
      <point x="589" y="473" type="curve" smooth="yes"/>
      <point x="632" y="473"/>
      <point x="669" y="458"/>
      <point x="694" y="448" type="curve" smooth="yes"/>
      <point x="725" y="436" type="line"/>
      <point x="725" y="232" type="line"/>
      <point x="694" y="198"/>
      <point x="651" y="156"/>
    </contour>
    <contour>
      <point x="1384" y="641" type="curve" smooth="yes"/>
      <point x="1384" y="630"/>
      <point x="1383" y="618"/>
      <point x="1383" y="606" type="curve"/>
      <point x="1380" y="558" type="line"/>
      <point x="1092" y="560" type="line"/>
      <point x="1092" y="640" type="line" smooth="yes"/>
      <point x="1092" y="721"/>
      <point x="1125" y="848"/>
      <point x="1238" y="848" type="curve" smooth="yes"/>
      <point x="1356" y="848"/>
      <point x="1384" y="724"/>
    </contour>
  </outline>
</glyph>
<glyph name="egrave" format="1">
  <advance width="1094"/>
  <unicode hex="00E8"/>
  <outline>
    <contour>
      <point x="337.682617188" y="1647.81054688" type="line"/>
      <point x="735.016601562" y="1281.49023438" type="line"/>
      <point x="684.958007812" y="1213.62011719" type="line"/>
      <point x="219.0" y="1476.87988281" type="line"/>
    </contour>
    <contour>
      <point x="835.0" y="584.0" type="line"/>
      <point x="835.0" y="605.0" type="line" smooth="yes"/>
      <point x="835.0" y="756.0"/>
      <point x="700.0" y="893.0"/>
      <point x="524.0" y="893.0" type="curve" smooth="yes"/>
      <point x="343.0" y="893.0"/>
      <point x="224.0" y="761.0"/>
      <point x="201.0" y="618.0" type="curve"/>
      <point x="201.0" y="616.0"/>
      <point x="199.0" y="586.0"/>
      <point x="199.0" y="584.0" type="curve"/>
    </contour>
    <contour>
      <point x="68.0" y="485.0" type="curve" smooth="yes"/>
      <point x="68.0" y="766.0"/>
      <point x="228.0" y="989.0"/>
      <point x="524.0" y="989.0" type="curve" smooth="yes"/>
      <point x="748.0" y="989.0"/>
      <point x="948.0" y="841.0"/>
      <point x="948.0" y="562.0" type="curve" smooth="yes"/>
      <point x="948.0" y="561.0"/>
      <point x="946.0" y="518.0"/>
      <point x="944.0" y="496.0" type="curve"/>
      <point x="196.0" y="496.0" type="line"/>
      <point x="196.0" y="260.0"/>
      <point x="316.0" y="77.0"/>
      <point x="586.0" y="77.0" type="curve" smooth="yes"/>
      <point x="750.018554688" y="77.0"/>
      <point x="845.190429688" y="132.190429688"/>
      <point x="911.0" y="179.0" type="curve"/>
      <point x="921.0" y="177.0" type="line"/>
      <point x="921.0" y="79.0" type="line"/>
      <point x="882.109375" y="50.8974609375"/>
      <point x="761.448242188" y="-18.0"/>
      <point x="565.0" y="-18.0" type="curve" smooth="yes"/>
      <point x="256.0" y="-18.0"/>
      <point x="68.0" y="211.0"/>
    </contour>
  </outline>
</glyph>
<glyph name="edieresis" format="1">
  <advance width="1094"/>
  <unicode hex="00EB"/>
  <outline>
    <contour>
      <point x="835" y="584" type="line"/>
      <point x="835" y="605" type="line" smooth="yes"/>
      <point x="835" y="756"/>
      <point x="700" y="893"/>
      <point x="524" y="893" type="curve" smooth="yes"/>
      <point x="343" y="893"/>
      <point x="224" y="761"/>
      <point x="201" y="618" type="curve"/>
      <point x="201" y="616"/>
      <point x="199" y="586"/>
      <point x="199" y="584" type="curve"/>
    </contour>
    <contour>
      <point x="68.0" y="485.0" type="curve" smooth="yes"/>
      <point x="68" y="766"/>
      <point x="228" y="989"/>
      <point x="524" y="989" type="curve" smooth="yes"/>
      <point x="748" y="989"/>
      <point x="948" y="841"/>
      <point x="948" y="562" type="curve" smooth="yes"/>
      <point x="948" y="561"/>
      <point x="946" y="518"/>
      <point x="944" y="496" type="curve"/>
      <point x="196" y="496" type="line"/>
      <point x="196" y="260"/>
      <point x="316" y="77"/>
      <point x="586" y="77" type="curve" smooth="yes"/>
      <point x="750.018554688" y="77"/>
      <point x="845.190429688" y="132.190429688"/>
      <point x="911.0" y="179.0" type="curve"/>
      <point x="921.0" y="177.0" type="line"/>
      <point x="921.0" y="79.0" type="line"/>
      <point x="882.109375" y="50.8974609375"/>
      <point x="761.448242188" y="-18.0"/>
      <point x="565.0" y="-18.0" type="curve" smooth="yes"/>
      <point x="256.0" y="-18.0"/>
      <point x="68.0" y="211.0"/>
    </contour>
    <contour>
      <point x="381.543945312" y="1390.0" type="curve" smooth="yes"/>
      <point x="381.543945312" y="1280.33984375"/>
      <point x="328.221679688" y="1210.0"/>
      <point x="230.0" y="1210.0" type="curve" smooth="yes"/>
      <point x="119.935546875" y="1210.0"/>
      <point x="54.0" y="1279.34960938"/>
      <point x="54.0" y="1392.0" type="curve" smooth="yes"/>
      <point x="54.0" y="1500.25976562"/>
      <point x="121.5859375" y="1568.0"/>
      <point x="229.0" y="1568.0" type="curve" smooth="yes"/>
      <point x="330.396484375" y="1568.0"/>
      <point x="381.543945312" y="1501.04003906"/>
    </contour>
    <contour>
      <point x="917.0" y="1389.0" type="curve" smooth="yes"/>
      <point x="917.0" y="1279.33984375"/>
      <point x="849.037109375" y="1209.0"/>
      <point x="743.0" y="1209.0" type="curve" smooth="yes"/>
      <point x="641.1875" y="1209.0"/>
      <point x="589.456054688" y="1278.34960938"/>
      <point x="589.456054688" y="1391.0" type="curve" smooth="yes"/>
      <point x="589.456054688" y="1499.25976562"/>
      <point x="642.482421875" y="1567.0"/>
      <point x="742.0" y="1567.0" type="curve" smooth="yes"/>
      <point x="851.807617188" y="1567.0"/>
      <point x="917.0" y="1500.04003906"/>
    </contour>
  </outline>
</glyph>
<glyph name="iacute" format="1">
  <advance width="651"/>
  <unicode hex="00ED"/>
  <outline>
    <contour>
      <point x="643" y="51" type="line"/>
      <point x="98" y="51" type="line"/>
      <point x="98" y="248" type="line"/>
      <point x="180" y="248" type="line"/>
      <point x="180" y="798" type="line"/>
      <point x="91" y="798" type="line"/>
      <point x="91" y="962" type="line"/>
      <point x="559" y="1015" type="line"/>
      <point x="559" y="248" type="line"/>
      <point x="643" y="248" type="line"/>
    </contour>
    <contour>
      <point x="574.016601562" y="1539.87988281" type="line"/>
      <point x="108.05859375" y="1276.62011719" type="line"/>
      <point x="58.0" y="1344.49023438" type="line"/>
      <point x="455.333984375" y="1710.81054688" type="line"/>
    </contour>
  </outline>
</glyph>
<glyph name="icircumflex" format="1">
  <advance width="651"/>
  <unicode hex="00EE"/>
  <outline>
    <contour>
      <point x="643" y="51" type="line"/>
      <point x="98" y="51" type="line"/>
      <point x="98" y="248" type="line"/>
      <point x="180" y="248" type="line"/>
      <point x="180" y="798" type="line"/>
      <point x="91" y="798" type="line"/>
      <point x="91" y="962" type="line"/>
      <point x="559" y="1015" type="line"/>
      <point x="559" y="248" type="line"/>
      <point x="643" y="248" type="line"/>
    </contour>
    <contour>
      <point x="481" y="1298" type="line"/>
      <point x="271" y="1549" type="line"/>
      <point x="61" y="1298" type="line"/>
      <point x="-14" y="1347" type="line"/>
      <point x="212" y="1659" type="line"/>
      <point x="329" y="1659" type="line"/>
      <point x="557" y="1347" type="line"/>
    </contour>
  </outline>
</glyph>
<glyph name="ntilde" format="1">
  <advance width="1276"/>
  <unicode hex="00F1"/>
  <outline>
    <contour>
      <point x="242.946289062" y="1479.88964844" type="curve"/>
      <point x="206.0" y="1455.58007812" type="line"/>
      <point x="270.4375" y="1339.91015625"/>
      <point x="309.6015625" y="1234.0"/>
      <point x="411.64453125" y="1234.0" type="curve" smooth="yes"/>
      <point x="492.375976562" y="1234.0"/>
      <point x="543.7578125" y="1354.0"/>
      <point x="665.64453125" y="1354.0" type="curve" smooth="yes"/>
      <point x="741.39453125" y="1354.0"/>
      <point x="788.004882812" y="1294.20996094"/>
      <point x="819.25390625" y="1259.95019531" type="curve"/>
      <point x="855.345703125" y="1283.58007812" type="line"/>
      <point x="791.077148438" y="1400.15039062"/>
      <point x="748.89453125" y="1509.0"/>
      <point x="654.64453125" y="1509.0" type="curve" smooth="yes"/>
      <point x="566.53515625" y="1509.0"/>
      <point x="525.87109375" y="1383.0"/>
      <point x="401.64453125" y="1383.0" type="curve" smooth="yes"/>
      <point x="324.564453125" y="1383.0"/>
      <point x="275.741210938" y="1444.0703125"/>
    </contour>
    <contour>
      <point x="233.0" y="92.0" type="line"/>
      <point x="233.0" y="851.0" type="line"/>
      <point x="73.0" y="851.0" type="line"/>
      <point x="73.0" y="935.0" type="line"/>
      <point x="361.0" y="984.0" type="line"/>
      <point x="361.0" y="772.0" type="line"/>
      <point x="419.0" y="908.0"/>
      <point x="592.0" y="989.0"/>
      <point x="728.0" y="989.0" type="curve" smooth="yes"/>
      <point x="912.0" y="989.0"/>
      <point x="1033.0" y="901.0"/>
      <point x="1033.0" y="659.0" type="curve" smooth="yes"/>
      <point x="1033.0" y="92.0" type="line"/>
      <point x="1225.0" y="92.0" type="line"/>
      <point x="1225.0" y="0.0" type="line"/>
      <point x="905.0" y="0.0" type="line"/>
      <point x="905.0" y="648.0" type="line" smooth="yes"/>
      <point x="905.0" y="811.0"/>
      <point x="844.0" y="893.0"/>
      <point x="696.0" y="893.0" type="curve" smooth="yes"/>
      <point x="524.0" y="893.0"/>
      <point x="361.0" y="730.0"/>
      <point x="361.0" y="645.0" type="curve" smooth="yes"/>
      <point x="361.0" y="92.0" type="line"/>
      <point x="521.0" y="92.0" type="line"/>
      <point x="521.0" y="0.0" type="line"/>
      <point x="73.0" y="0.0" type="line"/>
      <point x="73.0" y="92.0" type="line"/>
    </contour>
  </outline>
</glyph>
<glyph name="ocircumflex" format="1">
  <advance width="1066"/>
  <unicode hex="00F4"/>
  <outline>
    <contour>
      <point x="549" y="78" type="curve" smooth="yes"/>
      <point x="802" y="78"/>
      <point x="901" y="279"/>
      <point x="901" y="482" type="curve" smooth="yes"/>
      <point x="901" y="687"/>
      <point x="799" y="893"/>
      <point x="549" y="893" type="curve" smooth="yes"/>
      <point x="309" y="893"/>
      <point x="197" y="687"/>
      <point x="197" y="482" type="curve" smooth="yes"/>
      <point x="197" y="279"/>
      <point x="306" y="78"/>
    </contour>
    <contour>
      <point x="549" y="989" type="curve" smooth="yes"/>
      <point x="863" y="989"/>
      <point x="1029" y="756"/>
      <point x="1029" y="484" type="curve" smooth="yes"/>
      <point x="1029" y="213"/>
      <point x="864" y="-18"/>
      <point x="549" y="-18" type="curve" smooth="yes"/>
      <point x="233" y="-18"/>
      <point x="70" y="212"/>
      <point x="69" y="482" type="curve" smooth="yes"/>
      <point x="69" y="755"/>
      <point x="236" y="989"/>
    </contour>
    <contour>
      <point x="626" y="1235" type="line"/>
      <point x="416" y="1486" type="line"/>
      <point x="206" y="1235" type="line"/>
      <point x="131" y="1284" type="line"/>
      <point x="357" y="1596" type="line"/>
      <point x="474" y="1596" type="line"/>
      <point x="702" y="1284" type="line"/>
    </contour>
  </outline>
</glyph>
<glyph name="otilde" format="1">
  <advance width="1066"/>
  <unicode hex="00F5"/>
  <outline>
    <contour>
      <point x="124.946289062" y="1479.88964844" type="curve"/>
      <point x="88.0" y="1455.58007812" type="line"/>
      <point x="152.438476562" y="1339.91015625"/>
      <point x="191.6015625" y="1234.0"/>
      <point x="293.64453125" y="1234.0" type="curve" smooth="yes"/>
      <point x="374.375976562" y="1234.0"/>
      <point x="425.7578125" y="1354.0"/>
      <point x="547.64453125" y="1354.0" type="curve" smooth="yes"/>
      <point x="623.39453125" y="1354.0"/>
      <point x="670.004882812" y="1294.20996094"/>
      <point x="701.25390625" y="1259.95019531" type="curve"/>
      <point x="737.345703125" y="1283.58007812" type="line"/>
      <point x="673.077148438" y="1400.15039062"/>
      <point x="630.89453125" y="1509.0"/>
      <point x="536.64453125" y="1509.0" type="curve" smooth="yes"/>
      <point x="448.53515625" y="1509.0"/>
      <point x="407.87109375" y="1383.0"/>
      <point x="283.64453125" y="1383.0" type="curve" smooth="yes"/>
      <point x="206.564453125" y="1383.0"/>
      <point x="157.741210938" y="1444.0703125"/>
    </contour>
    <contour>
      <point x="549.0" y="78.0" type="curve" smooth="yes"/>
      <point x="802.0" y="78.0"/>
      <point x="901.0" y="279.0"/>
      <point x="901.0" y="482.0" type="curve" smooth="yes"/>
      <point x="901.0" y="687.0"/>
      <point x="799.0" y="893.0"/>
      <point x="549.0" y="893.0" type="curve" smooth="yes"/>
      <point x="309.0" y="893.0"/>
      <point x="197.0" y="687.0"/>
      <point x="197.0" y="482.0" type="curve" smooth="yes"/>
      <point x="197.0" y="279.0"/>
      <point x="306.0" y="78.0"/>
    </contour>
    <contour>
      <point x="549.0" y="989.0" type="curve" smooth="yes"/>
      <point x="863.0" y="989.0"/>
      <point x="1029.0" y="756.0"/>
      <point x="1029.0" y="484.0" type="curve" smooth="yes"/>
      <point x="1029.0" y="213.0"/>
      <point x="864.0" y="-18.0"/>
      <point x="549.0" y="-18.0" type="curve" smooth="yes"/>
      <point x="233.0" y="-18.0"/>
      <point x="70.0" y="212.0"/>
      <point x="69.0" y="482.0" type="curve" smooth="yes"/>
      <point x="69.0" y="755.0"/>
      <point x="236.0" y="989.0"/>
    </contour>
  </outline>
</glyph>
<glyph name="odieresis" format="1">
  <advance width="1066"/>
  <unicode hex="00F6"/>
  <outline>
    <contour>
      <point x="549" y="78" type="curve" smooth="yes"/>
      <point x="802" y="78"/>
      <point x="901" y="279"/>
      <point x="901" y="482" type="curve" smooth="yes"/>
      <point x="901" y="687"/>
      <point x="799" y="893"/>
      <point x="549" y="893" type="curve" smooth="yes"/>
      <point x="309" y="893"/>
      <point x="197" y="687"/>
      <point x="197" y="482" type="curve" smooth="yes"/>
      <point x="197" y="279"/>
      <point x="306" y="78"/>
    </contour>
    <contour>
      <point x="549" y="989" type="curve" smooth="yes"/>
      <point x="863" y="989"/>
      <point x="1029" y="756"/>
      <point x="1029" y="484" type="curve" smooth="yes"/>
      <point x="1029" y="213"/>
      <point x="864" y="-18"/>
      <point x="549" y="-18" type="curve" smooth="yes"/>
      <point x="233" y="-18"/>
      <point x="70" y="212"/>
      <point x="69" y="482" type="curve" smooth="yes"/>
      <point x="69" y="755"/>
      <point x="236" y="989"/>
    </contour>
    <contour>
      <point x="323.543945312" y="1390.0" type="curve" smooth="yes"/>
      <point x="323.543945312" y="1280.33984375"/>
      <point x="270.221679688" y="1210.0"/>
      <point x="172.0" y="1210.0" type="curve" smooth="yes"/>
      <point x="61.935546875" y="1210.0"/>
      <point x="-4.0" y="1279.34960938"/>
      <point x="-4.0" y="1392.0" type="curve" smooth="yes"/>
      <point x="-4.0" y="1500.25976562"/>
      <point x="63.5859375" y="1568.0"/>
      <point x="171.0" y="1568.0" type="curve" smooth="yes"/>
      <point x="272.396484375" y="1568.0"/>
      <point x="323.543945312" y="1501.04003906"/>
    </contour>
    <contour>
      <point x="859.0" y="1389.0" type="curve" smooth="yes"/>
      <point x="859.0" y="1279.33984375"/>
      <point x="791.037109375" y="1209.0"/>
      <point x="685.0" y="1209.0" type="curve" smooth="yes"/>
      <point x="583.1875" y="1209.0"/>
      <point x="531.456054688" y="1278.34960938"/>
      <point x="531.456054688" y="1391.0" type="curve" smooth="yes"/>
      <point x="531.456054688" y="1499.25976562"/>
      <point x="584.482421875" y="1567.0"/>
      <point x="684.0" y="1567.0" type="curve" smooth="yes"/>
      <point x="793.807617188" y="1567.0"/>
      <point x="859.0" y="1500.04003906"/>
    </contour>
  </outline>
</glyph>
<glyph name="divide" format="1">
  <advance width="642"/>
  <unicode hex="00F7"/>
  <outline>
    <contour>
      <point x="330.957000732" y="336.0" type="curve" smooth="yes"/>
      <point x="281.229003906" y="336"/>
      <point x="215.0" y="280.182006836"/>
      <point x="215.0" y="187.0" type="curve" smooth="yes"/>
      <point x="215.0" y="99.3007965088"/>
      <point x="275.299987793" y="41.7041015625"/>
      <point x="321.325012207" y="33.0" type="curve"/>
      <point x="330.957000732" y="33.0" type="line" smooth="yes"/>
      <point x="400.45098877" y="33.0"/>
      <point x="474.0" y="93.7606964111"/>
      <point x="474.0" y="187.0" type="curve" smooth="yes"/>
      <point x="474.0" y="279.32598877"/>
      <point x="403.019012451" y="336.0"/>
    </contour>
    <contour>
      <point x="330.957000732" y="1239.0" type="curve" smooth="yes"/>
      <point x="281.229003906" y="1239.0"/>
      <point x="215.0" y="1183.18005371"/>
      <point x="215.0" y="1090.0" type="curve" smooth="yes"/>
      <point x="215.0" y="1002.29998779"/>
      <point x="275.299987793" y="944.703979492"/>
      <point x="321.325012207" y="936.0" type="curve"/>
      <point x="330.957000732" y="936.0" type="line" smooth="yes"/>
      <point x="400.45098877" y="936.0"/>
      <point x="474.0" y="996.760986328"/>
      <point x="474.0" y="1090.0" type="curve" smooth="yes"/>
      <point x="474.0" y="1182.32995605"/>
      <point x="403.019012451" y="1239.0"/>
    </contour>
    <contour>
      <point x="39.0" y="589.0" type="line"/>
      <point x="609.0" y="589.0" type="line"/>
      <point x="609.0" y="710.0" type="line"/>
      <point x="39.0" y="710.0" type="line"/>
    </contour>
  </outline>
</glyph>
<glyph name="ugrave" format="1">
  <advance width="1262"/>
  <unicode hex="00F9"/>
  <outline>
    <contour>
      <point x="1065" y="971" type="line"/>
      <point x="1065" y="92" type="line"/>
      <point x="1225" y="92" type="line"/>
      <point x="1225" y="0" type="line"/>
      <point x="969" y="0" type="line"/>
      <point x="944" y="199" type="line"/>
      <point x="884.893554688" y="63"/>
      <point x="708.59375" y="-18"/>
      <point x="570.0" y="-18" type="curve" smooth="yes"/>
      <point x="386.0" y="-18"/>
      <point x="265.0" y="70"/>
      <point x="265.0" y="312" type="curve" smooth="yes"/>
      <point x="265.0" y="879" type="line"/>
      <point x="73.0" y="879" type="line"/>
      <point x="73.0" y="971" type="line"/>
      <point x="393.0" y="971" type="line"/>
      <point x="393.0" y="323" type="line" smooth="yes"/>
      <point x="393.0" y="160"/>
      <point x="454.0" y="78"/>
      <point x="602.0" y="78" type="curve" smooth="yes"/>
      <point x="774.0" y="78"/>
      <point x="937.0" y="241"/>
      <point x="937.0" y="326" type="curve" smooth="yes"/>
      <point x="937.0" y="879" type="line"/>
      <point x="777.0" y="879" type="line"/>
      <point x="777.0" y="971" type="line"/>
    </contour>
    <contour>
      <point x="376.682617188" y="1647.81054688" type="line"/>
      <point x="774.016601562" y="1281.49023438" type="line"/>
      <point x="723.958007812" y="1213.62011719" type="line"/>
      <point x="258.0" y="1476.87988281" type="line"/>
    </contour>
  </outline>
</glyph>
<glyph name="amacron" format="1">
  <advance width="1141"/>
  <unicode hex="0101"/>
  <outline>
    <contour>
      <point x="859" y="1255" type="line"/>
      <point x="213" y="1255" type="line"/>
      <point x="213" y="1479" type="line"/>
      <point x="859" y="1479" type="line"/>
    </contour>
    <contour>
      <point x="407.0" y="75.0" type="curve" smooth="yes"/>
      <point x="524" y="75"/>
      <point x="626" y="114"/>
      <point x="702" y="188" type="curve"/>
      <point x="702" y="417" type="line"/>
      <point x="613.538085938" y="442.548828125"/>
      <point x="521.008789062" y="453.0"/>
      <point x="460.0" y="453.0" type="curve" smooth="yes"/>
      <point x="234.405273438" y="453.0"/>
      <point x="195.0" y="358.552734375"/>
      <point x="195.0" y="260.0" type="curve" smooth="yes"/>
      <point x="195.0" y="179.0"/>
      <point x="248.0" y="75.0"/>
    </contour>
    <contour>
      <point x="737.0" y="0.0" type="line"/>
      <point x="738.166992188" y="0.0"/>
      <point x="709.0" y="125.0"/>
      <point x="709.0" y="125.0" type="curve"/>
      <point x="691.0" y="81.0"/>
      <point x="565.0" y="-18.0"/>
      <point x="389.0" y="-18.0" type="curve" smooth="yes"/>
      <point x="188.0" y="-18.0"/>
      <point x="71.0" y="99.0"/>
      <point x="71.0" y="261.0" type="curve" smooth="yes"/>
      <point x="71.0" y="440.295898438"/>
      <point x="234.58203125" y="533.0"/>
      <point x="417.0" y="533.0" type="curve" smooth="yes"/>
      <point x="500.8828125" y="533.0"/>
      <point x="626.202148438" y="518.700195312"/>
      <point x="702.0" y="478.0" type="curve"/>
      <point x="702.0" y="586.0" type="line" smooth="yes"/>
      <point x="702.0" y="790.51171875"/>
      <point x="671.873046875" y="898.0"/>
      <point x="464.0" y="898.0" type="curve" smooth="yes"/>
      <point x="278.139648438" y="898.0"/>
      <point x="181.869140625" y="844.862304688"/>
      <point x="152.0" y="829.241210938" type="curve"/>
      <point x="144.0" y="832.799804688" type="line"/>
      <point x="144.0" y="926.0" type="line"/>
      <point x="214.0" y="959.8125"/>
      <point x="338.0" y="989.0"/>
      <point x="466.0" y="989.0" type="curve" smooth="yes"/>
      <point x="679.0" y="989.0"/>
      <point x="846.0" y="901.0"/>
      <point x="846.0" y="584.0" type="curve" smooth="yes"/>
      <point x="846.0" y="93.0" type="line"/>
      <point x="1007.0" y="93.0" type="line"/>
      <point x="1007.0" y="0.0" type="line"/>
    </contour>
  </outline>
</glyph>
<glyph name="abreve" format="1">
  <advance width="1141"/>
  <unicode hex="0103"/>
  <outline>
    <contour>
      <point x="629.334960938" y="1507" type="line"/>
      <point x="609.185546875" y="1412.88964844"/>
      <point x="533.975585938" y="1346.0"/>
      <point x="482.485351562" y="1346.0" type="curve" smooth="yes"/>
      <point x="431.662109375" y="1346.0"/>
      <point x="356.505859375" y="1410.8203125"/>
      <point x="335.775390625" y="1506.0" type="curve"/>
      <point x="183.0" y="1506.0" type="line"/>
      <point x="200.953125" y="1330.37988281"/>
      <point x="307.940429688" y="1237.93945312"/>
      <point x="471.30078125" y="1231.3203125" type="curve"/>
      <point x="472.163085938" y="1233.0" type="line"/>
      <point x="482.998046875" y="1233.0" type="line" smooth="yes"/>
      <point x="645.228515625" y="1233.0"/>
      <point x="762.526367188" y="1326.25"/>
      <point x="781.920898438" y="1507.0" type="curve"/>
    </contour>
    <contour>
      <point x="407.0" y="75.0" type="curve" smooth="yes"/>
      <point x="524.0" y="75.0"/>
      <point x="626.0" y="114.0"/>
      <point x="702.0" y="188.0" type="curve"/>
      <point x="702.0" y="417.0" type="line"/>
      <point x="613.538085938" y="442.548828125"/>
      <point x="521.008789062" y="453.0"/>
      <point x="460.0" y="453.0" type="curve" smooth="yes"/>
      <point x="234.405273438" y="453.0"/>
      <point x="195.0" y="358.552734375"/>
      <point x="195.0" y="260.0" type="curve" smooth="yes"/>
      <point x="195.0" y="179.0"/>
      <point x="248.0" y="75.0"/>
    </contour>
    <contour>
      <point x="737.0" y="0.0" type="line"/>
      <point x="738.166992188" y="0.0"/>
      <point x="709.0" y="125.0"/>
      <point x="709.0" y="125.0" type="curve"/>
      <point x="691.0" y="81.0"/>
      <point x="565.0" y="-18.0"/>
      <point x="389.0" y="-18.0" type="curve" smooth="yes"/>
      <point x="188.0" y="-18.0"/>
      <point x="71.0" y="99.0"/>
      <point x="71.0" y="261.0" type="curve" smooth="yes"/>
      <point x="71.0" y="440.295898438"/>
      <point x="234.58203125" y="533.0"/>
      <point x="417.0" y="533.0" type="curve" smooth="yes"/>
      <point x="500.8828125" y="533.0"/>
      <point x="626.202148438" y="518.700195312"/>
      <point x="702.0" y="478.0" type="curve"/>
      <point x="702.0" y="586.0" type="line" smooth="yes"/>
      <point x="702.0" y="790.51171875"/>
      <point x="671.873046875" y="898.0"/>
      <point x="464.0" y="898.0" type="curve" smooth="yes"/>
      <point x="278.139648438" y="898.0"/>
      <point x="181.869140625" y="844.862304688"/>
      <point x="152.0" y="829.241210938" type="curve"/>
      <point x="144.0" y="832.799804688" type="line"/>
      <point x="144.0" y="926.0" type="line"/>
      <point x="214.0" y="959.8125"/>
      <point x="338.0" y="989.0"/>
      <point x="466.0" y="989.0" type="curve" smooth="yes"/>
      <point x="679.0" y="989.0"/>
      <point x="846.0" y="901.0"/>
      <point x="846.0" y="584.0" type="curve" smooth="yes"/>
      <point x="846.0" y="93.0" type="line"/>
      <point x="1007.0" y="93.0" type="line"/>
      <point x="1007.0" y="0.0" type="line"/>
    </contour>
  </outline>
</glyph>
<glyph name="Aogonek" format="1">
  <advance width="1588"/>
  <unicode hex="0104"/>
  <outline>
    <contour>
      <point x="1102.890625" y="-244.799804688" type="curve" smooth="yes"/>
      <point x="1087.74707031" y="-269.317382812"/>
      <point x="1086.0" y="-269.005859375"/>
      <point x="1086.0" y="-288.0" type="curve" smooth="yes"/>
      <point x="1086.0" y="-368.637695312"/>
      <point x="1218.10546875" y="-428.84765625"/>
      <point x="1373.0" y="-436.276367188" type="curve"/>
      <point x="1373.0" y="-423.107421875" type="line"/>
      <point x="1296.45019531" y="-415.26953125"/>
      <point x="1186.0" y="-384.725585938"/>
      <point x="1186.0" y="-273.0" type="curve" smooth="yes"/>
      <point x="1186.0" y="-189.857421875"/>
      <point x="1257.83398438" y="-110.443359375"/>
      <point x="1291.24316406" y="-51.0" type="curve"/>
      <point x="1227.85351562" y="-51.0" type="line"/>
      <point x="1182.93554688" y="-120.596679688"/>
      <point x="1142.44921875" y="-180.752929688"/>
    </contour>
    <contour>
      <point x="933.0" y="303.0" type="line"/>
      <point x="808.0" y="303.0" type="line"/>
      <point x="808.0" y="51.0" type="line"/>
      <point x="1486.0" y="51.0" type="line"/>
      <point x="1486.0" y="303.0" type="line"/>
      <point x="1371.0" y="303.0" type="line"/>
      <point x="1067.0" y="1542.0" type="line"/>
      <point x="247.0" y="1542.0" type="line"/>
      <point x="247.0" y="1291.0" type="line"/>
      <point x="458.0" y="1291.0" type="line"/>
      <point x="205.0" y="303.0" type="line"/>
      <point x="60.0" y="303.0" type="line"/>
      <point x="60.0" y="51.0" type="line"/>
      <point x="604.0" y="51.0" type="line"/>
      <point x="604.0" y="303.0" type="line"/>
      <point x="467.0" y="303.0" type="line"/>
      <point x="506.0" y="574.0" type="line"/>
      <point x="872.0" y="574.0" type="line"/>
    </contour>
    <contour>
      <point x="851.0" y="712.0" type="line"/>
      <point x="529.0" y="712.0" type="line"/>
      <point x="686.0" y="1474.0" type="line"/>
    </contour>
  </outline>
</glyph>
<glyph name="Ccircumflex" format="1">
  <advance width="1352"/>
  <unicode hex="0108"/>
  <outline>
    <contour>
      <point x="818" y="1819" type="line"/>
      <point x="608" y="2070" type="line"/>
      <point x="398" y="1819" type="line"/>
      <point x="323" y="1868" type="line"/>
      <point x="549" y="2180" type="line"/>
      <point x="666" y="2180" type="line"/>
      <point x="894" y="1868" type="line"/>
    </contour>
    <contour>
      <point x="853" y="342" type="curve" smooth="yes"/>
      <point x="610" y="342"/>
      <point x="519" y="603"/>
      <point x="519" y="846" type="curve" smooth="yes"/>
      <point x="519" y="1033"/>
      <point x="582" y="1311"/>
      <point x="786" y="1311" type="curve" smooth="yes"/>
      <point x="945" y="1311"/>
      <point x="1028" y="1172"/>
      <point x="1040" y="1013" type="curve"/>
      <point x="1238" y="1013" type="line"/>
      <point x="1238" y="1543" type="line"/>
      <point x="1034" y="1543" type="line"/>
      <point x="984" y="1391" type="line"/>
      <point x="933" y="1460" type="line" smooth="yes"/>
      <point x="876" y="1537"/>
      <point x="781" y="1572"/>
      <point x="635" y="1572" type="curve" smooth="yes"/>
      <point x="253" y="1572"/>
      <point x="52" y="1261"/>
      <point x="52" y="805" type="curve" smooth="yes"/>
      <point x="52" y="326"/>
      <point x="324" y="24"/>
      <point x="730" y="24" type="curve" smooth="yes"/>
      <point x="907" y="24"/>
      <point x="1061" y="81"/>
      <point x="1208" y="163" type="curve"/>
      <point x="1208" y="456" type="line"/>
      <point x="1111" y="390"/>
      <point x="982" y="342"/>
    </contour>
  </outline>
</glyph>
<glyph name="ccaron" format="1">
  <advance width="962"/>
  <unicode hex="010D"/>
  <outline>
    <contour>
      <point x="88" y="1599" type="line"/>
      <point x="298" y="1348" type="line"/>
      <point x="508" y="1599" type="line"/>
      <point x="584" y="1550" type="line"/>
      <point x="356" y="1238" type="line"/>
      <point x="239" y="1238" type="line"/>
      <point x="13" y="1550" type="line"/>
    </contour>
    <contour>
      <point x="573.0" y="77.0" type="curve" smooth="yes"/>
      <point x="360.40625" y="77"/>
      <point x="215.0" y="212.30078125"/>
      <point x="215.0" y="493.0" type="curve" smooth="yes"/>
      <point x="215.0" y="757.0"/>
      <point x="379.0" y="890.0"/>
      <point x="568.0" y="890.0" type="curve" smooth="yes"/>
      <point x="735.0" y="890.0"/>
      <point x="828.0" y="755.0"/>
      <point x="828.0" y="663.0" type="curve"/>
      <point x="933.0" y="663.0" type="line"/>
      <point x="933.0" y="961.0" type="line"/>
      <point x="874.0" y="961.0" type="line"/>
      <point x="850.0" y="816.0" type="line"/>
      <point x="781.0" y="952.0"/>
      <point x="625.0" y="989.0"/>
      <point x="541.0" y="989.0" type="curve" smooth="yes"/>
      <point x="299.0" y="989.0"/>
      <point x="69.0" y="795.0"/>
      <point x="69.0" y="495.0" type="curve" smooth="yes"/>
      <point x="69.0" y="162.0"/>
      <point x="288.0" y="-18.0"/>
      <point x="559.0" y="-18.0" type="curve" smooth="yes"/>
      <point x="755.448242188" y="-18.0"/>
      <point x="876.109375" y="50.8974609375"/>
      <point x="915.0" y="79.0" type="curve"/>
      <point x="915.0" y="177.0" type="line"/>
      <point x="905.0" y="179.0" type="line"/>
      <point x="837.772460938" y="132.190429688"/>
      <point x="740.551757812" y="77.0"/>
    </contour>
  </outline>
</glyph>
<glyph name="Eogonek" format="1">
  <advance width="1257"/>
  <unicode hex="0118"/>
  <outline>
    <contour>
      <point x="497.890625" y="-244.799804688" type="curve" smooth="yes"/>
      <point x="482.747070312" y="-269.317382812"/>
      <point x="481.0" y="-269.005859375"/>
      <point x="481.0" y="-288.0" type="curve" smooth="yes"/>
      <point x="481.0" y="-368.637695312"/>
      <point x="613.10546875" y="-428.84765625"/>
      <point x="768.0" y="-436.276367188" type="curve"/>
      <point x="768.0" y="-423.107421875" type="line"/>
      <point x="691.450195312" y="-415.26953125"/>
      <point x="581.0" y="-384.725585938"/>
      <point x="581.0" y="-273.0" type="curve" smooth="yes"/>
      <point x="581.0" y="-189.857421875"/>
      <point x="652.833984375" y="-110.443359375"/>
      <point x="686.243164062" y="-51.0" type="curve"/>
      <point x="622.853515625" y="-51.0" type="line"/>
      <point x="577.934570312" y="-120.596679688"/>
      <point x="537.44921875" y="-180.752929688"/>
    </contour>
    <contour>
      <point x="617.0" y="1291.0" type="line"/>
      <point x="617.0" y="927.0" type="line"/>
      <point x="791.0" y="927.0" type="line"/>
      <point x="791.0" y="767.0" type="line"/>
      <point x="617.0" y="767.0" type="line"/>
      <point x="617.0" y="359.0" type="line"/>
      <point x="880.0" y="359.0" type="line"/>
      <point x="955.0" y="677.0" type="line"/>
      <point x="1137.0" y="677.0" type="line"/>
      <point x="1137.0" y="102.0" type="line"/>
      <point x="62.0" y="102.0" type="line"/>
      <point x="62.0" y="359.0" type="line"/>
      <point x="220.0" y="359.0" type="line"/>
      <point x="220.0" y="1291.0" type="line"/>
      <point x="62.0" y="1291.0" type="line"/>
      <point x="62.0" y="1542.0" type="line"/>
      <point x="1126.0" y="1542.0" type="line"/>
      <point x="1126.0" y="1010.0" type="line"/>
      <point x="948.0" y="1010.0" type="line"/>
      <point x="875.0" y="1291.0" type="line"/>
    </contour>
  </outline>
</glyph>
<glyph name="Gcedilla" format="1">
  <advance width="1530"/>
  <unicode hex="0122"/>
  <outline>
    <contour>
      <point x="869" y="-51" type="line"/>
      <point x="792" y="-51" type="line"/>
      <point x="792" y="-90.623046875" type="line"/>
      <point x="839.853515625" y="-123.750976562"/>
      <point x="902.0" y="-185.041992188"/>
      <point x="902.0" y="-272.0" type="curve" smooth="yes"/>
      <point x="902.0" y="-383.092773438"/>
      <point x="792.618164062" y="-414.016601562"/>
      <point x="715.0" y="-422.059570312" type="curve"/>
      <point x="715.0" y="-435.263671875" type="line"/>
      <point x="867.409179688" y="-427.891601562"/>
      <point x="1002.0" y="-367.639648438"/>
      <point x="1002.0" y="-287.0" type="curve" smooth="yes"/>
      <point x="1002.0" y="-256.19140625"/>
      <point x="978.31640625" y="-214.061523438"/>
      <point x="894.697265625" y="-166.280273438" type="curve" smooth="yes"/>
      <point x="869.0" y="-151.596679688" type="line"/>
    </contour>
    <contour>
      <point x="826.0" y="22.0" type="curve" smooth="yes"/>
      <point x="1042.0" y="22.0"/>
      <point x="1241.0" y="83.0"/>
      <point x="1415.0" y="171.0" type="curve"/>
      <point x="1415.0" y="811.0" type="line"/>
      <point x="921.0" y="811.0" type="line"/>
      <point x="921.0" y="609.0" type="line"/>
      <point x="1071.0" y="609.0" type="line"/>
      <point x="1071.0" y="382.0" type="line"/>
      <point x="1043.0" y="369.0" type="line" smooth="yes"/>
      <point x="992.0" y="345.0"/>
      <point x="929.0" y="327.0"/>
      <point x="856.0" y="327.0" type="curve" smooth="yes"/>
      <point x="624.0" y="327.0"/>
      <point x="522.0" y="572.0"/>
      <point x="522.0" y="801.0" type="curve" smooth="yes"/>
      <point x="522.0" y="1048.0"/>
      <point x="605.0" y="1311.0"/>
      <point x="857.0" y="1311.0" type="curve" smooth="yes"/>
      <point x="1015.0" y="1311.0"/>
      <point x="1094.0" y="1172.0"/>
      <point x="1128.0" y="1044.0" type="curve"/>
      <point x="1341.0" y="1044.0" type="line"/>
      <point x="1341.0" y="1542.0" type="line"/>
      <point x="1093.0" y="1542.0" type="line"/>
      <point x="1048.0" y="1381.0" type="line"/>
      <point x="994.0" y="1452.0" type="line" smooth="yes"/>
      <point x="938.0" y="1527.0"/>
      <point x="868.0" y="1571.0"/>
      <point x="749.0" y="1571.0" type="curve" smooth="yes"/>
      <point x="323.0" y="1571.0"/>
      <point x="51.0" y="1272.0"/>
      <point x="51.0" y="792.0" type="curve" smooth="yes"/>
      <point x="51.0" y="286.0"/>
      <point x="364.0" y="22.0"/>
    </contour>
  </outline>
</glyph>
<glyph name="itilde" format="1">
  <advance width="651"/>
  <unicode hex="0129"/>
  <outline>
    <contour>
      <point x="-20.0537109375" y="1542.88964844" type="curve"/>
      <point x="-57.0" y="1518.58007812" type="line"/>
      <point x="7.4384765625" y="1402.91015625"/>
      <point x="46.6015625" y="1297.0"/>
      <point x="148.64453125" y="1297.0" type="curve" smooth="yes"/>
      <point x="229.375976562" y="1297.0"/>
      <point x="280.7578125" y="1417.0"/>
      <point x="402.64453125" y="1417.0" type="curve" smooth="yes"/>
      <point x="478.39453125" y="1417.0"/>
      <point x="525.004882812" y="1357.20996094"/>
      <point x="556.25390625" y="1322.95019531" type="curve"/>
      <point x="592.345703125" y="1346.58007812" type="line"/>
      <point x="528.077148438" y="1463.15039062"/>
      <point x="485.89453125" y="1572.0"/>
      <point x="391.64453125" y="1572.0" type="curve" smooth="yes"/>
      <point x="303.53515625" y="1572.0"/>
      <point x="262.87109375" y="1446.0"/>
      <point x="138.64453125" y="1446.0" type="curve" smooth="yes"/>
      <point x="61.564453125" y="1446.0"/>
      <point x="12.7412109375" y="1507.0703125"/>
    </contour>
    <contour>
      <point x="643.0" y="51.0" type="line"/>
      <point x="98.0" y="51.0" type="line"/>
      <point x="98.0" y="248.0" type="line"/>
      <point x="180.0" y="248.0" type="line"/>
      <point x="180.0" y="798.0" type="line"/>
      <point x="91.0" y="798.0" type="line"/>
      <point x="91.0" y="962.0" type="line"/>
      <point x="559.0" y="1015.0" type="line"/>
      <point x="559.0" y="248.0" type="line"/>
      <point x="643.0" y="248.0" type="line"/>
    </contour>
  </outline>
</glyph>
<glyph name="Imacron" format="1">
  <advance width="736"/>
  <unicode hex="012A"/>
  <outline>
    <contour>
      <point x="640" y="1839" type="line"/>
      <point x="-6" y="1839" type="line"/>
      <point x="-6" y="2063" type="line"/>
      <point x="640" y="2063" type="line"/>
    </contour>
    <contour>
      <point x="595" y="359" type="line"/>
      <point x="736" y="359" type="line"/>
      <point x="736" y="102" type="line"/>
      <point x="78" y="102" type="line"/>
      <point x="78" y="359" type="line"/>
      <point x="225" y="359" type="line"/>
      <point x="225" y="1342" type="line"/>
      <point x="82" y="1342" type="line"/>
      <point x="82" y="1593" type="line"/>
      <point x="742" y="1593" type="line"/>
      <point x="742" y="1342" type="line"/>
      <point x="595" y="1342" type="line"/>
    </contour>
  </outline>
</glyph>
<glyph name="dotlessi" format="1">
  <advance width="700"/>
  <unicode hex="0131"/>
  <outline>
    <contour>
      <point x="631" y="51" type="line"/>
      <point x="86" y="51" type="line"/>
      <point x="86" y="248" type="line"/>
      <point x="168" y="248" type="line"/>
      <point x="168" y="798" type="line"/>
      <point x="79" y="798" type="line"/>
      <point x="79" y="962" type="line"/>
      <point x="547" y="1015" type="line"/>
      <point x="547" y="248" type="line"/>
      <point x="631" y="248" type="line"/>
    </contour>
  </outline>
</glyph>
<glyph name="kgreenlandic" format="1">
  <advance width="1303"/>
  <unicode hex="0138"/>
  <outline>
    <contour>
      <point x="1225" y="250" type="line"/>
      <point x="1095" y="250" type="line"/>
      <point x="865" y="582" type="line"/>
      <point x="891" y="613" type="line" smooth="yes"/>
      <point x="938" y="669"/>
      <point x="995" y="739"/>
      <point x="1050" y="796" type="curve" smooth="yes"/>
      <point x="1065" y="812" type="line"/>
      <point x="1207" y="812" type="line"/>
      <point x="1207" y="1021" type="line"/>
      <point x="716" y="1021" type="line"/>
      <point x="716" y="812" type="line"/>
      <point x="856" y="812" type="line"/>
      <point x="596" y="492" type="line"/>
      <point x="850" y="51" type="line"/>
      <point x="1225" y="51" type="line"/>
    </contour>
    <contour>
      <point x="184" y="785" type="line"/>
      <point x="184" y="250" type="line"/>
      <point x="81" y="250" type="line"/>
      <point x="81" y="51" type="line"/>
      <point x="536" y="51" type="line"/>
      <point x="536" y="1015" type="line"/>
      <point x="80" y="961" type="line"/>
      <point x="80" y="785" type="line"/>
    </contour>
  </outline>
</glyph>
<glyph name="Lslash" format="1">
  <advance width="1239"/>
  <unicode hex="0141"/>
  <outline>
    <contour>
      <point x="825" y="1051" type="line"/>
      <point x="782" y="1141" type="line"/>
      <point x="649" y="1051" type="line"/>
      <point x="649" y="1372" type="line"/>
      <point x="781" y="1372" type="line"/>
      <point x="781" y="1622" type="line"/>
      <point x="93" y="1622" type="line"/>
      <point x="93" y="1372" type="line"/>
      <point x="240" y="1372" type="line"/>
      <point x="240" y="781" type="line"/>
      <point x="80" y="688" type="line"/>
      <point x="130" y="599" type="line"/>
      <point x="240" y="663" type="line"/>
      <point x="240" y="359" type="line"/>
      <point x="97" y="359" type="line"/>
      <point x="98" y="102" type="line"/>
      <point x="1167" y="102" type="line"/>
      <point x="1167" y="709" type="line"/>
      <point x="972" y="709" type="line"/>
      <point x="890" y="359" type="line"/>
      <point x="649" y="359" type="line"/>
      <point x="649" y="932" type="line"/>
    </contour>
  </outline>
</glyph>
<glyph name="Nacute" format="1">
  <advance width="1683"/>
  <unicode hex="0143"/>
  <outline>
    <contour>
      <point x="1081.01757812" y="2060.87988281" type="line"/>
      <point x="615.05859375" y="1797.62011719" type="line"/>
      <point x="565.0" y="1865.49023438" type="line"/>
      <point x="962.333984375" y="2231.81054688" type="line"/>
    </contour>
    <contour>
      <point x="930.0" y="102.0" type="line"/>
      <point x="1415.0" y="102.0" type="line"/>
      <point x="1415.0" y="1342.0" type="line"/>
      <point x="1573.0" y="1342.0" type="line"/>
      <point x="1573.0" y="1592.0" type="line"/>
      <point x="1064.0" y="1592.0" type="line"/>
      <point x="1064.0" y="1342.0" type="line"/>
      <point x="1208.0" y="1342.0" type="line"/>
      <point x="1208.0" y="491.0" type="line"/>
      <point x="683.0" y="1593.0" type="line"/>
      <point x="67.0" y="1593.0" type="line"/>
      <point x="67.0" y="1344.0" type="line"/>
      <point x="224.0" y="1344.0" type="line"/>
      <point x="224.0" y="362.0" type="line"/>
      <point x="176.0" y="360.0" type="line" smooth="yes"/>
      <point x="163.0" y="359.0"/>
      <point x="147.0" y="359.0"/>
      <point x="130.0" y="359.0" type="curve" smooth="yes"/>
      <point x="61.0" y="359.0" type="line"/>
      <point x="61.0" y="102.0" type="line"/>
      <point x="570.0" y="102.0" type="line"/>
      <point x="570.0" y="359.0" type="line"/>
      <point x="548.0" y="359.0"/>
      <point x="526.0" y="360.0"/>
      <point x="506.0" y="360.0" type="curve" smooth="yes"/>
      <point x="426.0" y="360.0" type="line"/>
      <point x="426.0" y="1131.0" type="line"/>
    </contour>
  </outline>
</glyph>
<glyph name="nacute" format="1">
  <advance width="1368"/>
  <unicode hex="0144"/>
  <outline>
    <contour>
      <point x="218" y="92" type="line"/>
      <point x="218" y="851" type="line"/>
      <point x="58" y="851" type="line"/>
      <point x="58" y="935" type="line"/>
      <point x="346" y="984" type="line"/>
      <point x="346" y="772" type="line"/>
      <point x="404" y="908"/>
      <point x="577" y="989"/>
      <point x="713" y="989" type="curve" smooth="yes"/>
      <point x="897" y="989"/>
      <point x="1018" y="901"/>
      <point x="1018" y="659" type="curve" smooth="yes"/>
      <point x="1018" y="92" type="line"/>
      <point x="1210" y="92" type="line"/>
      <point x="1210" y="0" type="line"/>
      <point x="890" y="0" type="line"/>
      <point x="890" y="648" type="line" smooth="yes"/>
      <point x="890" y="811"/>
      <point x="829" y="893"/>
      <point x="681" y="893" type="curve" smooth="yes"/>
      <point x="509" y="893"/>
      <point x="346" y="730"/>
      <point x="346" y="645" type="curve" smooth="yes"/>
      <point x="346" y="92" type="line"/>
      <point x="506" y="92" type="line"/>
      <point x="506" y="0" type="line"/>
      <point x="58" y="0" type="line"/>
      <point x="58" y="92" type="line"/>
    </contour>
    <contour>
      <point x="924.016601562" y="1476.87988281" type="line"/>
      <point x="458.05859375" y="1213.62011719" type="line"/>
      <point x="408.0" y="1281.49023438" type="line"/>
      <point x="805.333984375" y="1647.81054688" type="line"/>
    </contour>
  </outline>
</glyph>
<glyph name="rcommaaccent" format="1">
  <advance width="879"/>
  <unicode hex="0157"/>
  <outline>
    <contour>
      <point x="784" y="1036" type="line"/>
      <point x="687" y="1018"/>
      <point x="604" y="955"/>
      <point x="565" y="890" type="curve"/>
      <point x="492" y="735" type="line"/>
      <point x="492" y="1036" type="line"/>
      <point x="71" y="986" type="line"/>
      <point x="71" y="812" type="line"/>
      <point x="188" y="812" type="line"/>
      <point x="188" y="250" type="line"/>
      <point x="72" y="250" type="line"/>
      <point x="72" y="51" type="line"/>
      <point x="589" y="51" type="line"/>
      <point x="589" y="250" type="line"/>
      <point x="479" y="250" type="line"/>
      <point x="479" y="426" type="line" smooth="yes"/>
      <point x="479" y="588"/>
      <point x="534" y="735"/>
      <point x="718" y="735" type="curve" smooth="yes"/>
      <point x="741" y="735"/>
      <point x="762" y="733"/>
      <point x="784" y="730" type="curve"/>
    </contour>
    <contour>
      <point x="399.125" y="-907.818359375" type="line"/>
      <point x="704.669921875" y="-892.994140625"/>
      <point x="832.125" y="-755.15625"/>
      <point x="832.125" y="-424.0" type="curve" smooth="yes"/>
      <point x="832.125" y="-356.915039062"/>
      <point x="826.6875" y="-283.5625"/>
      <point x="815.028320312" y="-198.0" type="curve"/>
      <point x="400.125" y="-198.0" type="line"/>
      <point x="400.125" y="-462.0" type="line"/>
      <point x="589.125" y="-462.0" type="line"/>
      <point x="589.125" y="-550.5" type="line" smooth="yes"/>
      <point x="589.125" y="-687.120117188"/>
      <point x="527.349609375" y="-770.83984375"/>
      <point x="399.125" y="-784.506835938" type="curve"/>
    </contour>
    <contour>
      <point x="399.125" y="-681.380859375" type="line"/>
      <point x="296.484375" y="-787.0" type="line"/>
      <point x="224.0" y="-787.0" type="line"/>
      <point x="399.125" y="-611.875" type="line"/>
    </contour>
  </outline>
</glyph>
<glyph name="Sacute" format="1">
  <advance width="1114"/>
  <unicode hex="015A"/>
  <outline>
    <contour>
      <point x="745.016601562" y="2060.87988281" type="line"/>
      <point x="279.05859375" y="1797.62011719" type="line"/>
      <point x="229.0" y="1865.49023438" type="line"/>
      <point x="626.333984375" y="2231.81054688" type="line"/>
    </contour>
    <contour>
      <point x="582.0" y="587.0" type="curve" smooth="yes"/>
      <point x="623.0" y="574.0"/>
      <point x="749.0" y="553.0"/>
      <point x="749.0" y="420.0" type="curve" smooth="yes"/>
      <point x="749.0" y="305.0"/>
      <point x="642.0" y="283.0"/>
      <point x="588.0" y="283.0" type="curve" smooth="yes"/>
      <point x="473.0" y="283.0"/>
      <point x="388.0" y="332.0"/>
      <point x="345.0" y="437.0" type="curve"/>
      <point x="112.0" y="437.0" type="line"/>
      <point x="112.0" y="51.0" type="line"/>
      <point x="345.0" y="51.0" type="line"/>
      <point x="386.0" y="175.0" type="line"/>
      <point x="431.0" y="132.0" type="line" smooth="yes"/>
      <point x="507.0" y="62.0"/>
      <point x="568.0" y="22.0"/>
      <point x="701.0" y="22.0" type="curve" smooth="yes"/>
      <point x="950.0" y="22.0"/>
      <point x="1125.0" y="214.0"/>
      <point x="1125.0" y="501.0" type="curve" smooth="yes"/>
      <point x="1125.0" y="879.0"/>
      <point x="850.0" y="943.0"/>
      <point x="568.0" y="1032.0" type="curve" smooth="yes"/>
      <point x="532.0" y="1043.0"/>
      <point x="422.0" y="1069.0"/>
      <point x="422.0" y="1183.0" type="curve" smooth="yes"/>
      <point x="422.0" y="1286.0"/>
      <point x="496.0" y="1326.0"/>
      <point x="564.0" y="1326.0" type="curve" smooth="yes"/>
      <point x="693.0" y="1326.0"/>
      <point x="765.0" y="1266.0"/>
      <point x="815.0" y="1168.0" type="curve"/>
      <point x="1029.0" y="1168.0" type="line"/>
      <point x="1029.0" y="1542.0" type="line"/>
      <point x="833.0" y="1542.0" type="line"/>
      <point x="826.0" y="1529.0"/>
      <point x="822.0" y="1519.0"/>
      <point x="821.0" y="1516.0" type="curve" smooth="yes"/>
      <point x="804.0" y="1456.0" type="line"/>
      <point x="758.0" y="1490.0" type="line" smooth="yes"/>
      <point x="684.0" y="1543.0"/>
      <point x="584.0" y="1572.0"/>
      <point x="455.0" y="1572.0" type="curve" smooth="yes"/>
      <point x="238.0" y="1572.0"/>
      <point x="75.0" y="1387.0"/>
      <point x="75.0" y="1133.0" type="curve" smooth="yes"/>
      <point x="75.0" y="769.0"/>
      <point x="316.0" y="674.0"/>
    </contour>
  </outline>
</glyph>
<glyph name="sacute" format="1">
  <advance width="928"/>
  <unicode hex="015B"/>
  <outline>
    <contour>
      <point x="530" y="941" type="curve" smooth="yes"/>
      <point x="614" y="941"/>
      <point x="663" y="866"/>
      <point x="692" y="803" type="curve"/>
      <point x="818" y="803" type="line"/>
      <point x="818" y="1021" type="line"/>
      <point x="728" y="1021" type="line"/>
      <point x="695" y="928" type="line"/>
      <point x="641" y="962" type="line"/>
      <point x="580" y="1008"/>
      <point x="512" y="1040"/>
      <point x="426" y="1040" type="curve" smooth="yes"/>
      <point x="244" y="1040"/>
      <point x="51" y="938"/>
      <point x="51" y="755" type="curve" smooth="yes"/>
      <point x="51" y="543"/>
      <point x="274" y="498"/>
      <point x="411" y="401" type="curve" smooth="yes"/>
      <point x="433" y="385"/>
      <point x="490" y="350"/>
      <point x="490" y="268" type="curve" smooth="yes"/>
      <point x="490" y="195"/>
      <point x="446" y="147"/>
      <point x="396" y="147" type="curve" smooth="yes"/>
      <point x="298" y="147"/>
      <point x="224" y="251"/>
      <point x="196" y="345" type="curve"/>
      <point x="50" y="345" type="line"/>
      <point x="50" y="51" type="line"/>
      <point x="149" y="51" type="line"/>
      <point x="193" y="169" type="line"/>
      <point x="247" y="132" type="line"/>
      <point x="325" y="72"/>
      <point x="407" y="33"/>
      <point x="514" y="33" type="curve" smooth="yes"/>
      <point x="706" y="33"/>
      <point x="869" y="149"/>
      <point x="869" y="358" type="curve" smooth="yes"/>
      <point x="869" y="588"/>
      <point x="672" y="624"/>
      <point x="519" y="719" type="curve" smooth="yes"/>
      <point x="499" y="731"/>
      <point x="435" y="760"/>
      <point x="435" y="843" type="curve" smooth="yes"/>
      <point x="435" y="923"/>
      <point x="496" y="941"/>
    </contour>
    <contour>
      <point x="710.016601562" y="1476.87988281" type="line"/>
      <point x="244.05859375" y="1213.62011719" type="line"/>
      <point x="194.0" y="1281.49023438" type="line"/>
      <point x="591.333984375" y="1647.81054688" type="line"/>
    </contour>
  </outline>
</glyph>
<glyph name="Scaron" format="1">
  <advance width="1114"/>
  <unicode hex="0160"/>
  <outline>
    <contour>
      <point x="218" y="2183" type="line"/>
      <point x="428" y="1932" type="line"/>
      <point x="638" y="2183" type="line"/>
      <point x="714" y="2134" type="line"/>
      <point x="486" y="1822" type="line"/>
      <point x="369" y="1822" type="line"/>
      <point x="143" y="2134" type="line"/>
    </contour>
    <contour>
      <point x="582" y="587" type="curve" smooth="yes"/>
      <point x="623" y="574"/>
      <point x="749" y="553"/>
      <point x="749" y="420" type="curve" smooth="yes"/>
      <point x="749" y="305"/>
      <point x="642" y="283"/>
      <point x="588" y="283" type="curve" smooth="yes"/>
      <point x="473" y="283"/>
      <point x="388" y="332"/>
      <point x="345" y="437" type="curve"/>
      <point x="112" y="437" type="line"/>
      <point x="112" y="51" type="line"/>
      <point x="345" y="51" type="line"/>
      <point x="386" y="175" type="line"/>
      <point x="431" y="132" type="line" smooth="yes"/>
      <point x="507" y="62"/>
      <point x="568" y="22"/>
      <point x="701" y="22" type="curve" smooth="yes"/>
      <point x="950" y="22"/>
      <point x="1125" y="214"/>
      <point x="1125" y="501" type="curve" smooth="yes"/>
      <point x="1125" y="879"/>
      <point x="850" y="943"/>
      <point x="568" y="1032" type="curve" smooth="yes"/>
      <point x="532" y="1043"/>
      <point x="422" y="1069"/>
      <point x="422" y="1183" type="curve" smooth="yes"/>
      <point x="422" y="1286"/>
      <point x="496" y="1326"/>
      <point x="564" y="1326" type="curve" smooth="yes"/>
      <point x="693" y="1326"/>
      <point x="765" y="1266"/>
      <point x="815" y="1168" type="curve"/>
      <point x="1029" y="1168" type="line"/>
      <point x="1029" y="1542" type="line"/>
      <point x="833" y="1542" type="line"/>
      <point x="826" y="1529"/>
      <point x="822" y="1519"/>
      <point x="821" y="1516" type="curve" smooth="yes"/>
      <point x="804" y="1456" type="line"/>
      <point x="758" y="1490" type="line" smooth="yes"/>
      <point x="684" y="1543"/>
      <point x="584" y="1572"/>
      <point x="455" y="1572" type="curve" smooth="yes"/>
      <point x="238" y="1572"/>
      <point x="75" y="1387"/>
      <point x="75" y="1133" type="curve" smooth="yes"/>
      <point x="75" y="769"/>
      <point x="316" y="674"/>
    </contour>
  </outline>
</glyph>
<glyph name="tcommaaccent" format="1">
  <advance width="768"/>
  <unicode hex="0163"/>
  <outline>
    <contour>
      <point x="608" y="334" type="curve" smooth="yes"/>
      <point x="513" y="334"/>
      <point x="459" y="404"/>
      <point x="459" y="489" type="curve" smooth="yes"/>
      <point x="459" y="881" type="line"/>
      <point x="632" y="881" type="line"/>
      <point x="632" y="1072" type="line"/>
      <point x="459" y="1072" type="line"/>
      <point x="459" y="1394" type="line"/>
      <point x="176" y="1311" type="line"/>
      <point x="176" y="1072" type="line"/>
      <point x="54" y="1072" type="line"/>
      <point x="54" y="881" type="line"/>
      <point x="176" y="881" type="line"/>
      <point x="176" y="433" type="line" smooth="yes"/>
      <point x="176" y="189"/>
      <point x="272" y="84"/>
      <point x="414" y="84" type="curve" smooth="yes"/>
      <point x="504" y="84"/>
      <point x="592" y="105"/>
      <point x="665" y="134" type="curve"/>
      <point x="665" y="338" type="line"/>
      <point x="646" y="336"/>
      <point x="625" y="334"/>
    </contour>
    <contour>
      <point x="340.125" y="-907.818359375" type="line"/>
      <point x="645.669921875" y="-892.994140625"/>
      <point x="773.125" y="-755.15625"/>
      <point x="773.125" y="-424.0" type="curve" smooth="yes"/>
      <point x="773.125" y="-356.915039062"/>
      <point x="767.6875" y="-283.5625"/>
      <point x="756.028320312" y="-198.0" type="curve"/>
      <point x="341.125" y="-198.0" type="line"/>
      <point x="341.125" y="-462.0" type="line"/>
      <point x="530.125" y="-462.0" type="line"/>
      <point x="530.125" y="-550.5" type="line" smooth="yes"/>
      <point x="530.125" y="-687.120117188"/>
      <point x="468.349609375" y="-770.83984375"/>
      <point x="340.125" y="-784.506835938" type="curve"/>
    </contour>
    <contour>
      <point x="340.125" y="-681.380859375" type="line"/>
      <point x="237.484375" y="-787.0" type="line"/>
      <point x="165.0" y="-787.0" type="line"/>
      <point x="340.125" y="-611.875" type="line"/>
    </contour>
  </outline>
</glyph>
<glyph name="uogonek" format="1">
  <advance width="1262"/>
  <unicode hex="0173"/>
  <outline>
    <contour>
      <point x="1065" y="971" type="line"/>
      <point x="1065" y="92" type="line"/>
      <point x="1225" y="92" type="line"/>
      <point x="1225" y="0" type="line"/>
      <point x="969" y="0" type="line"/>
      <point x="944" y="199" type="line"/>
      <point x="884.893554688" y="63"/>
      <point x="708.59375" y="-18"/>
      <point x="570.0" y="-18" type="curve" smooth="yes"/>
      <point x="386.0" y="-18"/>
      <point x="265.0" y="70"/>
      <point x="265.0" y="312" type="curve" smooth="yes"/>
      <point x="265.0" y="879" type="line"/>
      <point x="73.0" y="879" type="line"/>
      <point x="73.0" y="971" type="line"/>
      <point x="393.0" y="971" type="line"/>
      <point x="393.0" y="323" type="line" smooth="yes"/>
      <point x="393.0" y="160"/>
      <point x="454.0" y="78"/>
      <point x="602.0" y="78" type="curve" smooth="yes"/>
      <point x="774.0" y="78"/>
      <point x="937.0" y="241"/>
      <point x="937.0" y="326" type="curve" smooth="yes"/>
      <point x="937.0" y="879" type="line"/>
      <point x="777.0" y="879" type="line"/>
      <point x="777.0" y="971" type="line"/>
    </contour>
    <contour>
      <point x="762.890625" y="-244.799804688" type="curve" smooth="yes"/>
      <point x="747.747070312" y="-269.317382812"/>
      <point x="746.0" y="-269.005859375"/>
      <point x="746.0" y="-288.0" type="curve" smooth="yes"/>
      <point x="746.0" y="-368.637695312"/>
      <point x="878.10546875" y="-428.84765625"/>
      <point x="1033.0" y="-436.276367188" type="curve"/>
      <point x="1033.0" y="-423.107421875" type="line"/>
      <point x="956.450195312" y="-415.26953125"/>
      <point x="846.0" y="-384.725585938"/>
      <point x="846.0" y="-273.0" type="curve" smooth="yes"/>
      <point x="846.0" y="-189.857421875"/>
      <point x="917.833984375" y="-110.443359375"/>
      <point x="951.243164062" y="-51.0" type="curve"/>
      <point x="887.853515625" y="-51.0" type="line"/>
      <point x="842.934570312" y="-120.596679688"/>
      <point x="802.44921875" y="-180.752929688"/>
    </contour>
  </outline>
</glyph>
<glyph name="zacute" format="1">
  <advance width="1053"/>
  <unicode hex="017A"/>
  <outline>
    <contour>
      <point x="578" y="830" type="line"/>
      <point x="79" y="262" type="line"/>
      <point x="79" y="51" type="line"/>
      <point x="960" y="51" type="line"/>
      <point x="960" y="400" type="line"/>
      <point x="869" y="400" type="line"/>
      <point x="834" y="243" type="line"/>
      <point x="456" y="243" type="line"/>
      <point x="924" y="815" type="line"/>
      <point x="924" y="1021" type="line"/>
      <point x="106" y="1021" type="line"/>
      <point x="106" y="687" type="line"/>
      <point x="219" y="687" type="line"/>
      <point x="283" y="830" type="line"/>
    </contour>
    <contour>
      <point x="764.016601562" y="1476.87988281" type="line"/>
      <point x="298.05859375" y="1213.62011719" type="line"/>
      <point x="248.0" y="1281.49023438" type="line"/>
      <point x="645.333984375" y="1647.81054688" type="line"/>
    </contour>
  </outline>
</glyph>
<glyph name="zdotaccent" format="1">
  <advance width="1053"/>
  <unicode hex="017C"/>
  <outline>
    <contour>
      <point x="578" y="830" type="line"/>
      <point x="79" y="262" type="line"/>
      <point x="79" y="51" type="line"/>
      <point x="960" y="51" type="line"/>
      <point x="960" y="400" type="line"/>
      <point x="869" y="400" type="line"/>
      <point x="834" y="243" type="line"/>
      <point x="456" y="243" type="line"/>
      <point x="924" y="815" type="line"/>
      <point x="924" y="1021" type="line"/>
      <point x="106" y="1021" type="line"/>
      <point x="106" y="687" type="line"/>
      <point x="219" y="687" type="line"/>
      <point x="283" y="830" type="line"/>
    </contour>
    <contour>
      <point x="523.0" y="1198.0" type="curve" smooth="yes"/>
      <point x="384.102539062" y="1198"/>
      <point x="295.0" y="1271.56054688"/>
      <point x="295.0" y="1397.0" type="curve" smooth="yes"/>
      <point x="295.0" y="1522.29980469"/>
      <point x="381.8125" y="1591.0"/>
      <point x="522.0" y="1591.0" type="curve" smooth="yes"/>
      <point x="668.170898438" y="1591.0"/>
      <point x="758.0" y="1523.45019531"/>
      <point x="758.0" y="1397.0" type="curve" smooth="yes"/>
      <point x="758.0" y="1268.86035156"/>
      <point x="666.700195312" y="1198.0"/>
    </contour>
  </outline>
</glyph>
<glyph name="Zcaron" format="1">
  <advance width="1283"/>
  <unicode hex="017D"/>
  <outline>
    <contour>
      <point x="301" y="2183" type="line"/>
      <point x="511" y="1932" type="line"/>
      <point x="721" y="2183" type="line"/>
      <point x="797" y="2134" type="line"/>
      <point x="569" y="1822" type="line"/>
      <point x="452" y="1822" type="line"/>
      <point x="226" y="2134" type="line"/>
    </contour>
    <contour>
      <point x="1004" y="359" type="line"/>
      <point x="1104" y="695" type="line"/>
      <point x="1298" y="695" type="line"/>
      <point x="1298" y="102" type="line"/>
      <point x="92" y="102" type="line"/>
      <point x="92" y="384" type="line"/>
      <point x="761" y="1342" type="line"/>
      <point x="360" y="1342" type="line"/>
      <point x="284" y="1030" type="line"/>
      <point x="87" y="1030" type="line"/>
      <point x="87" y="1592" type="line"/>
      <point x="1277" y="1592" type="line"/>
      <point x="1277" y="1331" type="line"/>
      <point x="612" y="359" type="line"/>
    </contour>
  </outline>
</glyph>
<glyph name="zcaron" format="1">
  <advance width="1053"/>
  <unicode hex="017E"/>
  <outline>
    <contour>
      <point x="578" y="830" type="line"/>
      <point x="79" y="262" type="line"/>
      <point x="79" y="51" type="line"/>
      <point x="960" y="51" type="line"/>
      <point x="960" y="400" type="line"/>
      <point x="869" y="400" type="line"/>
      <point x="834" y="243" type="line"/>
      <point x="456" y="243" type="line"/>
      <point x="924" y="815" type="line"/>
      <point x="924" y="1021" type="line"/>
      <point x="106" y="1021" type="line"/>
      <point x="106" y="687" type="line"/>
      <point x="219" y="687" type="line"/>
      <point x="283" y="830" type="line"/>
    </contour>
    <contour>
      <point x="237" y="1599" type="line"/>
      <point x="447" y="1348" type="line"/>
      <point x="657" y="1599" type="line"/>
      <point x="733" y="1550" type="line"/>
      <point x="505" y="1238" type="line"/>
      <point x="388" y="1238" type="line"/>
      <point x="162" y="1550" type="line"/>
    </contour>
  </outline>
</glyph>
<glyph name="uni0207" format="1">
  <advance width="1094"/>
  <unicode hex="0207"/>
  <outline>
    <contour>
      <point x="793" y="1231" type="line"/>
      <point x="774" y="1410"/>
      <point x="657" y="1505"/>
      <point x="494" y="1505" type="curve" smooth="yes"/>
      <point x="483" y="1505" type="line"/>
      <point x="482" y="1507" type="line"/>
      <point x="321" y="1500"/>
      <point x="212" y="1408"/>
      <point x="194" y="1232" type="curve"/>
      <point x="347" y="1232" type="line"/>
      <point x="367" y="1326"/>
      <point x="442" y="1392"/>
      <point x="493" y="1392" type="curve" smooth="yes"/>
      <point x="545" y="1392"/>
      <point x="620" y="1327"/>
      <point x="640" y="1231" type="curve"/>
    </contour>
    <contour>
      <point x="835" y="584" type="line"/>
      <point x="835" y="605" type="line" smooth="yes"/>
      <point x="835" y="756"/>
      <point x="700" y="893"/>
      <point x="524" y="893" type="curve" smooth="yes"/>
      <point x="343" y="893"/>
      <point x="224" y="761"/>
      <point x="201" y="618" type="curve"/>
      <point x="201" y="616"/>
      <point x="199" y="586"/>
      <point x="199" y="584" type="curve"/>
    </contour>
    <contour>
      <point x="68.0" y="485.0" type="curve" smooth="yes"/>
      <point x="68" y="766"/>
      <point x="228" y="989"/>
      <point x="524" y="989" type="curve" smooth="yes"/>
      <point x="748" y="989"/>
      <point x="948" y="841"/>
      <point x="948" y="562" type="curve" smooth="yes"/>
      <point x="948" y="561"/>
      <point x="946" y="518"/>
      <point x="944" y="496" type="curve"/>
      <point x="196" y="496" type="line"/>
      <point x="196" y="260"/>
      <point x="316" y="77"/>
      <point x="586" y="77" type="curve" smooth="yes"/>
      <point x="750.018554688" y="77"/>
      <point x="845.190429688" y="132.190429688"/>
      <point x="911.0" y="179.0" type="curve"/>
      <point x="921.0" y="177.0" type="line"/>
      <point x="921.0" y="79.0" type="line"/>
      <point x="882.109375" y="50.8974609375"/>
      <point x="761.448242188" y="-18.0"/>
      <point x="565.0" y="-18.0" type="curve" smooth="yes"/>
      <point x="256.0" y="-18.0"/>
      <point x="68.0" y="211.0"/>
    </contour>
  </outline>
</glyph>
<glyph name="uni0208" format="1">
  <advance width="736"/>
  <unicode hex="0208"/>
  <outline>
    <contour>
      <point x="79" y="2381" type="line"/>
      <point x="278" y="1789" type="line"/>
      <point x="232" y="1762" type="line"/>
      <point x="-88" y="2217" type="line"/>
    </contour>
    <contour>
      <point x="453" y="2413" type="line"/>
      <point x="581" y="1793" type="line"/>
      <point x="502" y="1764" type="line"/>
      <point x="287" y="2337" type="line"/>
    </contour>
    <contour>
      <point x="595" y="359" type="line"/>
      <point x="736" y="359" type="line"/>
      <point x="736" y="102" type="line"/>
      <point x="78" y="102" type="line"/>
      <point x="78" y="359" type="line"/>
      <point x="225" y="359" type="line"/>
      <point x="225" y="1342" type="line"/>
      <point x="82" y="1342" type="line"/>
      <point x="82" y="1593" type="line"/>
      <point x="742" y="1593" type="line"/>
      <point x="742" y="1342" type="line"/>
      <point x="595" y="1342" type="line"/>
    </contour>
  </outline>
</glyph>
<glyph name="uni0209" format="1">
  <advance width="651"/>
  <unicode hex="0209"/>
  <outline>
    <contour>
      <point x="98" y="1860" type="line"/>
      <point x="297" y="1268" type="line"/>
      <point x="251" y="1241" type="line"/>
      <point x="-69" y="1696" type="line"/>
    </contour>
    <contour>
      <point x="472" y="1892" type="line"/>
      <point x="600" y="1272" type="line"/>
      <point x="521" y="1243" type="line"/>
      <point x="306" y="1816" type="line"/>
    </contour>
    <contour>
      <point x="643" y="51" type="line"/>
      <point x="98" y="51" type="line"/>
      <point x="98" y="248" type="line"/>
      <point x="180" y="248" type="line"/>
      <point x="180" y="798" type="line"/>
      <point x="91" y="798" type="line"/>
      <point x="91" y="962" type="line"/>
      <point x="559" y="1015" type="line"/>
      <point x="559" y="248" type="line"/>
      <point x="643" y="248" type="line"/>
    </contour>
  </outline>
</glyph>
<glyph name="uni020A" format="1">
  <advance width="736"/>
  <unicode hex="020A"/>
  <outline>
    <contour>
      <point x="570" y="1815" type="line"/>
      <point x="551" y="1994"/>
      <point x="434" y="2089"/>
      <point x="271" y="2089" type="curve" smooth="yes"/>
      <point x="260" y="2089" type="line"/>
      <point x="259" y="2091" type="line"/>
      <point x="98" y="2084"/>
      <point x="-11" y="1992"/>
      <point x="-29" y="1816" type="curve"/>
      <point x="124" y="1816" type="line"/>
      <point x="144" y="1910"/>
      <point x="219" y="1976"/>
      <point x="270" y="1976" type="curve" smooth="yes"/>
      <point x="322" y="1976"/>
      <point x="397" y="1911"/>
      <point x="417" y="1815" type="curve"/>
    </contour>
    <contour>
      <point x="595" y="359" type="line"/>
      <point x="736" y="359" type="line"/>
      <point x="736" y="102" type="line"/>
      <point x="78" y="102" type="line"/>
      <point x="78" y="359" type="line"/>
      <point x="225" y="359" type="line"/>
      <point x="225" y="1342" type="line"/>
      <point x="82" y="1342" type="line"/>
      <point x="82" y="1593" type="line"/>
      <point x="742" y="1593" type="line"/>
      <point x="742" y="1342" type="line"/>
      <point x="595" y="1342" type="line"/>
    </contour>
  </outline>
</glyph>
<glyph name="uni020E" format="1">
  <advance width="1598"/>
  <unicode hex="020E"/>
  <outline>
    <contour>
      <point x="1052" y="1815" type="line"/>
      <point x="1033" y="1994"/>
      <point x="916" y="2089"/>
      <point x="753" y="2089" type="curve" smooth="yes"/>
      <point x="742" y="2089" type="line"/>
      <point x="741" y="2091" type="line"/>
      <point x="580" y="2084"/>
      <point x="471" y="1992"/>
      <point x="453" y="1816" type="curve"/>
      <point x="606" y="1816" type="line"/>
      <point x="626" y="1910"/>
      <point x="701" y="1976"/>
      <point x="752" y="1976" type="curve" smooth="yes"/>
      <point x="804" y="1976"/>
      <point x="879" y="1911"/>
      <point x="899" y="1815" type="curve"/>
    </contour>
    <contour>
      <point x="50" y="798" type="curve" smooth="yes"/>
      <point x="50" y="555"/>
      <point x="144" y="370"/>
      <point x="265" y="242" type="curve" smooth="yes"/>
      <point x="382" y="118"/>
      <point x="548" y="22"/>
      <point x="768" y="22" type="curve" smooth="yes"/>
      <point x="988" y="22"/>
      <point x="1154" y="118"/>
      <point x="1271" y="242" type="curve" smooth="yes"/>
      <point x="1392" y="370"/>
      <point x="1486" y="555"/>
      <point x="1486" y="798" type="curve" smooth="yes"/>
      <point x="1486" y="1282"/>
      <point x="1206" y="1572"/>
      <point x="768" y="1572" type="curve" smooth="yes"/>
      <point x="332" y="1572"/>
      <point x="50" y="1283"/>
    </contour>
    <contour>
      <point x="768" y="1311" type="curve" smooth="yes"/>
      <point x="988" y="1311"/>
      <point x="1013" y="983"/>
      <point x="1013" y="806" type="curve" smooth="yes"/>
      <point x="1013" y="632"/>
      <point x="990" y="267"/>
      <point x="768" y="267" type="curve" smooth="yes"/>
      <point x="546" y="267"/>
      <point x="523" y="630"/>
      <point x="523" y="806" type="curve" smooth="yes"/>
      <point x="523" y="982"/>
      <point x="547" y="1311"/>
    </contour>
  </outline>
</glyph>
<glyph name="uni0214" format="1">
  <advance width="1451"/>
  <unicode hex="0214"/>
  <outline>
    <contour>
      <point x="435" y="2381" type="line"/>
      <point x="634" y="1789" type="line"/>
      <point x="588" y="1762" type="line"/>
      <point x="268" y="2217" type="line"/>
    </contour>
    <contour>
      <point x="809" y="2413" type="line"/>
      <point x="937" y="1793" type="line"/>
      <point x="858" y="1764" type="line"/>
      <point x="643" y="2337" type="line"/>
    </contour>
    <contour>
      <point x="199" y="704" type="line" smooth="yes"/>
      <point x="199" y="260"/>
      <point x="344" y="22"/>
      <point x="728" y="22" type="curve" smooth="yes"/>
      <point x="1029" y="22"/>
      <point x="1276" y="206"/>
      <point x="1276" y="520" type="curve" smooth="yes"/>
      <point x="1276" y="1291" type="line"/>
      <point x="1430" y="1291" type="line"/>
      <point x="1430" y="1541" type="line"/>
      <point x="909" y="1541" type="line"/>
      <point x="909" y="1291" type="line"/>
      <point x="1056" y="1291" type="line"/>
      <point x="1056" y="536" type="line" smooth="yes"/>
      <point x="1056" y="388"/>
      <point x="964" y="295"/>
      <point x="835" y="295" type="curve" smooth="yes"/>
      <point x="672" y="295"/>
      <point x="619" y="452"/>
      <point x="619" y="600" type="curve" smooth="yes"/>
      <point x="619" y="1291" type="line"/>
      <point x="752" y="1291" type="line"/>
      <point x="752" y="1541" type="line"/>
      <point x="38" y="1541" type="line"/>
      <point x="38" y="1291" type="line"/>
      <point x="199" y="1291" type="line"/>
    </contour>
  </outline>
</glyph>
<glyph name="uni021A" format="1">
  <advance width="1353"/>
  <unicode hex="021A"/>
  <outline>
    <contour>
      <point x="634" y="-908" type="line"/>
      <point x="940" y="-893"/>
      <point x="1067" y="-755"/>
      <point x="1067" y="-424" type="curve" smooth="yes"/>
      <point x="1067" y="-357"/>
      <point x="1062" y="-284"/>
      <point x="1050" y="-198" type="curve"/>
      <point x="635" y="-198" type="line"/>
      <point x="635" y="-462" type="line"/>
      <point x="824" y="-462" type="line"/>
      <point x="824" y="-551" type="line" smooth="yes"/>
      <point x="824" y="-687"/>
      <point x="762" y="-771"/>
      <point x="634" y="-785" type="curve"/>
    </contour>
    <contour>
      <point x="459" y="-787" type="line"/>
      <point x="634" y="-612" type="line"/>
      <point x="634" y="-681" type="line"/>
      <point x="531" y="-787" type="line"/>
    </contour>
    <contour>
      <point x="906" y="1291" type="line"/>
      <point x="906" y="309" type="line"/>
      <point x="1052" y="309" type="line"/>
      <point x="1052" y="51" type="line"/>
      <point x="352" y="51" type="line"/>
      <point x="352" y="309" type="line"/>
      <point x="497" y="309" type="line"/>
      <point x="497" y="1291" type="line"/>
      <point x="288" y="1291" type="line"/>
      <point x="244" y="1016" type="line"/>
      <point x="57" y="1016" type="line"/>
      <point x="57" y="1541" type="line"/>
      <point x="1350" y="1541" type="line"/>
      <point x="1350" y="1016" type="line"/>
      <point x="1164" y="1016" type="line"/>
      <point x="1122" y="1291" type="line"/>
    </contour>
  </outline>
</glyph>
<glyph name="uni021B" format="1">
  <advance width="768"/>
  <unicode hex="021B"/>
  <outline>
    <contour>
      <point x="391" y="-908" type="line"/>
      <point x="697" y="-893"/>
      <point x="824" y="-755"/>
      <point x="824" y="-424" type="curve" smooth="yes"/>
      <point x="824" y="-357"/>
      <point x="819" y="-284"/>
      <point x="807" y="-198" type="curve"/>
      <point x="392" y="-198" type="line"/>
      <point x="392" y="-462" type="line"/>
      <point x="581" y="-462" type="line"/>
      <point x="581" y="-551" type="line" smooth="yes"/>
      <point x="581" y="-687"/>
      <point x="519" y="-771"/>
      <point x="391" y="-785" type="curve"/>
    </contour>
    <contour>
      <point x="216" y="-787" type="line"/>
      <point x="391" y="-612" type="line"/>
      <point x="391" y="-681" type="line"/>
      <point x="288" y="-787" type="line"/>
    </contour>
    <contour>
      <point x="608" y="334" type="curve" smooth="yes"/>
      <point x="513" y="334"/>
      <point x="459" y="404"/>
      <point x="459" y="489" type="curve" smooth="yes"/>
      <point x="459" y="881" type="line"/>
      <point x="632" y="881" type="line"/>
      <point x="632" y="1072" type="line"/>
      <point x="459" y="1072" type="line"/>
      <point x="459" y="1394" type="line"/>
      <point x="176" y="1311" type="line"/>
      <point x="176" y="1072" type="line"/>
      <point x="54" y="1072" type="line"/>
      <point x="54" y="881" type="line"/>
      <point x="176" y="881" type="line"/>
      <point x="176" y="433" type="line" smooth="yes"/>
      <point x="176" y="189"/>
      <point x="272" y="84"/>
      <point x="414" y="84" type="curve" smooth="yes"/>
      <point x="504" y="84"/>
      <point x="592" y="105"/>
      <point x="665" y="134" type="curve"/>
      <point x="665" y="338" type="line"/>
      <point x="646" y="336"/>
      <point x="625" y="334"/>
    </contour>
  </outline>
</glyph>
<glyph name="circumflex" format="1">
  <advance width="696"/>
  <unicode hex="02C6"/>
  <outline>
    <contour>
      <point x="554" y="1298" type="line"/>
      <point x="344" y="1549" type="line"/>
      <point x="134" y="1298" type="line"/>
      <point x="59" y="1347" type="line"/>
      <point x="285" y="1659" type="line"/>
      <point x="402" y="1659" type="line"/>
      <point x="630" y="1347" type="line"/>
    </contour>
  </outline>
</glyph>
<glyph name="ogonek" format="1">
  <advance width="425"/>
  <unicode hex="02DB"/>
  <outline>
    <contour>
      <point x="82.8905944824" y="-244.800003052" type="line"/>
      <point x="67.7471008301" y="-269.317001343"/>
      <point x="66.0" y="-269.006027222"/>
      <point x="66.0" y="-288.000015259" type="curve" smooth="yes"/>
      <point x="66.0" y="-368.638015747"/>
      <point x="198.104995728" y="-428.848007202"/>
      <point x="353.0" y="-436.276016235" type="curve"/>
      <point x="353.0" y="-423.107009888" type="line"/>
      <point x="276.450012207" y="-415.270004272"/>
      <point x="166.0" y="-384.726028442"/>
      <point x="166.0" y="-273.000015259" type="curve" smooth="yes"/>
      <point x="166.0" y="-189.857009888"/>
      <point x="237.833999634" y="-110.443008423"/>
      <point x="271.243011475" y="-51.0000152588" type="curve"/>
      <point x="207.854003906" y="-51.0000152588" type="line"/>
      <point x="162.934997559" y="-120.597015381"/>
      <point x="122.449005127" y="-180.75302124"/>
      <point x="82.8905944824" y="-244.800018311" type="curve"/>
    </contour>
  </outline>
</glyph>
<glyph name="hungarumlaut" format="1">
  <advance width="807"/>
  <unicode hex="02DD"/>
  <outline>
    <contour>
      <point x="348.071990967" y="1715.63000488" type="line"/>
      <point x="133.585998535" y="1143.43005371" type="line"/>
      <point x="54.0" y="1172.38000488" type="line"/>
      <point x="182.240005493" y="1792.41003418" type="line"/>
    </contour>
    <contour>
      <point x="723.252029419" y="1596.06994629" type="line"/>
      <point x="407.56300354" y="1154.47998047" type="line"/>
      <point x="363.631027222" y="1202.02001953" type="line"/>
      <point x="555.581985474" y="1760.34997559" type="line"/>
    </contour>
  </outline>
</glyph>
<glyph name="quotesinglbase" format="1">
  <advance width="491"/>
  <unicode hex="201A"/>
  <outline>
    <contour>
      <point x="209.125" y="-395.817993164" type="line"/>
      <point x="514.66998291" y="-380.993988037"/>
      <point x="642.125" y="-243.156005859"/>
      <point x="642.125" y="88.0" type="curve" smooth="yes"/>
      <point x="642.125" y="155.085006714"/>
      <point x="636.687988281" y="228.43800354"/>
      <point x="625.028015137" y="314.0" type="curve"/>
      <point x="210.125" y="314.0" type="line"/>
      <point x="210.125" y="50.0" type="line"/>
      <point x="399.125" y="50.0" type="line"/>
      <point x="399.125" y="-38.5" type="line" smooth="yes"/>
      <point x="399.125" y="-175.119995117"/>
      <point x="337.350006104" y="-258.839996338"/>
      <point x="209.125" y="-272.506988525" type="curve"/>
    </contour>
    <contour>
      <point x="209.125" y="-169.380996704" type="line"/>
      <point x="106.484008789" y="-275.0" type="line"/>
      <point x="34.0" y="-275.0" type="line"/>
      <point x="209.125" y="-99.875" type="line"/>
    </contour>
  </outline>
</glyph>
<glyph name="guilsinglright" format="1">
  <advance width="611"/>
  <unicode hex="203A"/>
  <outline>
    <contour>
      <point x="540.62902832" y="420.92098999" type="line"/>
      <point x="169.54901123" y="69.0049133301" type="line"/>
      <point x="44.0000152588" y="216.246017456" type="line"/>
      <point x="361.754013062" y="534.000015259" type="line"/>
      <point x="44.0000152588" y="851.754043579" type="line"/>
      <point x="169.54901123" y="998.995010376" type="line"/>
      <point x="540.62902832" y="647.078994751" type="line"/>
    </contour>
  </outline>
</glyph>
<glyph name="Euro" format="1">
  <advance width="1295"/>
  <unicode hex="20AC"/>
  <outline>
    <contour>
      <point x="607.418029785" y="500.628997803" type="line"/>
      <point x="592.023986816" y="565.0" type="line"/>
      <point x="764.28302002" y="565.0" type="line"/>
      <point x="764.28302002" y="687.0" type="line"/>
      <point x="582.081970215" y="687.0" type="line"/>
      <point x="582.081970215" y="915.0" type="line"/>
      <point x="764.28302002" y="915.0" type="line"/>
      <point x="764.28302002" y="1037.0" type="line"/>
      <point x="591.645996094" y="1037.0" type="line"/>
      <point x="604.359985352" y="1099.48999023" type="line" smooth="yes"/>
      <point x="633.125976562" y="1240.86999512"/>
      <point x="699.760986328" y="1338.0"/>
      <point x="809.172973633" y="1338.0" type="curve" smooth="yes"/>
      <point x="969.130004883" y="1338.0"/>
      <point x="1052.43994141" y="1194.26000977"/>
      <point x="1064.54003906" y="1039.0" type="curve"/>
      <point x="1261.92004395" y="1039.0" type="line"/>
      <point x="1261.07995605" y="1569.0" type="line"/>
      <point x="1033.11999512" y="1569.0" type="line"/>
      <point x="986.651977539" y="1463.56994629" type="line"/>
      <point x="941.893981934" y="1512.10998535" type="line" smooth="yes"/>
      <point x="886.166992188" y="1572.54003906"/>
      <point x="787.288024902" y="1598.0"/>
      <point x="656.898986816" y="1598.0" type="curve" smooth="yes"/>
      <point x="361.319000244" y="1598.0"/>
      <point x="205.895996094" y="1366.56994629"/>
      <point x="138.656997681" y="1079.36999512" type="curve" smooth="yes"/>
      <point x="129.43800354" y="1040.0" type="line"/>
      <point x="21.0" y="1040.0" type="line"/>
      <point x="21.0" y="918.0" type="line"/>
      <point x="113.847000122" y="918.0" type="line"/>
      <point x="108.791000366" y="862.382995605" type="line" smooth="yes"/>
      <point x="108.318984985" y="857.185974121"/>
      <point x="107.999984741" y="849.728027344"/>
      <point x="107.999984741" y="840.5" type="curve" smooth="yes"/>
      <point x="107.999984741" y="767.5" type="line" smooth="yes"/>
      <point x="107.999984741" y="758.271972656"/>
      <point x="108.317977905" y="750.814025879"/>
      <point x="108.790985107" y="745.617004395" type="curve" smooth="yes"/>
      <point x="113.846984863" y="690.0" type="line"/>
      <point x="20.9999847412" y="690.0" type="line"/>
      <point x="20.9999847412" y="568.0" type="line"/>
      <point x="129.901977539" y="568.0" type="line"/>
      <point x="139.501983643" y="529.270019531" type="line" smooth="yes"/>
      <point x="209.141967773" y="248.309997559"/>
      <point x="362.2449646" y="30.0"/>
      <point x="657.778961182" y="30.0" type="curve" smooth="yes"/>
      <point x="788.083953857" y="30.0"/>
      <point x="886.53994751" y="54.4364929199"/>
      <point x="941.513946533" y="115.475006104" type="curve" smooth="yes"/>
      <point x="986.318939209" y="165.221008301" type="line"/>
      <point x="1033.1199646" y="59.0000152588" type="line"/>
      <point x="1261.07992554" y="59.0000152588" type="line"/>
      <point x="1261.92001343" y="589.000015259" type="line"/>
      <point x="1064.55001831" y="589.000015259" type="line"/>
      <point x="1052.52999878" y="434.755020142"/>
      <point x="969.561981201" y="290.000015259"/>
      <point x="809.172943115" y="290.000015259" type="curve" smooth="yes"/>
      <point x="705.594940186" y="290.000015259"/>
      <point x="637.707977295" y="373.957015991"/>
      <point x="607.417999268" y="500.629013062" type="curve"/>
    </contour>
  </outline>
</glyph>
